<?xml version="1.0" encoding="utf-8"?>
<!-- Generator: Adobe Illustrator 18.1.1, SVG Export Plug-In . SVG Version: 6.00 Build 0)  -->
<svg version="1.1" id="Calque_1" xmlns="http://www.w3.org/2000/svg" xmlns:xlink="http://www.w3.org/1999/xlink" x="0px" y="0px"
	 viewBox="0 0 2000 2000" enable-background="new 0 0 56.8 54.1" xml:space="preserve">
<g>
	<polygon id="étoiles_1_" fill="#E51E34" points="28.4,2.3 36.5,18.7 54.7,21.4 41.5,34.1 44.6,52.2 28.4,43.7 12.2,52.2 
		15.3,34.1 2.2,21.4 20.3,18.7 	"/>
	<path fill="#FFF0DA" d="M46,54.1l-17.6-9.2l-17.6,9.2l3.4-19.6L0,20.6l19.6-2.9L28.4,0l8.8,17.8l19.6,2.9L42.6,34.5L46,54.1z
		 M28.4,42.5l14.9,7.8l-2.8-16.6l12-11.7l-16.6-2.4L28.4,4.6L21,19.6L4.4,22.1l12,11.7l-2.8,16.6L28.4,42.5z"/>
</g>
</svg>
