<?xml version="1.0" encoding="utf-8"?>
<!-- Generator: Adobe Illustrator 18.1.1, SVG Export Plug-In . SVG Version: 6.00 Build 0)  -->
<svg version="1.1" id="Calque_1" xmlns="http://www.w3.org/2000/svg" xmlns:xlink="http://www.w3.org/1999/xlink" x="0px" y="0px"
	 viewBox="0 0 532.7 420.7" enable-background="new 0 0 532.7 420.7" xml:space="preserve">
<g id="grandes_rues_2_">
	<path fill="#E94860" d="M441.7,368.7c-4.9-5.2-19.1-22.3-35.4-42c-20-24.1-44.8-54.2-49.1-57.8c-9.5-7.7-9.1-17.8-8.6-22.7
		c-6.7-4.7-32.8-18.7-45.3-23.9c-12.4-5.2-20.9-6.4-31.6-7.9l-1.5-0.3c-4.3-0.6-21.1-8-26-10.2c-13-5.9-21.2-9.9-24.1-12.2
		c-3-0.8-15.9-1.4-34-0.6c-20.5,0.9-32.8,3-36.1,4.8c-7.3,3.9-16.7,16.1-22.9,24.1c-2.3,3-4.3,5.6-5.9,7.4c-1.8,2-3.3,4.1-5,6.4
		c-4.2,5.7-9.4,12.7-20.5,22.1c-14.7,12.4-40.7,58.3-49.1,73.4l-8.8-5c15.2-27,36.9-64.1,51.5-76.1c10.3-8.6,14.9-14.7,19-20.3
		c1.8-2.4,3.5-4.7,5.5-7c1.4-1.6,3.3-4,5.5-6.9c7.1-9.3,16.9-21.9,26-26.9c7.9-4.3,32.5-5.7,42.6-6.1c8.7-0.3,17-0.4,23.4-0.1
		c11.3,0.4,13.5,1.6,14.9,3c3.9,3.1,40.2,19.4,45.4,20.4l1.4,0.2c11.1,1.6,20.5,2.9,34.2,8.6c6.6,2.8,18.6,8.7,29.9,14.7
		c5.6,3,10.4,5.8,13.8,7.9c5.7,3.5,8.1,5.4,8.1,8.7c0,0.6-0.1,1.2-0.2,2c-0.4,3.5-1.2,9.9,4.8,14.7c4.9,3.9,23.1,26,50.6,59.2
		c15.6,18.8,30.3,36.6,34.9,41.5L441.7,368.7z"/>
	<path fill="#E94860" d="M363.4,271.3c-1,0-1.9-0.4-2.5-1.1c-7.6-8.6-27.7-20.9-33.9-20.9c-0.1,0-0.2,0-0.4,0
		c-2.4,0.2-8.1-2.5-17.1-8c-4.1-2.5-14.1-9-19.5-14.6c-7.5-7.8-25.8-16.2-26-16.3c-1.7-0.8-2.5-2.8-1.7-4.5c0.8-1.7,2.8-2.5,4.5-1.7
		c0.8,0.4,19.9,8.9,28.2,17.8c3.2,3.4,9.7,8.2,17.3,13c7.4,4.6,12.7,7.2,14.1,7.5c9.3-0.5,31.8,14.1,39.7,23.1
		c1.2,1.4,1.1,3.5-0.3,4.8C365,271,364.1,271.3,363.4,271.3z"/>
	<path fill="#E94860" d="M335.3,253.1c-0.5,0-1-0.1-1.4-0.3c-4.7-2.1-7.1-8.7-9.4-15c-1.2-3.3-3.2-8.9-4.7-9.6
		c-1.7-0.9-2.3-2.9-1.5-4.6c0.9-1.7,2.9-2.3,4.6-1.5c3.8,2,5.7,7.2,7.9,13.3c1.6,4.3,3.8,10.2,5.9,11.2c1.7,0.8,2.4,2.8,1.7,4.5
		C337.8,252.4,336.6,253.1,335.3,253.1z"/>
	<path fill="#E94860" d="M336.5,343.3c-0.2,0-0.3,0-0.5-0.1c-0.6-0.3-0.9-1-0.6-1.6l32.1-68.2c0.8-2.5,19.9-62.7,21.5-70.9
		c1.6-8,0.9-9.5-1.9-15c-0.7-1.4-3-5.6-5.9-10.8c-4.1-7.5-9.7-17.6-14.1-26c-8-15.4-7.7-16.2-7.4-17l18.7-45.2
		c0.2-0.6,1-0.9,1.6-0.7c0.6,0.2,0.9,1,0.7,1.6l-18.6,45c0.5,3.3,14.5,28.9,21.2,41.2c2.9,5.3,5.2,9.5,5.9,10.9
		c2.9,5.8,3.9,7.7,2.1,16.6c-1.7,8.4-20.7,68.6-21.6,71.1v0.1l-32.3,68.2C337.4,343,336.9,343.3,336.5,343.3z"/>
	<path fill="#E94860" d="M317.4,353.1c-1.8,0-7.2-1.3-29.4-10.9c-13-5.7-25.8-11.5-26-11.6l0,0l-30.8-15.3l-13.5,1.1l-1.5-0.8
		l-10.8-16l-13-22.6L134,250.3l-0.8-0.7L117.8,223c-0.5-0.8-0.2-1.9,0.6-2.3c0.8-0.5,1.9-0.2,2.3,0.6l15.1,26l58.4,26.7l0.8,0.7
		l13.3,22.9l10.2,15.2l12.9-1l0.9,0.2l31.1,15.6c23.6,10.9,50.5,22.3,53.9,22.1c3.4-1,14.5-6.9,18.5-9.1l2.5,1.3
		c0.1,0.6,0.6,0.8,1.5,0.8c3.3-0.7,44.4-21.7,47.3-24.1c2-2.3,17.6-14.6,24.5-20l1.4-0.3l26.7,6.1l25.7-2.5l12.4-0.8l7-23.3
		l-10.6-11.4l-0.4-1.6c0,0,1.5-6.4-0.6-14.6c-2.3-8.9-11.7-27.2-13.3-28.7c-1.3-1.1-10.3-5.8-15.7-8.5l-0.9-1l-6.4-21.4
		c-5.8-7.7-12.7-17.1-13.4-19.5c-0.5-1.1-5.1-6.6-8.8-11c-5.6-6.7-11.3-13.6-12.6-16.3c-1.8-3.8-14.9-21-19.8-27.2l-0.3-1.1
		l0.5-23.1c0-1,0.8-1.7,1.7-1.7c1,0,1.7,0.8,1.7,1.7l-0.5,22.6c2.6,3.4,17.6,22.9,19.8,27.5c1.1,2.3,7.2,9.7,12.1,15.6
		c7.7,9.2,9.2,11.2,9.4,12.4c0.6,1.6,7,10.6,12.9,18.5l0.3,0.5l6.3,21c3.4,1.7,13.9,7,15.7,8.7c2.6,2.2,12.2,22.1,14.4,30.4
		c1.9,7.3,1.1,13,0.8,15.3l10.7,11.5l0.4,1.6l-7.6,25.3l-1.5,1.2l-13.5,0.9l-25.8,2.5h-0.5l-26.3-6c-8.7,6.8-22.2,17.5-23.3,18.8
		l0,0c-0.8,1.1-8.8,5.7-24.1,13.5c-6.9,3.6-23.3,11.8-25.5,12c-2.1,0.2-3.5-0.6-4.3-1.6c-3.9,2.1-14.1,7.7-17.6,8.6
		C317.9,353.1,317.8,353.1,317.4,353.1z"/>
	<path fill="#E94860" d="M353.8,403.7c-2.1,0-4.7-0.1-7.3-0.2c-1.1,0-2.1-0.1-2.5-0.1c-1.4,0-2.7-1.5-4.9-4
		c-1.5-1.7-3.2-3.8-4.6-4.4h-13.1c-2,1-14.2,6.8-19.8,7.2c-5.3,0.4-10.7-1.4-14.6-2.8c-0.5-0.1-0.9-0.3-1.3-0.4
		c-1.3-0.4-136.7-45.7-144.7-49c-7-2.9-13.4-7.5-17.9-10.9c-0.6-0.5-1.2-0.9-1.8-1.3c-4.7-3.4-18.7-11.3-29.1-15.4
		c-7-2.8-12.9-4.9-17.3-6.5c-2.2-0.8-4-1.4-5.3-1.9c-3.9-1.5-12.6-9-13.5-9.8l-24-15.7l-0.2-0.2c-6.8-7.3-7.3-9.4-1.6-29.2l1.4-0.8
		l13.6,3.5c3.9-2.6,33.5-21.7,40.8-27.9l0.1-0.1c8.1-6.8,29.6-25,31.8-43.4l0.7-1l20.5-9.4l0.4-0.1l17.6-1.7l0.6,0.1l16.1,7.7
		c0.6,0.3,0.9,1,0.6,1.6c-0.3,0.6-1,0.9-1.6,0.6l-15.8-7.5l-17.1,1.7l-19.9,9c-2.8,19.2-24.3,37.3-32.5,44.3l-0.1,0.1
		c-8,6.8-40.2,27.5-41.5,28.4l-1,0.1l-12.9-3.3c-5.3,18.6-4.5,19.5,1.3,25.8l23.8,15.4l0.1,0.1c2.6,2.2,9.9,8.3,12.8,9.4
		c1.3,0.5,3,1.1,5.3,2c4.4,1.6,10.3,3.7,17.4,6.5c10.6,4.2,24.8,12.3,29.6,15.8c0.6,0.4,1.1,0.9,1.8,1.3c4.5,3.3,10.7,7.9,17.5,10.6
		c7.9,3.2,143.1,48.5,144.5,48.9c0.4,0.1,0.9,0.3,1.3,0.5c3.7,1.3,8.8,3,13.7,2.7c5.4-0.4,19.1-7,19.2-7.1l0.5-0.1h13.7l0.4,0.1
		c1.9,0.8,3.8,3,5.7,5.1c1,1.2,2.6,3,3.2,3.2c0.5,0,1.4,0,2.6,0.1c3,0.1,9.5,0.5,11.1,0c0.7-0.2,5.9-2.9,11.9-6.1
		c22.4-11.8,46.7-24.3,52.6-25.3c7.7-5.2,16.9-11.8,17-11.9c0.3-0.2,8-6.2,12.6-8.4c1.4-0.7,3-1.3,4.9-2c4.1-1.6,9.3-3.6,15.1-7.2
		c2-1.2,4.7-2.7,7.5-4.3c8.9-5,21.1-11.8,22.9-17.1c2.5-7.3,12-46.7,12-53.4c0-6.6-7.9-82.6-8-83.5v-0.1c0-0.4,0-39.2-0.8-43.9
		c-0.7-4.1-5.5-17.6-7.1-19.8c-2.5-0.3-13.7-2.3-15.8-6c-0.3-0.5-0.7-1.1-1.1-1.8c-2-3.1-5-7.8-1.1-12.3c0.4-0.5,0.6-0.9,0.5-1.2
		c-0.2-0.6-1.5-1.9-7.6-3c-0.7-0.1-0.9-0.1-1-0.2c-1.3-0.7-4.9-4.6-5.3-14.6c0-0.7,0.5-1.2,1.1-1.2c0.6,0,1.2,0.5,1.2,1.1
		c0.4,9.1,3.4,12.1,3.9,12.5c0.1,0,0.3,0,0.5,0.1c4.1,0.8,8.4,2,9.3,4.6c0.3,0.8,0.3,2-1,3.5c-2.6,2.9-1.1,5.8,1.3,9.5
		c0.4,0.7,0.8,1.3,1.1,1.9c1.5,2.6,12.5,4.9,14.2,4.9c0.8,0,1.8,0,5.2,9.3c1.6,4.2,3.3,9.7,3.8,12.4c0.9,4.9,0.9,41.9,0.9,44.2
		c0.4,3.9,8,76.9,8,83.6s-9.6,46.8-12.1,54.2c-2.1,6.1-14.2,12.9-24,18.3c-2.8,1.6-5.4,3-7.4,4.2c-5.9,3.7-11.2,5.8-15.4,7.4
		c-1.9,0.7-3.4,1.3-4.8,2c-4.3,2-12.1,8.1-12.1,8.1c-0.1,0.1-9.6,6.8-17.3,12.1l-0.5,0.2c-5.3,0.7-35.6,16.6-52,25.3
		c-7.8,4-11.5,6-12.2,6.3C357.5,403.6,355.9,403.7,353.8,403.7z"/>
	<path fill="#E94860" d="M358.8,420.7c-1.8,0-3.7-0.3-5.9-0.7c-2.2-0.4-4.7-0.8-7.3-0.9c-7.1-0.3-9.2-1.3-14.2-5.4
		c-1.8-1.5-3.9-2.1-6.6-2.1c-0.8,0-1.5,0-2.1,0.1c-0.5,0-1,0-1.4,0c-1.4,0.4-6.7,3.8-10.7,6.8l-1.7,0.5l-36.8-2.8l-1.5-0.6l-8.9-7.8
		l-22.4-8l-34.9-11.3l-70.4-24l-0.6-0.3l-29.2-18.8L83.2,332c-1.1-0.8-4.5-2.9-6.4-3.7c-1-0.4-2.9-0.7-5-1c-2.3-0.3-5-0.8-7.7-1.5
		c-0.8-0.2-1.5-0.3-2-0.3c-1,0-1.7,0.3-2.9,0.8s-2.6,1.1-4.7,1.5c-3.1,0.6-9.3,1.5-15.4,1.5c-4.6,0-8.4-0.5-11.3-1.6
		c-10-3.7-20.3-9.6-20.9-25.3V302l1.3-12.2l0.1-0.6c0.7-2,1.6-7.8,1.4-23.9c0-0.4,0-0.7,0-0.9c-0.3-0.8-2-3.1-3.2-4.8
		c-3-4.1-6.4-8.8-6.7-12.7c-0.4-6.7,14.5-32,17.3-35.6c2.4-3.1,6.1-3.9,9.8-4.6c2.2-0.4,4.6-0.9,6.7-1.9l40-60.4
		c1.8-3.9,9.7-21.1,15.7-24.1c1.8-0.9,3.6-6.4,4.9-10.8c2-6.3,4.3-13.4,8.6-17.1c2.8-2.3,6.5-6.6,10.4-11
		c6.3-7.2,12.9-14.6,17.8-16.9c2.8-1.3,5.5-2.1,8.2-2.9c4.5-1.3,8.4-2.5,11.7-5.7c1.3-1.3,3.4-3.4,5.7-5.8c8-8.3,20-20.9,27.9-24.5
		c2.9-1.3,7.7-3.9,13.2-6.9c17-9.3,29.4-15.8,34.4-15.8c0.2,0,0.4,0,0.5,0c0.1,0,0.5,0,1.4,0c4.5,0,16.3-0.6,29.9-1.2
		C283,1.1,307,0,319.8,0c4.3,0,7.1,0.1,8.7,0.4c9.9,1.6,43.9,2.8,53,2.8c4,0,12.3,0.4,21.1,0.8c10.3,0.5,20.9,1,26.9,1
		c1.4,0,2.5,0,3.2-0.1c0.5,0,1-0.1,1.7-0.1c1.7-0.2,3.8-0.4,6-0.4c14.5,0,22.4,9.2,23.4,27.4l5.7,26.2v0.2l1.5,12.3
		c0.3,2.6,1.9,6.6,2.5,7.9l0.2,1c0-0.4-0.1-0.6-0.1-0.6c0.8,2,11.4,16.9,21.1,20.9c11.3,4.7,14.5,16.4,15.6,20.7
		c0,0.2,0.1,0.5,0.2,0.7c0.7,2.5,6.9,13.5,10.7,19.8l0.6,1c3.8,6,5.7,9,5.3,16.6c-0.1,1.6-0.4,3.2-0.7,5.2
		c-1.3,7.5-3.2,18.8,3.3,39.5v0.1c1.3,5.4,0.6,10.5-0.1,15.4c-0.8,5.3-1.6,10.7,0.1,16.8c3.8,13,5,33.7,0,46.5
		c-2.4,19.2-2.5,21.9-2.6,35.2c-0.1,8.5-6.8,11-12.1,13c-1.6,0.6-3.1,1.1-4.3,1.8c-5.9,3.1-16.8,11.7-18.8,14.2
		c-2.6,3.2-11.9,11.2-16.8,11.9c-1.6,0.2-4.6,1.3-7.4,2.2c-3.7,1.3-7.5,2.6-10.6,3.1c-4.6,0.7-22.7,10.4-25.7,12.6
		c-2.6,1.8-9.2,7.3-11.9,10.6c-2.9,3.5-11.2,10.6-15.6,11.3c-1.9,0.4-13.8,6.6-21,10.2c-9.8,5-11.9,6.1-13,6.4c-0.4,0.2-1.3,1-2,1.6
		c-1.9,1.6-4.2,3.7-6.7,4.3C360.6,420.7,359.8,420.7,358.8,420.7z M324.9,406.6c3.9,0,7.1,1,9.8,3.3c4.1,3.4,5.3,4,11.2,4.2
		c3,0.1,5.6,0.6,7.9,1c2,0.3,3.6,0.6,4.9,0.6c0.5,0,1,0,1.3-0.1c1.3-0.3,3.2-2,4.6-3.2c1.6-1.4,2.8-2.5,4.2-2.8
		c1.1-0.4,6.8-3.3,11.8-5.9c14.2-7.3,20.4-10.4,22.4-10.7c2.2-0.4,9.5-5.9,12.6-9.6c3.1-3.8,10.2-9.5,12.9-11.5
		c2.5-1.8,21.7-12.4,27.7-13.4c2.6-0.4,6.4-1.7,9.7-2.9c3.4-1.2,6.3-2.2,8.4-2.5c2.9-0.4,11-6.9,13.6-10.1
		c2.7-3.3,14.2-12.3,20.5-15.6c1.6-0.8,3.3-1.5,4.9-2.1c5.4-2,8.8-3.5,8.8-8.3c0.1-13.8,0.2-17,2.7-36.1l0.1-0.6
		c4.6-11.3,3.5-30.9-0.1-43.6c-2-7.1-1.1-13.4-0.3-19c0.7-4.6,1.3-8.9,0.3-13.3c-6.8-21.7-4.7-34.4-3.4-41.9
		c0.3-1.8,0.6-3.4,0.7-4.7c0.3-5.9-0.9-7.8-4.5-13.6l-0.7-1c-1-1.8-10.1-17.1-11.3-21.1c0-0.2-0.1-0.5-0.2-0.8
		c-1.1-4.1-3.7-13.7-12.7-17.5c-6.2-2.6-12.3-8.6-16.3-13c-0.3-0.3-6.4-7.4-7.7-10.8l0,0c-0.1-0.2-2.5-5.6-2.9-9.4L464.3,59
		l-5.7-26.3v-0.4c-1.1-20.4-11-22.8-18.3-22.8c-2,0-3.9,0.2-5.5,0.3c-0.7,0-1.2,0.1-1.8,0.2c-0.9,0-2,0.1-3.6,0.1
		c-6.1,0-16.8-0.5-27-1c-8.7-0.4-16.9-0.8-20.7-0.8c-9.5,0-43.6-1.1-53.8-2.9c-0.9-0.1-2.9-0.3-7.8-0.3c-12.7,0-36.6,1.1-55.7,2
		c-13.8,0.7-25.7,1.2-30.1,1.2c-0.8,0-1.4,0-1.8,0l0,0c-4.1,0-21.5,9.5-32,15.2c-5.6,3-10.5,5.7-13.5,7.1
		c-6.9,3.2-19.1,15.9-26.3,23.4c-2.4,2.5-4.4,4.6-5.9,6c-4.2,4-9.1,5.5-13.8,6.8c-2.5,0.7-5,1.5-7.5,2.6
		c-3.9,1.8-10.4,9.2-16.1,15.7c-4,4.6-7.9,9-10.9,11.6c-3.2,2.7-5.3,9.1-7.1,14.7c-2,6.4-3.9,11.9-7.5,13.8
		c-3.3,1.7-9.9,13.8-13.5,21.9l-0.2,0.4l-40.5,61.1l-1,0.9c-2.9,1.5-5.9,2.1-8.6,2.6c-3.1,0.6-5.5,1-6.7,2.7
		c-3.9,5.2-16.5,28.2-16.3,32.1c0.1,2.4,3.3,6.8,5.7,9.9c2.8,3.8,4.1,5.8,4.1,7.6c0,0.2,0,0.6,0,1c0,8.5,0,20.3-1.6,25.3l-1.2,11.7
		c0.6,11.9,7.5,16.9,17.6,20.5c2.3,0.9,5.5,1.3,9.5,1.3c5.8,0,11.6-0.9,14.5-1.4c1.5-0.2,2.5-0.7,3.5-1.2c1.4-0.6,2.9-1.2,4.9-1.2
		c1,0,2.1,0.2,3.4,0.5c2.4,0.7,4.9,1,7,1.4c2.5,0.4,4.6,0.7,6.2,1.3c2.7,1.1,7,4,7.2,4.1l21.1,13.5l29.1,18.7l70.2,23.9L241,395
		l22.8,8.2l0.8,0.5l8.7,7.6l35,2.7c6.6-4.8,10.9-7.3,12.9-7.3c0.3,0,0.7,0,1.1,0C323.1,406.7,324.1,406.6,324.9,406.6z"/>
	<path fill="#E94860" d="M51.7,327.1h-3.2c-0.7,0-1.2-0.5-1.2-1.2s0.5-1.2,1.2-1.2H51l13.2-25l1-0.6h3.5c2.2-4,13.8-25.3,15.6-27.9
		c1.2-1.9,13.5-14.9,28.2-30.4c5.9-6.2,10.9-11.5,11.8-12.6c1.8-2,2-4.6,2-6.7c0-0.8,0.1-1.5,0.2-2.1l0.7-0.9l3.7-1.7
		c1.1-1,8.5-7.8,13.9-13.7c7.5-8,14-12,20-12.2l1.2,1.4c-0.2,0.9-4.5,21.5-5.3,24.1c-0.5,1.4-4,4.9-12.5,13.4
		c-5.9,5.9-12.6,12.5-14.9,15.4c-0.4,0.5-1.1,0.6-1.7,0.2c-0.5-0.4-0.6-1.1-0.2-1.7c2.4-3.2,8.8-9.6,15.1-15.8
		c5.1-5,11.4-11.3,11.9-12.5c0.6-1.8,3.3-14.6,4.9-22.3c-4.9,0.8-10.6,4.6-16.9,11.3c-5.9,6.3-14.1,13.8-14.2,13.9l-0.3,0.2
		l-3.3,1.5c0,0.3,0,0.8-0.1,1.2c-0.1,2.3-0.3,5.4-2.6,8.1c-1,1.1-5.8,6.2-11.9,12.7c-10.7,11.3-26.7,28.2-27.9,30.1
		c-1.9,2.9-15.7,28.2-15.8,28.4l-1,0.6h-3.5l-13.2,25L51.7,327.1z"/>
	<path fill="#E94860" d="M263,406.8c-0.1,0-0.3,0-0.5-0.1c-0.6-0.2-0.9-1-0.6-1.6l11.4-27.2c-1-4.3-10.7-43.6-12.6-51.4
		c-2-8.4-13.4-62.3-13.6-62.8l-7.3-40c-9.4-15.1-20.5-31.1-22.9-32c-2.8-1-31.3,0.4-50.8,1.7l12.1,37.3l3.1,1l0.5,0.3l14.4,15.9
		c0.4,0.5,0.4,1.2-0.1,1.7c-0.5,0.5-1.2,0.4-1.7-0.1l-14.1-15.7l-3.4-1.1l-0.8-0.8l-12.7-39.3l1-1.6c5-0.3,48.9-3.1,53.2-1.6
		c4.3,1.5,20.9,27.9,24.3,33.2l0.1,0.4l7.3,40.2c0.1,0.5,11.6,54.4,13.5,62.7c2,8.4,12.6,51.3,12.7,51.7v0.8l-11.6,27.5
		C263.9,406.6,263.5,406.8,263,406.8z"/>
	<path fill="#E94860" d="M205.9,235.7L205.9,235.7l-24.8-1.7c-0.7,0-1.1-0.6-1.1-1.3s0.6-1.1,1.3-1.1l24.8,1.7
		c0.7,0,1.1,0.6,1.1,1.3C207.1,235.3,206.6,235.7,205.9,235.7z"/>
	<path fill="#E94860" d="M206.8,299.8c-0.5,0-0.9-0.3-1.1-0.7c-0.3-0.6,0-1.3,0.6-1.6l17.8-7.8l7.7-9.1c0.4-0.5,1.2-0.6,1.7-0.1
		c0.5,0.5,0.6,1.2,0.1,1.7l-7.9,9.3l-0.4,0.3l-18,7.9C207.1,299.8,206.9,299.8,206.8,299.8z"/>
	<path fill="#E94860" d="M240.3,398.7c-0.6,0-1.1-0.5-1.2-1.1l-0.3-9v-0.2l4.8-29.1l-19.9-68.3v-0.2l-2-14.4c-0.1-0.7,0.4-1.2,1-1.3
		c0.7-0.1,1.2,0.4,1.3,1l2,14.2l20,68.3v0.5l-4.8,29.1l0.3,8.9C241.5,398.1,241,398.7,240.3,398.7
		C240.4,398.7,240.3,398.7,240.3,398.7z"/>
	<path fill="#E94860" d="M203.4,386.7c-0.3,0-0.7-0.1-1-0.5c-0.4-0.5-0.3-1.2,0.2-1.7c2.6-2,40-25.3,41.4-26.3l0.7-0.2l19.2,1.4h0.2
		l28.9,6.5c0.2,0,22.4,5.3,49.1,1.7c27-3.6,44.8-6.8,44.9-6.9h0.6l21.2,6.3l0.4,0.2l6,5.4c0.5,0.4,0.5,1.2,0.1,1.7
		c-0.4,0.5-1.2,0.5-1.7,0.1l-5.8-5.2l-20.5-6.2c-2.4,0.4-19.5,3.5-44.8,6.8c-27.2,3.7-49.7-1.7-49.9-1.7l-28.8-6.6l-18.7-1.4
		c-13.5,8.5-39,24.6-40.9,26C203.9,386.6,203.7,386.7,203.4,386.7z"/>
	<path fill="#E94860" d="M127.1,331.7c-0.6,0-1.1-0.4-1.2-1l-3.1-21.2l0.1-0.7l28-52.7l0.2-0.3l9.7-9.5l34.7-34.9l0.7-0.3
		c0.2,0,6.3-0.9,11.1,1.8l0.6,1l-0.9,33l5.5,19.5c2.4,1.8,17.6,13.2,23.1,15.2c6.3,2.3,24,11.4,30.3,15.1
		c6.6,3.9,49.3,20.7,57.8,18.1c8.8-2.8,31.1-14.4,31.3-14.5c0.6-0.3,1.3-0.1,1.6,0.5c0.3,0.6,0.1,1.3-0.5,1.6
		c-0.9,0.5-22.7,11.8-31.6,14.6c-9.9,3.1-54-14.9-59.8-18.3c-6.3-3.7-23.8-12.7-29.9-14.9c-6.3-2.3-23.3-15.2-24-15.7l-0.4-0.6
		l-5.7-20.2V247l0.8-32.5c-3.4-1.6-7.4-1.4-8.6-1.3l-34.5,34.6l-9.6,9.4l-27.7,52.2l3,20.7c0.1,0.7-0.3,1.2-1,1.3
		C127.3,331.7,127.3,331.7,127.1,331.7z"/>
	<path fill="#E94860" d="M219.7,187c-0.1,0-0.2,0-0.3,0c-0.6-0.2-1-0.9-0.8-1.5l2.9-9.4l-78.2-37.8l-32.7-15.8l-15.2-7.4
		c-0.6-0.3-0.8-1-0.5-1.6c0.3-0.6,1-0.8,1.6-0.5l15.1,7.4l32.7,15.8l79,38.3l0.6,1.4l-3.1,10.3C220.7,186.6,220.2,187,219.7,187z"/>
	<path fill="#E94860" d="M96.8,112.8c-0.3,0-0.7-0.1-1-0.5c-0.4-0.5-0.3-1.2,0.2-1.7c8.9-7,63.7-60.9,64.3-61.4
		c0.5-0.5,1.2-0.5,1.7,0c0.5,0.5,0.5,1.2,0,1.7c-2.3,2.2-55.4,54.6-64.4,61.7C97.3,112.7,97.1,112.8,96.8,112.8z"/>
	<path fill="#E94860" d="M423.8,78.5c-0.4,0-0.7-0.1-1-0.5l-38.8-52.6l-0.2-0.6L382,6.2c0-0.7,0.4-1.2,1.1-1.3
		c0.7-0.1,1.2,0.4,1.3,1.1l1.7,18.3l38.6,52.4c0.4,0.5,0.3,1.3-0.2,1.7C424.3,78.5,424,78.5,423.8,78.5z"/>
	<path fill="#E94860" d="M61.1,191.4h-3.4l-0.7-0.2l-6.1-4.5c-0.5-0.4-0.6-1.1-0.2-1.7c0.4-0.5,1.1-0.6,1.7-0.2l5.9,4.3h2.6
		c2.8-2.2,8.8-6.8,11-6.8c2,0,39.3,5.6,46.8,6.7l24.1-52.3l9.3-21.2l0.7-0.7l39.2-12.7h0.3c0.1,0,8.6-0.4,15.9-2.5
		c7.2-2,35.2-10.2,37.8-10.9l7-4.9l1.2-0.1c10.8,5.3,29.2,13.3,33,12.2c1.3-0.4,3.4-1.1,5.9-2c7.9-2.8,19.9-6.9,24.8-6.9
		c1.5,0,5.1-0.3,9.6-0.7c14.5-1.2,38.8-3.2,51.9-0.6l1,1.1c0,1.9,2,3.2,3.3,3.9l1.1-4.2l0.4-0.6l49.5-39.5c0.5-0.4,1.2-0.3,1.7,0.2
		c0.4,0.5,0.3,1.2-0.2,1.7l-49.5,39.1l-1.4,5.2l-1.5,0.8c-0.2-0.1-5.2-1.8-6-5.7c-13-2.3-36.4-0.4-50.4,0.8
		c-4.7,0.4-8.1,0.7-9.8,0.7c-4.6,0-16.4,4.1-24.1,6.8c-2.5,0.9-4.6,1.6-5.9,2c-5.5,1.7-29.1-9.6-34-12l-6.6,4.7l-0.3,0.2
		c-0.3,0.1-30.4,8.9-37.9,11c-7.2,2-15.1,2.5-16.4,2.6L153.6,117l-8.8,20.9L120.3,191l-1.2,0.7c-18.2-2.7-45.7-6.8-47.3-6.8
		c-1.1,0-5.9,3.4-9.8,6.6L61.1,191.4z"/>
	<path fill="#E94860" d="M354,126.9c-0.6,0-1.1-0.5-1.2-1.1c-0.1-4.9,4.8-13.5,4.9-13.8l0.1-0.1l20.3-25.8l54.5-65.9l9.1-13.2
		c0.4-0.5,1.1-0.7,1.7-0.3c0.5,0.4,0.7,1.1,0.3,1.7l-9.3,13.5L380,87.7l-20.2,25.7c-1.3,2.4-4.7,9.1-4.6,12.5
		C355.2,126.4,354.7,126.9,354,126.9L354,126.9z"/>
	<path fill="#E94860" d="M150.7,72.2l-8-3.4c-0.6-0.2-0.9-1-0.6-1.6c0.2-0.6,1-0.9,1.6-0.6l7.4,3.1l50.9-34.2h0.1l27.5-15.2l0.5-0.1
		l196.3-6.8l0.5,0.1l15.1,6.3l10,1.7l0.5,0.2l7.6,5.9c0.5,0.4,0.6,1.1,0.2,1.7c-0.4,0.5-1.1,0.6-1.7,0.2l-7.4-5.8l-9.8-1.7l-0.2-0.1
		l-15-6.2l-195.7,6.8l-27.2,15.1l-51.5,34.5L150.7,72.2z"/>
	<path fill="#E94860" d="M352.3,418.6c-0.6,0-1-0.4-1.1-1l-15.7-75.3l2.2-0.8l35.9,68.8c0.3,0.6,0.1,1.3-0.5,1.6
		c-0.6,0.3-1.3,0.1-1.6-0.5l-32-61.1l14,66.9c0.1,0.6-0.3,1.3-0.9,1.4C352.4,418.6,352.3,418.6,352.3,418.6z"/>
	
		<path fill="none" stroke="#E94860" stroke-width="4.9785" stroke-linecap="round" stroke-linejoin="bevel" stroke-miterlimit="10" d="
		M199.8,236.5"/>
	
		<path fill="none" stroke="#E94860" stroke-width="4.9785" stroke-linecap="round" stroke-linejoin="bevel" stroke-miterlimit="10" d="
		M196.9,281.5"/>
	<path fill="#E94860" d="M206.8,251.4c-0.4,0-0.8-0.2-1-0.6c-5.2-8.3-5.7-16.3-5.7-16.6c0-0.7,0.5-1.2,1.1-1.2
		c0.7,0,1.2,0.5,1.2,1.1l0,0c0,0.1,0.5,7.7,5.3,15.4c0.3,0.6,0.2,1.3-0.4,1.6C207.3,251.4,207,251.4,206.8,251.4z"/>
	<path fill="#E94860" d="M244.3,360.3l-24-11.6l-16.8-7.3l-15.3-7.9l-22.2-10.4l-19.1-7.3l-0.2-0.1l-62.3-42.8
		c-0.5-0.4-0.7-1.1-0.3-1.7c0.4-0.5,1.1-0.7,1.7-0.3l62.1,42.8l19.1,7.3l22.3,10.4l15.3,7.9l16.7,7.3l23.1,11.1l17.3-29.1l14.6-25.5
		v-4.3l0.1-0.4l20.4-53.4l3.4-13.5l0.2-0.4l8.8-11.7l2.5-9.3l30.6-78.9c0.2-0.6,0.9-0.9,1.5-0.7c0.6,0.2,0.9,0.9,0.7,1.5L313.9,211
		l-2.5,9.3l-0.2,0.4l-8.8,11.7l-3.4,13.5l-20.3,53.3v4.4l-0.1,0.6L263.9,330L246,360.1L244.3,360.3z"/>
	<path fill="#E94860" d="M438.3,370.6c-0.3,0-0.7-0.1-0.9-0.4l-47.9-57.9l-50.1-57.1H320l-0.4-0.1l-25.8-9.8
		c-0.3-0.1-31.1-11-39.5-14.4c-8.5-3.4-13.5-6.4-13.7-6.6c-0.6-0.3-0.7-1-0.4-1.6c0.3-0.6,1-0.7,1.6-0.4c0,0,5.1,3.1,13.4,6.4
		c8.3,3.3,39,14.2,39.3,14.4l25.8,9.8h19.8l0.9,0.4l50.5,57.5l47.9,57.9c0.4,0.5,0.3,1.2-0.1,1.7
		C438.8,370.4,438.7,370.6,438.3,370.6z"/>
	<path fill="#E94860" d="M369.9,276.4c-0.6,0-1.1-0.4-1.2-1c-0.1-0.7,0.3-1.2,1-1.3l96.3-14.6h0.3l64.2,6.7c0.7,0,1.1,0.7,1,1.3
		c0,0.7-0.7,1.1-1.3,1l-64-6.6l-96.1,14.5C370.1,276.4,370.1,276.4,369.9,276.4z"/>
	<path fill="#E94860" d="M438,190.9l-68.7-20l-1,1.6l-1,0.6h-2.5l-0.9-0.4l-6.1-6.3l-0.3-1c0-0.1,0.2-1.9,1.7-3.8l-42.5-73l-0.1-0.6
		l0.1-38.8l-16.9-29.8l-0.1-0.5L299,3.5c0-0.7,0.5-1.2,1.1-1.2c0.6,0,1.2,0.5,1.2,1.1l0.6,15.4l16.9,29.8l0.1,0.6l-0.1,38.8
		l42.9,73.6l-0.2,1.4c-1,1-1.4,2-1.5,2.6l5.3,5.5h1.4l1.1-1.8l1.3-0.5l69.1,20.2l27.5-10.4l0.5-0.1l40.7,2.5l7.7-2.4l7.5-9
		c0.4-0.5,1.1-0.6,1.7-0.1c0.5,0.4,0.6,1.1,0.1,1.7l-7.7,9.3l-0.6,0.4l-8.2,2.5h-0.4l-40.7-2.5L438.6,191L438,190.9z"/>
	<path fill="#E94860" d="M265.3,207c-0.1,0-0.3,0-0.5-0.1c-0.6-0.2-0.9-1-0.6-1.6l7.5-17.4l-11.2-36.4v-0.7l3.7-11.5l0.7-0.8
		l202-78.9c0.6-0.2,1.3,0,1.5,0.7c0.2,0.6,0,1.3-0.7,1.5l-201.5,78.8l-3.4,10.7l11.2,36.6v0.8l-7.6,17.6
		C266.3,206.7,265.8,207,265.3,207z"/>
	<path fill="#E94860" d="M474,276.4c-0.4,0-0.9-0.2-1-0.6l-7.7-14.4l-98.6-88.7c-0.5-0.4-0.5-1.2-0.1-1.7c0.4-0.5,1.2-0.5,1.7-0.1
		l98.8,88.9l0.2,0.3l7.8,14.6c0.3,0.6,0.1,1.3-0.5,1.6C474.4,276.4,474.2,276.4,474,276.4z"/>
	<path fill="#E94860" d="M71.7,184.7c-0.4,0-0.8-0.2-1-0.5c-0.4-0.5-0.2-1.3,0.3-1.6c0.6-0.4,57.4-37.8,72.1-46.3l0.3-0.1
		c25.8-6.6,66.7-7.8,67.1-7.8h0.2l12.3,2.1l42.6,8.2l93.4,25.7c0.6,0.2,1,0.8,0.8,1.5c-0.2,0.6-0.8,1-1.5,0.8L265,140.8l-42.4-8.2
		l-12.1-2.1c-2.4,0.1-41.3,1.4-66.3,7.7c-14.7,8.8-71.3,45.8-71.9,46.2C72.2,184.6,72,184.7,71.7,184.7z"/>
	<path fill="#E94860" d="M132.2,207c-0.7,0-1.2-0.5-1.2-1.2v-16.1l0.3-0.8l7.4-8.7l5.8-15.2l-1.8-27.7l-14.6-27.5
		c-0.3-0.6-0.1-1.3,0.5-1.6c0.6-0.3,1.3-0.1,1.6,0.5l14.7,27.7l0.1,0.5l1.9,28.2l-0.1,0.5l-5.9,15.6l-0.2,0.3l-7.3,8.6v15.6
		C133.3,206.6,132.8,207,132.2,207z"/>
	<path fill="#E94860" d="M157.4,180.5c-0.6,0-1.1-0.4-1.2-1l-2.1-16.3l-11.5-25.5l0.4-1.5l33.3-21.2c0.6-0.3,1.3-0.2,1.6,0.4
		c0.3,0.6,0.2,1.3-0.4,1.6l-32.5,20.7l11.1,24.6l0.1,0.3l2.1,16.5C158.6,179.9,158.1,180.4,157.4,180.5
		C157.5,180.5,157.5,180.5,157.4,180.5z"/>
	<path fill="#E94860" d="M164.8,184c-0.6,0-1.1-0.5-1.2-1l-3.6-37.1c0-0.7,0.4-1.2,1-1.3c0.7,0,1.2,0.4,1.3,1l3.6,37.1
		C166,183.4,165.5,183.9,164.8,184C164.9,184,164.8,184,164.8,184z"/>
	<path fill="#E94860" d="M305.1,124.4h-46.4c-0.7,0-1.2-0.5-1.2-1.2c0-0.7,0.5-1.2,1.2-1.2h46.4c0.7,0,1.2,0.5,1.2,1.2
		C306.3,123.9,305.8,124.4,305.1,124.4z"/>
	<path fill="#E94860" d="M390.4,273.4c-0.5,0-1-0.3-1.1-0.9l-10-35.8v-0.1c0-0.4-6.9-43.2-8.1-48.1c-1.2-4.8-7.2-15.9-7.3-16.1
		c-0.3-0.6-0.1-1.3,0.5-1.6c0.6-0.3,1.3-0.1,1.6,0.5c0.2,0.5,6.2,11.7,7.5,16.6c1.2,4.9,7.8,45.7,8.2,48.2l10,35.6
		c0.2,0.6-0.2,1.3-0.8,1.5C390.6,273.3,390.6,273.4,390.4,273.4z"/>
	<path fill="#E94860" d="M235.8,161.1l-1.4-0.7l-12.7-28.4l1-1.7c0,0,7.1-0.4,15-1.7c9.7-1.5,16.4-3.6,19.5-6l-17-53.6v-0.6
		l13.4-63.3c0.1-0.6,0.8-1,1.4-0.9c0.6,0.1,1,0.8,0.9,1.4l-13.3,63l17.1,54.2l-0.3,1.2c-6.8,6-28.6,8.1-34.9,8.7l11.6,25.8l50.2-14
		c0.6-0.2,1.3,0.2,1.5,0.8c0.2,0.6-0.2,1.3-0.8,1.5L235.8,161.1z"/>
	<path fill="#E94860" d="M222.8,132.7c-0.3,0-0.7-0.1-0.9-0.4L172.5,72l-0.2-0.6l-1.9-13.5l-8-10c-0.4-0.5-0.3-1.2,0.2-1.7
		c0.5-0.5,1.2-0.3,1.7,0.2l8.2,10.3l0.2,0.6l1.9,13.5l49.1,60.1c0.4,0.5,0.3,1.2-0.2,1.7C223.4,132.6,223.1,132.7,222.8,132.7z"/>
	<path fill="#E94860" d="M310.1,210.4c-0.4,0-0.8-0.2-1-0.6c0,0-1.9-3.2-4.6-8.3c-7.5-0.8-30.9-11.8-32-12.3l-0.2-0.1l-22.2-16.2
		l-30.8-13.6l-0.3-0.2l-8.1-7.9l-20.5-9.2l-0.2-0.1l-37.6-24.8L101,101.2c-0.6-0.2-1-0.9-0.8-1.5c0.2-0.6,0.9-1,1.5-0.8l51.8,15.9
		l0.3,0.1l37.6,24.8l20.7,9.3l0.3,0.2l8.1,7.9l30.8,13.6l0.2,0.1l22.2,16.2c7.2,3.4,26.7,12.1,31.5,12.1l1,0.6
		c2.9,5.4,4.9,8.8,4.9,8.8c0.3,0.6,0.1,1.3-0.4,1.6C310.4,210.3,310.3,210.4,310.1,210.4z"/>
	<path fill="#E94860" d="M42.2,317.6c-8.2,0-19.5-4.6-22.4-6.8c-3.8-2.8-5-19.4-5.2-22.7l0.1-0.5l13.3-34.9L57,189.7L80.6,145
		l0.1-0.1l10.6-14.1l0.4-0.4c5.4-2.5,14.2-7.8,14.6-11.1l0.2-0.5c5.7-7.7,13.9-12.8,14.9-13.5L150,80.6l0.2-0.1
		c8.9-6.4,19.1-13.7,34.4-13l2,0.1c13.7,0.6,22.9,1,29.8,12.7c6.9,11.6,9.2,15.2,9.2,15.3l0.1,0.2l12.1,34c0.2,0.6-0.1,1.3-0.7,1.5
		c-0.6,0.2-1.3-0.1-1.5-0.7l-12-33.8c-0.4-0.7-2.9-4.7-9.2-15.2c-6.3-10.6-14-10.9-27.9-11.6l-2-0.1C170,69,160.2,76,151.7,82.2
		l-0.1,0.1L123,107.1l-0.2,0.1c-0.1,0-8.6,5.2-14.2,12.7c-1.2,5.4-13.3,11.4-15.7,12.5L82.6,146L59,190.7l-28.9,62.8l-13.4,34.5
		c0.5,7.8,2.2,19.1,4.3,20.7c3.1,2.3,17.6,8,24.6,5.9c0.6-0.2,1.3,0.1,1.5,0.8c0.2,0.6-0.1,1.3-0.8,1.5
		C45.2,317.4,43.7,317.6,42.2,317.6z"/>
	<path fill="#E94860" d="M153.1,117.1c-0.1,0-0.3,0-0.5-0.1c-0.6-0.3-0.9-1-0.6-1.6l20.5-44.8c0.3-0.6,1-0.9,1.6-0.6
		c0.6,0.3,0.9,1,0.6,1.6l-20.5,44.8C153.9,116.9,153.6,117.1,153.1,117.1z"/>
	<path fill="#E94860" d="M258.8,124.4c-0.2,0-0.3,0-0.5-0.1l-47.5-23l-43.8-15l-16.5-3.4c-0.8-0.1-14.4-2.1-28.9-5.5
		c-0.6-0.1-1-0.8-0.9-1.4s0.8-1,1.4-0.9c14.7,3.5,28.6,5.4,28.7,5.4h0.1l16.8,3.5l43.9,15h0.1l47.5,23.1c0.6,0.3,0.9,1,0.5,1.6
		C259.6,124,259.1,124.4,258.8,124.4z"/>
	<path fill="#E94860" d="M190.7,234.1c-0.7,0-1.2-0.5-1.2-1.2v-70.3l-23.9,21.1l-3.6,5.3c-0.4,0.5-1.1,0.7-1.7,0.3
		c-0.5-0.4-0.7-1.1-0.3-1.7l3.6-5.5l0.2-0.2l26-22.9l2,0.9v73C191.9,233.5,191.4,234.1,190.7,234.1z"/>
	<path fill="#E94860" d="M196.2,141.4c-0.4,0-0.7-0.2-1-0.5c-0.1-0.2-13.3-18.3-15.4-21.1c-1.8-2.2-8.4-6.8-10.7-8.3
		c-0.6-0.4-0.7-1.1-0.3-1.6c0.4-0.6,1.1-0.7,1.6-0.3c0.4,0.2,9,5.9,11.3,8.8c2.2,2.8,15,20.5,15.6,21.2c0.4,0.5,0.3,1.3-0.3,1.7
		C196.5,141.4,196.4,141.4,196.2,141.4z"/>
	<path fill="#E94860" d="M143.7,138.4c-0.6,0-1.1-0.4-1.2-1l-3.1-25.1v-0.5l9.8-29.9c-1.6-2.1-7.9-10.4-10.9-16.4
		c-0.3-0.6,0-1.3,0.5-1.6c0.5-0.3,1.3,0,1.6,0.5c3.3,6.6,11,16.4,11,16.5l0.2,1.1l-9.8,30.3l3,24.8
		C144.9,137.7,144.5,138.2,143.7,138.4C143.8,138.4,143.8,138.4,143.7,138.4z"/>
	<path fill="#E94860" d="M119.3,191.4c-0.6,0-1-0.4-1.2-1l-12-70.8v-0.5l6.7-23.6c0.2-0.6,0.9-1,1.5-0.8c0.6,0.2,1,0.8,0.8,1.5
		l-6.6,23.4l11.9,70.5C120.5,190.8,120,191.3,119.3,191.4C119.4,191.4,119.3,191.4,119.3,191.4z"/>
	<path fill="#E94860" d="M196.5,213.5c-0.7,0-1.2-0.5-1.2-1.1l-0.3-21.7c0-0.7,0.5-1.2,1.1-1.2c0.7,0,1.2,0.5,1.2,1.1l0.3,21.7
		C197.7,213,197.2,213.5,196.5,213.5L196.5,213.5z"/>
	<path fill="#E94860" d="M199.8,213.5C199.8,213.5,199.8,213.5,199.8,213.5c-0.8,0-1.2-0.6-1.2-1.3l1.5-22.1c0-0.7,0.6-1.1,1.3-1.1
		c0.7,0,1.1,0.6,1.1,1.3l-1.5,22.1C201,213,200.5,213.5,199.8,213.5z"/>
	<path fill="#E94860" d="M206.8,215.2c-0.7,0-1.2-0.5-1.2-1.2v-24.3c0-0.7,0.5-1.2,1.2-1.2c0.7,0,1.2,0.5,1.2,1.2V214
		C208,214.7,207.4,215.2,206.8,215.2z"/>
	<path fill="#E94860" d="M98.3,324.8c-0.7,0-1.2-0.5-1.2-1.2v-3.5l0.7-1.1l25.7-10.7l68.9-33.3l3.5-36.6l-19.5,29.6
		c-0.4,0.6-1.1,0.7-1.6,0.3s-0.7-1.1-0.3-1.6l22.2-33.7l2.2,0.8l-4,42l-0.7,1l-69.5,33.6l-25,10.4v2.7
		C99.5,324.2,99,324.8,98.3,324.8z"/>
	<path fill="#E94860" d="M206.8,284.9c-0.2,0-0.4,0-0.6-0.2l-13.3-8l0.1-2.1l18.1-8.3l12.6-6.6l20.9-15.1l0.3-0.2l10.9-3.3l20-4.7
		c0.6-0.1,1.3,0.2,1.4,0.9c0.1,0.6-0.2,1.3-0.9,1.4l-20,4.7l-10.7,3.2l-20.7,15.1l-0.1,0.1l-12.7,6.7L196,276l11.4,6.8
		c0.6,0.3,0.8,1,0.4,1.6C207.5,284.7,207.3,284.9,206.8,284.9z"/>
	<path fill="#E94860" d="M245.1,246.8h-49.4c-0.7,0-1.2-0.5-1.2-1.2s0.5-1.2,1.2-1.2h49.5c0.7,0,1.2,0.5,1.2,1.2
		S245.9,246.8,245.1,246.8z"/>
	<path fill="#E94860" d="M131.4,296.7c-0.4,0-0.8-0.2-1-0.5c-0.4-0.5-0.2-1.3,0.3-1.7c0,0,5.7-3.9,11.1-7.2
		c2.6-8.5,20.7-24.3,22.1-25.5l25.8-28.9c0.4-0.5,1.2-0.5,1.7-0.1c0.5,0.4,0.5,1.2,0.1,1.7l-26,29.1l-0.1,0.1c0,0-5,4.4-10.2,9.7
		c-8.5,8.7-10.8,13-11.4,15.3l-0.5,0.7c-5.5,3.3-11.3,7.4-11.4,7.4C131.9,296.6,131.7,296.7,131.4,296.7z"/>
	<path fill="#E94860" d="M143,289.2c-0.2,0-0.5,0-0.7-0.2l-13.9-9.8l-12.8-7l-0.2-0.2l-15.9-15.7c-0.5-0.5-0.5-1.2,0-1.7
		c0.5-0.5,1.2-0.5,1.7,0l15.9,15.6l12.8,7l13.9,9.8c0.5,0.4,0.7,1.1,0.3,1.7C143.7,289,143.2,289.2,143,289.2z"/>
	<path fill="#E94860" d="M86.1,332.1c-0.1,0-0.2,0-0.3,0c-0.6-0.2-1-0.9-0.8-1.5l4.6-14.7L84,272.1l1.1-1.3l29.2-2.5l31.5-1.6
		l18.5-5.3c0.6-0.2,1.3,0.2,1.5,0.8c0.2,0.6-0.2,1.3-0.8,1.5l-18.7,5.3h-0.2l-31.6,1.6l-27.9,2.3l5.5,42.7v0.5l-4.7,15.1
		C87.1,331.8,86.6,332.1,86.1,332.1z"/>
	<path fill="#E94860" d="M108.9,346.7c-0.3,0-0.7-0.1-0.9-0.4c-0.4-0.5-0.3-1.2,0.2-1.7l50.8-41l0.3-0.1l85-37.6
		c0.8-0.3,19.5-8.5,23.8-9.7c4.3-1.1,13.8-1.3,14.2-1.3l1,0.5l7.1,10.9l0.1,0.2l4.2,11.8l3.9,16.3l23.4,12.8l0.5,0.6l15.1,33.7
		c0.3,0.6,0,1.3-0.6,1.6c-0.6,0.3-1.3,0-1.6-0.6l-14.9-33.2l-23.7-12.7l-0.6-0.8l-4-16.7l-4.1-11.5l-6.7-10.2c-2.2,0-9.6,0.3-13,1.2
		c-4.1,1.1-23.3,9.5-23.4,9.5l-84.8,37.4l-50.7,40.9C109.5,346.6,109.2,346.7,108.9,346.7z"/>
	<path fill="#E94860" d="M509.6,331.1c-0.2,0-0.5-0.1-0.7-0.2l-9-6.8L465,304.6l-28.4-10.2l-0.3-0.1l-16.2-11.7l-34.9-25.5
		c-0.5-0.4-0.7-1.1-0.2-1.7c0.4-0.5,1.1-0.6,1.7-0.2l34.9,25.5l15.9,11.7l28.4,10.2l0.2,0.1l35,19.5l0.1,0.1l9.1,6.9
		c0.5,0.4,0.6,1.1,0.2,1.7C510.3,330.9,509.9,331.1,509.6,331.1z"/>
	<path fill="#E94860" d="M305.1,201.5c-0.1,0-0.2,0-0.3,0c-0.6-0.1-1-0.8-0.9-1.4l2.5-10.6l0.6-0.8l12-6.4l41.9-15.3l43.9-22.6h0.1
		c0.1,0,15.8-6.4,25.3-9c3.4-3,5.8-5,11.3-4.5c4.9-3.1,11.6-4,21.6-2.8c10.2,1.2,31.5-3.8,36.7-8.7c0.5-0.4,1.2-0.4,1.7,0.1
		c0.4,0.5,0.4,1.2-0.1,1.7c-5.9,5.4-27.5,10.6-38.6,9.3c-9.5-1.1-15.9-0.3-20.4,2.7l-0.8,0.2c-4.9-0.6-6.5,0.9-10,4l-0.5,0.3
		c-9.1,2.4-24.3,8.6-25.3,8.9L362,169.3h-0.1L320,184.6l-11.3,6l-2.4,10C306.2,201.3,305.7,201.5,305.1,201.5z"/>
	<path fill="#E94860" d="M315.2,187c-0.1,0-0.3,0-0.4,0l-60.5-21.7l-0.6-0.5l-4-6.6l-0.2-0.6v-1.2l-20-7.8c-0.6-0.2-0.9-0.9-0.7-1.5
		c0.2-0.6,0.9-0.9,1.5-0.7l20.7,8.1l0.8,1.1v1.7l3.7,5.9l60.1,21.5c0.6,0.2,1,0.9,0.7,1.5C316.2,186.6,315.7,187,315.2,187z"/>
	<path fill="#E94860" d="M324.6,217.1c-0.1,0-0.2,0-0.4,0c-0.6-0.2-1-0.9-0.8-1.5l12.7-39c0.2-0.6,0.9-1,1.5-0.8
		c0.6,0.2,1,0.9,0.8,1.5l-12.7,39C325.5,216.9,325.1,217.1,324.6,217.1z"/>
	<path fill="#E94860" d="M284.9,212.6c-0.1,0-0.3,0-0.4-0.1c-0.6-0.2-0.9-0.9-0.7-1.5l15.4-41.2l-4.4-15.7v-0.6
		c0.6-2.9,2-10.8,1.7-13.3c-0.2-2-7.4-10.9-12.4-16.6l-0.1-0.2l-7.1-12.4l-6.5-5.9l-0.2-0.3l-7.6-15.1c-0.3-0.6,0-1.3,0.5-1.6
		c0.6-0.3,1.3,0,1.6,0.5l7.4,15l6.4,5.9l0.2,0.3l7.1,12.5c2.3,2.6,12.5,14.4,12.9,17.6c0.4,3.1-1.3,11.8-1.7,13.8l4.4,15.8v0.7
		l-15.4,41.4C285.8,212.3,285.3,212.6,284.9,212.6z"/>
	<path fill="#E94860" d="M330.6,176l-68.5-21.2l-0.8-0.8l-0.7-2.1l-16.4-15.3l-0.4-0.9l1.5-46c0-0.6,0.5-1.1,1.2-1.1l0,0
		c0.7,0,1.2,0.6,1.1,1.2l-1.5,45.5l16.3,15.1l0.3,0.5l0.6,1.8l66.9,20.7l14.7-36.9c0.2-1.4,2.2-11.2,13.5-13.7
		c0.6-0.1,1.3,0.2,1.4,0.9c0.1,0.6-0.2,1.3-0.9,1.4c-10.4,2.3-11.7,11.5-11.7,11.8l-0.1,0.3l-15.3,37.9L330.6,176z"/>
	<path fill="#E94860" d="M98.7,340.1c-0.3,0-0.5-0.1-0.8-0.3c-0.5-0.4-0.6-1.1-0.1-1.7l8.8-10.8c8.3-10.2,15.4-7.9,17.1-7.1
		l16.7-1.6c0.7,0,1.2,0.4,1.3,1c0,0.7-0.4,1.2-1,1.3l-17,1.7l-0.7-0.1c-0.2-0.1-6.5-3.4-14.5,6.4l-8.8,10.8
		C99.3,339.9,99,340.1,98.7,340.1z"/>
	<path fill="#E94860" d="M333.7,232.9c-0.2,0-0.4,0-0.6-0.2c-0.6-0.3-0.8-1-0.4-1.6l5.8-9.6l3.6-7.9l0.3-0.4l21.7-19.5l0.2-0.1
		l7.9-4.2l9.9-4.4l2.9-3.1l0.6-0.3l14.2-3.8l25.1-7.9l29.9-12.5l6-3.8l0.6-0.2h9l13.7-6.7l0.5-0.1h7.8l13.8-7.2l9.3-3.5
		c0.6-0.2,1.3,0.1,1.5,0.7c0.2,0.6-0.1,1.3-0.7,1.5l-9.3,3.5l-13.8,7.2l-0.5,0.1H485l-13.7,6.7l-0.5,0.1h-8.9l-5.9,3.7L425.8,172
		l-25.2,8l-13.8,3.7l-2.8,3.1l-0.4,0.3l-10.1,4.5l-7.7,4.1l-21.8,19l-3.6,7.9l-5.9,9.7C334.4,232.7,334,232.9,333.7,232.9z"/>
	<path fill="#E94860" d="M256,388.8c-0.1,0-0.1,0-0.2,0c-0.6-0.1-1-0.8-0.9-1.4l5.8-27.2l0.1-0.3l5.9-10.9l7-15l10.7-28l4-11
		l2.3-11.9l13.6-35.4l4.7-10.7l5.4-15.3c0.2-0.6,0.9-1,1.5-0.7c0.6,0.2,1,0.9,0.7,1.5l-5.4,15.4l-4.7,10.8L292.9,284l-2.3,11.9
		l-4,11.1l-10.8,28.1l-7.2,15.1l-5.9,10.7l-5.7,27C256.9,388.4,256.4,388.8,256,388.8z"/>
	<path fill="#E94860" d="M229.9,173.1c-0.2,0-0.3,0-0.5-0.1c-0.6-0.3-0.9-1-0.6-1.6l5.7-12c0.3-0.6,1-0.9,1.6-0.6
		c0.6,0.3,0.9,1,0.6,1.6l-5.7,12C230.7,172.8,230.3,173.1,229.9,173.1z"/>
	<path fill="#E94860" d="M300.1,417C300,417,300,417,300.1,417c-0.8,0-1.2-0.6-1.2-1.3l1.3-14.9c0-0.7,0.6-1.1,1.3-1.1
		c0.7,0,1.1,0.6,1.1,1.3l-1.3,14.9C301.2,416.5,300.7,417,300.1,417z"/>
	<path fill="#E94860" d="M161.1,372.3L161.1,372.3c-0.7,0-1.2-0.5-1.2-1.2c0-0.2,0.1-6.4,3.7-14.5c-1.2-12.8,10.5-29.6,11.4-30.8
		l12.7-21.9l0.1-0.2l12.7-15.2c0.4-0.5,1.2-0.6,1.7-0.1c0.5,0.4,0.6,1.2,0.1,1.7l-12.7,15L177,327.1c-0.1,0.2-12.4,17.5-10.9,29.6
		l-0.1,0.6c-3.5,7.8-3.6,13.8-3.6,13.8C162.3,371.8,161.7,372.3,161.1,372.3z"/>
	<path fill="#E94860" d="M241.4,69.8c-0.3,0-0.5-0.1-0.8-0.3l-50.6-42.9c-0.5-0.4-0.6-1.2-0.1-1.7c0.5-0.5,1.2-0.6,1.7-0.1
		l50.6,42.9c0.5,0.4,0.6,1.2,0.1,1.7C242.1,69.8,241.8,69.8,241.4,69.8z"/>
	<path fill="#E94860" d="M436.3,48.4l-1.8-0.5L419.6,8.1c-0.2-0.6,0.1-1.3,0.7-1.5s1.3,0.1,1.5,0.7l14.4,38.3l24-17.9
		c0.5-0.4,1.3-0.3,1.7,0.2s0.3,1.3-0.2,1.7L436.3,48.4z"/>
	<path fill="#E94860" d="M349.9,164.3c-0.2,0-0.4,0-0.6-0.1c-0.6-0.3-0.8-1-0.4-1.6l5.7-10.1l7.8-13.3l0.2-0.2l14.2-13.8l5.6-9.3
		L348.8,87l-0.4-1c3.8-33.2,0-47.5,0-47.6v-0.3l-1.4-33c0-0.7,0.5-1.2,1.1-1.2c0.7,0,1.2,0.5,1.2,1.1l1.4,32.8
		c0.4,1.6,3.6,15.8,0,47.7l33.8,29.2l0.2,1.5l-6.2,10.2l-0.2,0.2l-14.1,13.8l-7.8,13.2l-5.7,10.1
		C350.7,164.1,350.3,164.3,349.9,164.3z"/>
	<path fill="#E94860" d="M465.9,261.8l-36.4-10.5h-17.6l-0.4-0.1c-0.2-0.1-19.7-8-31.3-13.7c-13.2,0.5-23.6-7.6-25.2-8.8l-24.6-8.8
		l-104.1-48.5l-2.4,4.5c-0.3,0.6-1,0.8-1.6,0.5c-0.6-0.3-0.8-1-0.5-1.6l2.9-5.5l1.5-0.5l105.1,48.9l24.6,8.8l0.4,0.2
		c0.1,0.1,10.8,9,24.1,8.4l0.6,0.1c10.9,5.4,29.1,12.8,31.3,13.7H430h0.3l34.2,9.8l-20.4-46.9c-0.2-0.6,0-1.3,0.6-1.6
		c0.6-0.2,1.3,0,1.6,0.6l21.4,49.2L465.9,261.8z"/>
	<path fill="#E94860" d="M454.6,251.4h-25c-0.7,0-1.2-0.5-1.2-1.2c0-0.7,0.5-1.2,1.2-1.2h24.8l43.3-10.6l28.2-7.9
		c0.6-0.2,1.3,0.2,1.5,0.8c0.2,0.6-0.2,1.3-0.8,1.5l-28.4,7.9l-43.4,10.6L454.6,251.4z"/>
	<path fill="#E94860" d="M527.3,282.7h-0.1l-30.1-3.1l-33.3-4.4l-1-1.4l2.4-13.3l2.2-13.9c0.1-0.7,0.7-1.1,1.4-1s1.1,0.7,1,1.4
		l-2.2,13.9l-2.2,12.1l32.1,4.3l30.1,3.1c0.7,0,1.1,0.7,1,1.3C528.5,282.3,527.9,282.7,527.3,282.7z"/>
	<path fill="#E94860" d="M353.5,250.9c-0.4,0-0.9-0.2-1.1-0.7c-0.3-0.6,0-1.3,0.6-1.6l26.5-12.3c0.6-0.3,1.3,0,1.6,0.6
		c0.3,0.6,0,1.3-0.6,1.6L354,250.9C353.9,250.9,353.7,250.9,353.5,250.9z"/>
	<path fill="#E94860" d="M413.9,237.6h-6.6c-0.7,0-1.2-0.5-1.2-1.2c0-0.7,0.5-1.2,1.2-1.2h6.4l26.3-8.8l10.4-2.2l9.9-5l0.4-0.1
		l13-1.7h0.4l37.6,6.8c0.7,0.1,1.1,0.7,1,1.4c-0.1,0.7-0.7,1-1.4,1l-37.3-6.8l-12.7,1.7l-9.8,5l-0.3,0.1l-10.5,2.2l-26.3,8.8
		L413.9,237.6z"/>
	<path fill="#E94860" d="M474,219.7c-0.3,0-0.7-0.1-0.9-0.4c-0.4-0.5-0.4-1.2,0.1-1.7l18.5-15.7l14.4-20.9c0.4-0.5,1.1-0.7,1.7-0.3
		c0.5,0.4,0.7,1.1,0.3,1.7l-14.5,21l-0.2,0.2l-18.7,15.8C474.6,219.6,474.3,219.7,474,219.7z"/>
	<path fill="#E94860" d="M472.3,342.3c-0.2,0-0.5-0.1-0.7-0.2c-0.5-0.4-0.6-1.1-0.2-1.7l18.1-23.4c0.6-3.6,6.7-39.5,8.5-53
		c0.4-21.7-1.4-35.9-6.2-47.3c-7.7-6.7-11-13.6-12.6-18.2c-1.4-4.3-1.4-7.5-1.4-8.5l-17.4-35l-15.2-16.7l-14.5-0.5
		c-0.7,0-1.1-0.6-1.1-1.2c0-0.7,0.6-1.2,1.2-1.1l14.9,0.6l0.8,0.4l15.6,17.1l0.2,0.3l17.6,35.4l0.1,0.6c0,0-0.2,3.3,1.3,8
		c1.4,4.4,4.7,10.9,12,17.1l0.3,0.4c5,11.9,7,26.3,6.5,48.6v0.1c-1.9,14.2-8.5,53.1-8.5,53.5l-0.2,0.5L473.2,342
		C473,342.2,472.7,342.3,472.3,342.3z"/>
	<path fill="#E94860" d="M453.9,130.2c-0.1,0-0.2,0-0.3,0c-0.6-0.1-1-0.8-0.9-1.4l1.5-6.5l-31.5-44.1c-0.4-0.5-0.2-1.3,0.3-1.7
		c0.5-0.4,1.3-0.2,1.7,0.3l31.8,44.6l0.2,1l-1.7,7C454.9,129.8,454.4,130.2,453.9,130.2z"/>
	<path fill="#E94860" d="M466.2,262c-0.3,0-0.6-0.1-0.8-0.3c-0.5-0.4-0.5-1.2,0-1.7l8.8-9.3c0.4-0.5,1.2-0.5,1.7,0s0.5,1.2,0,1.7
		l-8.8,9.3C466.9,261.7,466.6,262,466.2,262z"/>
	<path fill="#E94860" d="M377.6,219.7c-0.4,0-0.9-0.2-1.1-0.7c-0.3-0.6,0-1.3,0.6-1.6l60.9-28.7c0.6-0.3,1.3,0,1.6,0.6
		c0.3,0.6,0,1.3-0.6,1.6l-60.9,28.7C377.8,219.7,377.6,219.7,377.6,219.7z"/>
	<path fill="#E94860" d="M374.2,275.8c-0.3,0-0.6-0.1-0.9-0.4c-0.5-0.5-0.4-1.2,0-1.7l28.9-27.7l11.2-27.9l-24.8,14.5l-3.8,5.7
		c-0.4,0.5-1.1,0.7-1.7,0.3c-0.5-0.4-0.7-1.1-0.3-1.7l3.9-5.9l0.4-0.4l28-16.4l1.7,1.5l-12.5,31.3l-0.3,0.4l-29.1,27.9
		C374.7,275.7,374.5,275.8,374.2,275.8z"/>
	<path fill="#E94860" d="M415.8,216.5c-0.5,0-0.9-0.3-1.1-0.7c-0.2-0.6,0-1.3,0.6-1.6l27-11.2c0.6-0.2,1.3,0,1.6,0.6
		c0.2,0.6,0,1.3-0.6,1.6l-27,11.2C416.1,216.5,415.9,216.5,415.8,216.5z"/>
	<path fill="#E94860" d="M164.8,373.7c-0.3,0-0.6-0.1-0.9-0.3c-0.5-0.5-0.5-1.2,0-1.7l11.8-11.7l56-43.6c0.5-0.4,1.2-0.3,1.7,0.2
		c0.4,0.5,0.3,1.3-0.2,1.7l-56,43.4l-11.7,11.5C165.4,373.5,165.1,373.7,164.8,373.7z"/>
	<path fill="#E94860" d="M226.5,297.9c-0.3,0-0.6-0.1-0.8-0.3c-0.5-0.4-0.5-1.2-0.1-1.7l11.5-13c0.4-0.5,1.2-0.5,1.7-0.1
		s0.5,1.2,0.1,1.7l-11.4,13C227.2,297.8,226.8,297.9,226.5,297.9z"/>
	<path fill="#E94860" d="M277.3,299.8c-0.4,0-0.8-0.2-1-0.5L246,253.6l-31.1,27.7c-0.5,0.4-1.2,0.4-1.7-0.1
		c-0.5-0.5-0.4-1.2,0.1-1.7l32.1-28.7l1.8,0.2l31.1,46.9c0.4,0.5,0.2,1.3-0.3,1.6C277.7,299.8,277.5,299.8,277.3,299.8z"/>
	<path fill="#E94860" d="M407.6,69.1c0,0-1.3-2.3-10.7-2.8l-0.5-0.1c-8-3.9-10.1-4.1-10.2-4.1l0,0h-0.1l-35.2-4.7h-13.4h-0.4
		l-19.5-7.1l-53.9-12.5l-16.6,6.4L221.6,54c-0.6,0.2-1.3-0.1-1.5-0.7c-0.2-0.6,0.1-1.3,0.7-1.5l25.5-9.8l16.9-6.5h0.7L318.3,48h0.1
		l19.5,7.1h13.5l35.2,4.7c0.6,0,3.1,0.5,10.8,4.3c10.7,0.6,12.4,3.5,12.6,4.4L407.6,69.1C407.6,69,407.6,69,407.6,69.1z"/>
</g>
<g id="petites_rues_2_">
	
		<path fill="#464242" stroke="#E94860" stroke-width="3.556" stroke-linecap="square" stroke-linejoin="bevel" stroke-miterlimit="10" d="
		M121.8,47.4"/>
	<path fill="#E94860" d="M383.6,285.6c-0.1,0-0.3,0-0.4-0.2c-0.2-0.2-0.2-0.5,0-0.7l15.7-14.2c0.2-0.2,0.5-0.2,0.7,0s0.2,0.5,0,0.7
		l-15.7,14.2C383.7,285.5,383.6,285.6,383.6,285.6z"/>
	<path fill="#E94860" d="M376.8,215.1L376.8,215.1c-0.3,0-6.8,0-11.8-2.5c-3.8-1.8-7.1-4.5-9.6-6.4c-0.9-0.7-1.6-1.2-2.1-1.7
		l-0.8-0.6c-3.2-2.2-10.6-7.5-12.3-9.4c-1.2-1.4-12-4.7-18.8-6.7c-0.3-0.1-0.4-0.3-0.3-0.6c0.1-0.3,0.3-0.4,0.6-0.3
		c1.8,0.5,17.6,4.9,19.4,6.9c1.6,1.8,9.2,7.2,12.1,9.2l0.8,0.6c0.6,0.4,1.3,1,2.2,1.7c2.4,1.9,5.7,4.5,9.4,6.3
		c4.9,2.3,11.4,2.4,11.4,2.4c0.3,0,0.5,0.2,0.5,0.5C377.3,214.9,377.1,215.1,376.8,215.1z"/>
	<polygon fill="#E94860" points="482.4,351.8 456.7,326.3 444.8,305.8 436.4,293.6 425.5,277.3 419.4,268 411.5,250.4 412.4,250.1 
		420.3,267.5 426.4,276.8 437.3,293 445.7,305.1 457.5,325.6 483.1,351 	"/>
	
		<rect x="344.4" y="383.4" transform="matrix(0.8051 0.5931 -0.5931 0.8051 300.1273 -145.5746)" fill="#E94860" width="54.4" height="1"/>
	<polygon fill="#E94860" points="411.5,392 404.7,378.3 387.2,362.2 363.1,333.5 341.1,308.9 341.1,308.7 333.9,281.6 332.8,269 
		333.8,268.9 335,281.5 342,308.5 363.9,332.8 387.8,361.6 405.5,377.8 405.5,377.8 412.4,391.5 	"/>
	
		<rect x="343.3" y="263.1" transform="matrix(0.5934 0.8049 -0.8049 0.5934 360.8737 -165.0559)" fill="#E94860" width="1" height="23.1"/>
	
		<rect x="350.2" y="276.5" transform="matrix(0.3709 0.9287 -0.9287 0.3709 490.101 -143.1646)" fill="#E94860" width="1" height="27.2"/>
	<polygon fill="#E94860" points="340.2,277.4 328.2,264.6 302.7,254.7 303.1,253.8 328.7,263.7 328.8,263.9 340.9,276.7 	"/>
	<polygon fill="#E94860" points="283.8,282.1 265.1,281.1 262.2,276.6 262.7,259.3 263.7,259.3 263.2,276.3 265.6,280.1 
		283.9,281.1 	"/>
	<polygon fill="#E94860" points="247.3,321.5 246.3,321 255.2,304.6 238.2,295.9 230.3,308.5 229.5,308 237.9,294.6 256.7,304.1 	
		"/>
	<path fill="#E94860" d="M455.7,217.7c-4.4-2.7-6.1-10.7-6.5-12.9l-6,1.6l-0.2-1l7.1-1.9l0.1,0.6c0,0.1,1.5,10,6.1,12.8L455.7,217.7
		z"/>
	<polygon fill="#E94860" points="433,350.3 432.3,349.6 447.3,333.8 434.2,322.7 412.2,300.2 403.6,290.5 390.1,279.8 384.4,273.4 
		385.1,272.7 390.7,279.2 404.3,289.8 412.9,299.6 434.9,322 448.7,333.7 	"/>
	<path fill="#E94860" d="M387.8,362.2l-0.7-0.8l47-39.5c0.5-0.5,6.6-6.6,16.5-7.7h0.1h0.1l32,12.9l-0.4,1l-32-12.9
		c-9.6,1.1-15.6,7.4-15.7,7.4l0,0L387.8,362.2z"/>
	<polygon fill="#E94860" points="346,388.2 307.9,387.2 334.4,345.3 335.3,345.8 309.7,386.2 346.1,387.1 	"/>
	<path fill="#E94860" d="M294.5,392.4l-3.8-9.5l1.9-17.1l17.1,21.2L294.5,392.4z M291.8,382.9l3.4,8.3l12.8-4.7l-14.6-18.2
		L291.8,382.9z"/>
	
		<rect x="292.9" y="395.7" transform="matrix(0.6738 0.7389 -0.7389 0.6738 390.2167 -91.5902)" fill="#E94860" width="12" height="1"/>
	<polygon fill="#E94860" points="187.6,380.5 186.9,379.6 220.4,347.4 228.1,328.4 233.5,322.2 234.2,322.9 229,328.9 221.2,348 	
		"/>
	<polygon fill="#E94860" points="134.6,362.4 134,345.1 152.4,316.5 153.2,317.1 135,345.4 135.5,362.2 	"/>
	<polygon fill="#E94860" points="292.3,400 286.4,376.7 274.7,378.5 257.6,380.5 257.4,379.5 274.5,377.6 287.1,375.7 293.3,399.8 	
		"/>
	<path fill="#E94860" d="M286.8,376.6c-0.1,0-0.2,0-0.3-0.1c-0.2-0.1-0.3-0.5-0.1-0.7l6.1-9l7.1-21.5l6.3-46.4
		c0-0.3,0.3-0.5,0.6-0.4c0.3,0,0.5,0.3,0.4,0.6l-6.3,46.4v0.1l-7.2,21.6v0.1l-6.1,9.1C287.1,376.6,287,376.6,286.8,376.6z"/>
	<path fill="#E94860" d="M266.6,329.1c-0.2,0-0.5-0.2-0.5-0.5c0-0.3,0.2-0.5,0.5-0.6l36.1-3.4l21.2-9.1c0.2-0.1,0.6,0,0.7,0.3
		c0.1,0.2,0,0.6-0.3,0.7l-21.3,9.1h-0.1L266.6,329.1L266.6,329.1z"/>
	<path fill="#E94860" d="M453.8,362.6c-0.1,0-0.3,0-0.4-0.2L440,346.2L395,291.7l-26.7-27.5l-0.1-0.1l-5.3-9.5l-5-6.7
		c-0.2-0.2-0.1-0.5,0.1-0.7c0.2-0.2,0.5-0.1,0.7,0.1l5.1,6.8l5.2,9.5l26.7,27.5l44.9,54.6l13.5,16.2c0.2,0.2,0.1,0.5,0,0.7
		C454.1,362.4,453.9,362.6,453.8,362.6z"/>
	<path fill="#E94860" d="M427.4,376.6c-0.1,0-0.2,0-0.3-0.1l-11-8.3L416,368l-28-48.2c-0.4-0.5-3.7-4.4-3.7-7.4
		c0-2.3-5-10.9-6.9-14.1l-0.1-0.3v-2.9c0-0.3,0.2-0.5,0.5-0.5c0.3,0,0.5,0.2,0.5,0.5v2.8c1,1.7,7,11.6,7,14.5c0,2.7,3.4,6.8,3.4,6.8
		v0.1l28,48.1l10.9,8.2c0.2,0.2,0.3,0.5,0.1,0.7C427.7,376.6,427.6,376.6,427.4,376.6z"/>
	<path fill="#E94860" d="M327.5,388.2c-0.1,0-0.2,0-0.2-0.1c-0.2-0.1-0.3-0.5-0.2-0.7c1.7-2.8,0.5-28.7,0-39.8v-0.7
		c-0.5-11.5,3.4-13.7,5.8-13.9c0.8-0.1,1.5,0,2.6,0.2c1.1,0.2,2.6,0.5,4.9,0.6c4.5,0.3,9.7,5.5,9.9,5.7c0.1,0.1,7.9,9.4,17.4,13.7
		c9.8,4.5,11.7,9.7,11.7,9.9l8.8,24.3c0.1,0.3,0,0.6-0.3,0.7c-0.3,0.1-0.6,0-0.7-0.3l-8.8-24.3c0,0-1.8-5-11.2-9.3
		c-9.7-4.4-17.6-13.8-17.6-13.9c0,0-5.1-5.1-9.3-5.4c-2.3-0.1-3.9-0.4-5-0.7c-1-0.2-1.7-0.3-2.3-0.2c-2,0.2-5.4,2.2-4.9,12.8v0.7
		c0.9,19.5,1.5,37.8-0.1,40.4C327.7,388.2,327.5,388.2,327.5,388.2z"/>
	<path fill="#E94860" d="M493.9,342.5c-0.1,0-0.3,0-0.4-0.2l-7.4-9.1l-23.4-32.3L437,268.1V268l-7.8-17.6l-6.4-17l-7.9-15.3
		c-0.1-0.2,0-0.6,0.2-0.7c0.2-0.1,0.6,0,0.7,0.2l7.9,15.4l6.4,17l7.8,17.6l25.7,32.7l23.4,32.3l7.3,9c0.2,0.2,0.1,0.5-0.1,0.7
		C494.1,342.5,493.9,342.5,493.9,342.5z"/>
	<path fill="#E94860" d="M423.6,278c-6.6,0-13.6-9-14.1-9.7l-13.8-14.6l-11.5-14.9l0.8-0.6l11.5,14.9l13.9,14.6
		c0.1,0.1,8.8,11.4,15.3,8.9l0.4,1C425.3,277.8,424.5,278,423.6,278z"/>
	<path fill="#E94860" d="M352.6,241c-0.1,0-0.2,0-0.3-0.1c-0.2-0.1-0.3-0.5-0.1-0.7l12.5-19.3l1.5-39l-5.3-11.1
		c-0.1-0.2,0-0.6,0.2-0.7c0.2-0.1,0.6,0,0.7,0.2l5.4,11.2v0.2l-1.5,39.2l-0.1,0.2l-12.5,19.5C353,240.8,352.8,241,352.6,241z"/>
	<path fill="#E94860" d="M374.2,199.1c0,0-0.1,0-0.2,0l-9.5-4.3l-11-8.8l-5-5.9l-19.5-5.4c-0.3-0.1-0.4-0.3-0.3-0.6
		c0.1-0.3,0.3-0.4,0.6-0.3l19.5,5.5l0.2,0.1l5.1,6l10.8,8.7l9.3,4.2c0.2,0.1,0.4,0.4,0.2,0.7C374.7,199.1,374.5,199.1,374.2,199.1z"
		/>
	<polygon fill="#E94860" points="487.8,317.6 443.3,240.7 437.1,227.7 426.4,211.7 405.9,176.9 384.3,136.8 385.1,136.3 
		406.8,176.4 427.2,211.1 438,227.2 444.1,240.3 488.6,317.1 	"/>
	<polygon fill="#E94860" points="470.2,186.8 469.4,186.3 473.5,179.5 492.2,147.4 500.2,120.1 507,117.9 507.2,118.8 500.9,120.9 
		493.2,147.8 493,147.8 474.4,180 	"/>
	<path fill="#E94860" d="M429.1,137.2c-2.4,0-5.5-4.4-9.1-9.7c-0.3-0.4-0.6-0.9-0.8-1.2c-3.8-0.4-6.4-1.9-7.9-4.4
		c-2.3-3.9-1.2-9.6,0.5-13.5c2.6-5.8,10.7-14.2,14.2-15.6c3.1-1.1,10.6-1.8,13.7-2c0.4,0,0.7,0,1-0.1c1.3-0.1,3.8-1.5,5.9-2.8
		c1.5-0.9,2.9-1.7,3.9-2c2.1-0.8,7.8-6.3,9.8-11.7c2.1-5.6,6.7-9.2,6.8-9.3l0.6,0.8c0,0-4.5,3.6-6.5,8.9c-2,5.5-7.8,11.4-10.4,12.4
		c-0.9,0.3-2.3,1.1-3.8,2c-2.4,1.4-4.8,2.8-6.3,2.9c-0.2,0-0.6,0-1,0.1c-3.1,0.3-10.5,0.9-13.5,2c-3.3,1.2-11.2,9.5-13.7,15
		c-1.6,3.5-2.7,8.9-0.6,12.6c1.3,2.3,3.8,3.6,7.3,3.9h0.2l0.1,0.2c0.3,0.4,0.6,0.9,1,1.4c2.3,3.5,6.2,9.2,8.3,9.3L429.1,137.2z"/>
	<path fill="#E94860" d="M419,125.9c-0.1-0.2-2-6.4,1-11.4c1.8-2.9,4.8-4.8,9-5.6c11.3-2.1,15.9-0.8,17.4-0.2l1.5-3.2l23.4-1.3
		l3,1.2l4.8-2.7l0.5,0.9l-5.2,2.9l-3.3-1.3l-22.7,1.2l-1.8,3.7l-0.5-0.4c0,0-3.6-2.4-17.1,0.1c-3.9,0.7-6.8,2.4-8.4,5.1
		c-2.8,4.6-0.9,10.6-0.9,10.6L419,125.9z"/>
	<path fill="none" stroke="#E94860" stroke-width="2.1336" stroke-miterlimit="10" d="M413,123.2"/>
	<path fill="#E94860" d="M355.6,52.6l-1-0.1c0.5-3.2,2.9-6.5,7.2-10l0.6,0.8C358.3,46.6,356.1,49.7,355.6,52.6z"/>
	<path fill="#E94860" d="M362.7,97l-1-0.2l3-11.5l7.9-10.1l3.9-15.7l6.8-23.3l4.1-5.2c-3.9,1.2-14.2,4.5-16.6,5.9
		c-3,1.7-8.3,6.4-8.4,6.4l-0.3,0.3l-13.3-11.6l0.7-0.8l12.6,11c1.2-1.1,5.5-4.8,8.2-6.2c3.1-1.7,17.8-6.2,18.3-6.4l1.6-0.5l-6,7.7
		l-6.7,22.9l-4,15.9v0.1l-7.9,10L362.7,97z"/>
	<polygon fill="#E94860" points="412.9,30.6 404,26.2 389,30.5 388.7,29.6 404.1,25.2 413.1,29.5 427.6,28 427.7,29 	"/>
	<path fill="#E94860" d="M415.4,211.7c-0.2,0-0.4-0.1-0.5-0.3l-4-8.6l-6.6-8.6L386,155.6l-5.1-11.1v-0.4l3.3-7.5l-0.9-21l0.1-0.3
		c0.6-1,14.6-23.4,21.9-26c4.2-1.5,5.6-4,5.6-4l0.3-0.3l9.6-2c4.4-1.7,5.6-2,6.1-1.9c0.7-0.1,4.2-0.9,7.7-1.7
		c4.8-1.1,10.2-2.3,12-2.5c0.3,0,0.7-0.1,1.1-0.1c3.9-0.5,11.9-1.6,22.3,0.1c0.3,0,0.5,0.3,0.4,0.6c0,0.3-0.3,0.5-0.6,0.4
		c-10.2-1.8-18.2-0.7-21.9-0.1c-0.4,0-0.8,0.1-1.1,0.1c-1.8,0.2-7.1,1.4-11.9,2.5c-6,1.4-7.6,1.7-8.1,1.7c-0.5,0-3.2,1-5.5,1.9h-0.1
		l-9.4,2c-0.4,0.7-2.1,2.9-6,4.3c-6.8,2.4-20.2,23.6-21.4,25.3l0.9,21v0.2l-3.3,7.4l5,10.9l18.3,38.6l6.6,8.6l4,8.7
		c0.1,0.2,0,0.6-0.2,0.7C415.5,211.7,415.5,211.7,415.4,211.7z"/>
	<path fill="#E94860" d="M253.7,85.2c-0.1,0-0.3,0-0.4-0.1c-0.2-0.2-0.2-0.5,0-0.7l9.8-9.1l-8.8-35.2c0-0.3,0.1-0.6,0.4-0.6
		s0.6,0.1,0.6,0.4l8.8,35.6l-0.1,0.5l-10,9.3C254,85.2,253.8,85.2,253.7,85.2z"/>
	<path fill="#E94860" d="M293.6,95.3c-0.2,0-0.5-0.2-0.5-0.4l-0.9-5.6h-5.6l-0.3-0.1l-7.7-6.2l-15.3-7.2c-0.2-0.1-0.4-0.4-0.2-0.7
		c0.1-0.2,0.4-0.4,0.7-0.2l15.4,7.2h0.1l7.6,6.2h5.8l0.5,0.4l1,6C294.1,95.1,293.9,95.3,293.6,95.3
		C293.7,95.3,293.7,95.3,293.6,95.3z"/>
	<path fill="#E94860" d="M224.1,160.6c-0.1,0-0.2,0-0.2,0c-0.2-0.1-0.3-0.4-0.2-0.7c4.8-8.5,7.9-31.3,8.2-34
		c-2-2.1-19.7-20.5-22.4-25.3c-1-1.7-0.8-3.5,0.5-5.1c2-2.5,6.1-4,7.3-3.8c1,0.1,10.5-3.6,18.8-7L250,71.1l-2.9-5.6V65l3.1-6.3
		l0.2-0.2c0.1,0,7.8-4.2,16.3-9.8h0.5c4.9,2.3,30.1,2.4,30.3,2.4h0.2l7.4,3.3l9.6-6.6l0.8,0.5l-5.8,41.6l-1.3,7v9.1v0.2l-4.9,8.4
		v8.5c0,0.3-0.2,0.5-0.5,0.5c-0.3,0-0.5-0.2-0.5-0.5v-8.7v-0.2l4.9-8.4v-9.1l1.3-7.1l5.6-40.3l-8.8,6.1H305l-7.5-3.3
		c-2,0-24.8-0.1-30.3-2.3c-7.8,5-14.9,8.9-15.9,9.6l-2.9,5.9l3,5.7l-0.1,0.6L237,85.4l-0.1,0.1c-4.2,1.8-18.2,7.5-19.5,7.1
		c-0.6-0.1-4.5,1-6.3,3.4c-1,1.3-1.1,2.6-0.4,4c2.7,4.9,22.2,25.2,22.4,25.3l0.1,0.4c-0.1,1-3.2,25.5-8.4,34.5
		C224.4,160.5,224.2,160.6,224.1,160.6z"/>
	<path fill="#E94860" d="M292.3,123.5c-0.1,0-0.3,0-0.4-0.2c-0.2-0.2-0.1-0.5,0-0.7l10.7-8.8l23.8-11.3c0,0,3.7-1.8,6-4.4
		c1-1.1,1.2-2.3,1.4-3.8c0.3-2.1,0.8-4.7,3.4-8.2c4.2-5.8,3-8.7,3-8.8v-0.1L337,56.1c0-0.3,0.1-0.5,0.4-0.6c0.3,0,0.5,0.1,0.6,0.4
		l3.1,21.2c0.2,0.6,1.1,3.9-3.2,9.7c-2.5,3.4-2.9,5.9-3.2,7.8c-0.3,1.6-0.5,2.9-1.7,4.3c-2.5,2.9-6.2,4.6-6.4,4.7L303,114.8
		l-10.5,8.6C292.6,123.5,292.5,123.5,292.3,123.5z"/>
	<path fill="#E94860" d="M325.3,52.2L325.3,52.2c-0.3,0-0.5-0.3-0.5-0.6c0.2-1.2,0.4-2.7,0.6-4.3c0.9-6.2,2.2-14.6,2.2-21.5
		c0-7.9-0.7-14.9-2.2-22.7c0-0.3,0.1-0.5,0.4-0.6c0.3,0,0.5,0.1,0.6,0.4c1.6,7.8,2.3,14.9,2.3,22.9c0,7-1.3,15.4-2.2,21.7
		c-0.2,1.6-0.5,3-0.6,4.3C325.8,52,325.5,52.2,325.3,52.2z"/>
	<path fill="#E94860" d="M297.6,44.8c-0.1,0-0.3,0-0.4-0.2l-19-24.6v-0.1l-6.2-15.1c-0.1-0.2,0-0.6,0.3-0.7c0.2-0.1,0.6,0,0.7,0.3
		l6.2,15.2l18.8,24.5c0.2,0.2,0.1,0.5-0.1,0.7C297.8,44.7,297.7,44.8,297.6,44.8z"/>
	<path fill="#E94860" d="M248.3,30.7c-0.9,0-2.1-0.1-3.5-0.6c-2.4-0.9-5.9-3-8.7-8.6c-0.1-0.2,0-0.6,0.2-0.7c0.2-0.1,0.6,0,0.7,0.2
		c5,10,12.2,8.6,12.3,8.6h0.1c0.3,0,6.5-0.4,8.2,0c1.3,0.2,15.6-3.6,24.3-6c0.3-0.1,0.6,0.1,0.6,0.3c0.1,0.3-0.1,0.6-0.3,0.6
		c-3.9,1-23.1,6.4-24.8,6c-1.3-0.3-6.1-0.1-7.9,0C249.2,30.6,248.9,30.7,248.3,30.7z"/>
	<path fill="#E94860" d="M430.8,75.1c-0.2,0-0.5-0.2-0.5-0.4c0-0.1-1.5-13-6.1-18.2c-3.2-3.6-7.2-6.1-10.2-8c-1.3-0.9-2.4-1.5-3-2.1
		c-1.7-1.5-5-4.8-5.7-5.5h-8.8c-0.3,0-0.5-0.2-0.5-0.5s0.2-0.5,0.5-0.5h9l0.4,0.1c0,0,3.9,3.9,5.9,5.6c0.6,0.5,1.6,1.1,2.9,2
		c2.8,1.8,7.1,4.5,10.4,8.2c4.8,5.4,6.3,18.3,6.4,18.8c0,0.3-0.2,0.5-0.4,0.6C430.8,75.1,430.8,75.1,430.8,75.1z"/>
	<path fill="#E94860" d="M328,33.3L328,33.3l-20.9-2.7l-0.4-0.6l2.8-11.3c0-0.3,0.3-0.4,0.6-0.4c0.3,0,0.4,0.3,0.4,0.6l-2.7,10.7
		l20.3,2.7c0.3,0,0.5,0.3,0.4,0.6C328.5,33.1,328.3,33.3,328,33.3z"/>
	<path fill="#E94860" d="M161.5,98.5l-0.8-0.1l-10.6-16.6c-0.1-0.2-0.1-0.6,0.1-0.7c0.2-0.1,0.6-0.1,0.7,0.1l10.3,16.2L181.5,81h0.1
		L204,70.9L218.2,49c0.1-0.2,0.5-0.3,0.7-0.1c0.2,0.1,0.3,0.5,0.1,0.7l-14.2,21.9l-0.2,0.2l-22.4,10.1L161.5,98.5z"/>
	<path fill="#E94860" d="M139.6,181.5c-0.1,0-0.3,0-0.4-0.2c-1.4-1.7-9.7-8.7-11.6-8.9c-2.3-0.2-12.6-12.7-14.7-15.4L81.3,146l0.1-1
		l58.6-8.6c0.3,0,0.5,0.1,0.6,0.4c0,0.3-0.1,0.5-0.4,0.6l-56.5,8.3l29.8,10.2l0.2,0.1c6,7.4,13,15.1,14.2,15.2
		c2.5,0.2,11.1,7.8,12.3,9.3c0.2,0.2,0.1,0.5,0,0.7C139.9,181.3,139.9,181.5,139.6,181.5z"/>
	<path fill="#E94860" d="M190.7,160.4c-0.2,0-0.3-0.1-0.4-0.2c-0.1-0.2,0-0.6,0.2-0.7c3.9-2.1,14.1-8.5,14.7-12
		c1-4.4-1.7-17.6-1.8-17.6c0-0.3,0.1-0.5,0.4-0.6c0.3,0,0.5,0.1,0.6,0.4c0.1,0.6,2.8,13.6,1.7,18.1
		C205.2,152.4,191.5,160.1,190.7,160.4C190.9,160.4,190.7,160.4,190.7,160.4z"/>
	<path fill="#E94860" d="M51.1,259.8c0,0-0.1,0-0.2,0c-0.3-0.1-0.4-0.4-0.3-0.7c0.1-0.2,9.4-25.5,9.6-28.7c0.2-2.4,4.9-6.8,10-11.6
		c1.5-1.4,2.9-2.6,3.2-3.1c1.4-1.9,18.2-11.7,24.8-14.2c6.6-2.5,19.9-9.2,20-9.2c0.2-0.1,0.6,0,0.7,0.2c0.1,0.3,0,0.6-0.2,0.7
		c-0.1,0-13.5,6.8-20,9.3c-6.7,2.5-23.3,12.4-24.3,13.9c-0.4,0.5-1.6,1.7-3.3,3.2c-3.6,3.3-9.5,8.7-9.7,10.9
		c-0.3,3.4-9.3,27.9-9.7,29.1C51.5,259.6,51.3,259.8,51.1,259.8z"/>
	<path fill="#E94860" d="M176,232.2c-0.1,0-0.2,0-0.4-0.1l-29.1-28.9c-0.2-0.2-0.2-0.5,0-0.7c0.2-0.2,0.5-0.2,0.7,0l29.1,28.9
		c0.2,0.2,0.2,0.5,0,0.7C176.2,232.2,176.1,232.2,176,232.2z"/>
	<path fill="#E94860" d="M190.7,274.9c-0.1,0-0.2,0-0.3-0.1l-12.2-11.9l-16.9-15.4l-30.3-29.2c-0.2-0.2-0.2-0.5,0-0.7
		c0.2-0.2,0.5-0.2,0.7,0l30.3,29.2l16.8,15.4l12.2,11.9c0.2,0.2,0.2,0.5,0,0.7C190.9,274.9,190.9,274.9,190.7,274.9z"/>
	<path fill="#E94860" d="M228.3,268.4c-0.1,0-0.3,0-0.4-0.2c-0.1-0.1-3.3-3.7-4.1-7.4c-0.3-1.2-0.8-2.9-1.4-4.9
		c-1.2-4.2-2.7-8.9-2.4-10.7c0-0.2,0.1-0.8,0.1-1.4c0.5-5.4,1.9-21.9,13-32.8c0.2-0.2,0.5-0.2,0.7,0c0.2,0.2,0.2,0.5,0,0.7
		c-10.9,10.7-12.3,26.9-12.7,32.1c0,0.7-0.1,1.2-0.1,1.5c-0.2,1.5,1.2,6.3,2.4,10.2c0.6,1.9,1.1,3.8,1.4,4.9
		c0.8,3.5,3.9,6.9,3.9,6.9c0.2,0.2,0.2,0.5,0,0.7C228.5,268.3,228.4,268.4,228.3,268.4z"/>
	<path fill="#E94860" d="M90.8,316.4c-0.1,0-0.3,0-0.4-0.2c-0.2-0.2-0.1-0.5,0.1-0.7c1-0.8,24.3-19,29.1-20.3
		c4.7-1.2,17.6-11.9,17.6-12c0.2-0.2,0.5-0.1,0.7,0c0.2,0.2,0.1,0.5,0,0.7c-0.5,0.4-13.3,10.9-18.1,12.2c-4.7,1.2-28.6,19.9-28.7,20
		C91.2,316.4,90.9,316.4,90.8,316.4z"/>
	<path fill="#E94860" d="M188.3,332.7l-8.3-14.1l-7.8-19.7l-4.6-10.8l-3.3-23.6c0-0.3,0.1-0.5,0.4-0.6c0.3,0,0.5,0.1,0.6,0.4
		l3.3,23.4l4.6,10.7l7.8,19.7l7.5,12.8c1-5.7,5.4-27.5,14.6-38.3c0.2-0.2,0.5-0.2,0.7,0c0.2,0.2,0.2,0.5,0,0.7
		c-10.5,12.4-14.6,39-14.6,39.2L188.3,332.7z"/>
	<path fill="#E94860" d="M388.9,397.1c0,0-0.1,0-0.2,0c-0.2-0.1-0.4-0.4-0.3-0.7l5.3-13.2c0.1-0.2,0.4-0.4,0.7-0.3
		c0.2,0.1,0.4,0.4,0.3,0.7l-5.3,13.2C389.4,397,389.1,397.1,388.9,397.1z"/>
	<path fill="#E94860" d="M381.4,390.6c-0.2,0-0.4-0.1-0.5-0.3l-17.6-46.5l-5.4-7.6l-14.5-9c-0.2-0.1-0.3-0.5-0.1-0.7
		c0.1-0.2,0.5-0.3,0.7-0.1l14.6,9l0.1,0.1l5.6,7.8l17.6,46.6c0.1,0.3,0,0.6-0.3,0.7C381.5,390.6,381.5,390.6,381.4,390.6z"/>
	<polygon fill="#E94860" points="491,174.9 490.1,174.9 490.1,164.3 506.7,151.3 512.7,151.3 512.7,152.3 507.1,152.3 491,164.7 	
		"/>
	
		<rect x="503.6" y="107.1" transform="matrix(0.5464 0.8375 -0.8375 0.5464 319.6119 -372.956)" fill="#E94860" width="1" height="3"/>
	<polygon fill="#E94860" points="495.6,160.3 492.2,147.7 486,126.6 484.7,113.3 482.8,103.1 486.1,96.6 487,97.1 483.8,103.3 
		485.7,113.1 487,126.4 493.2,147.4 496.6,160 	"/>
	
		<rect x="396.9" y="99.9" transform="matrix(0.1318 0.9913 -0.9913 0.1318 457.7511 -295.2597)" fill="#E94860" width="1" height="27.7"/>
	<path fill="#E94860" d="M386.1,174.8l-0.5-0.9c0,0,6.8-3.7,11.1-5.5c2.2-1,4.9-1.7,7.6-2.4c2.4-0.7,4.7-1.3,6.1-2
		c1-0.5,2.5-1.5,4.1-2.7c3.3-2.4,7.4-5.4,11.8-6.7c3-0.9,6-1.2,8.4-1.4c2.8-0.3,5-0.5,5.9-1.5l0,0c1.3-1.3,4.4-4.4,4.1-8
		c-0.2-2.2-1.6-4.2-4.1-6.1l0.6-0.8c2.8,2.1,4.4,4.4,4.6,6.9c0.3,4.1-3,7.4-4.4,8.8l0,0c-1.2,1.2-3.6,1.5-6.6,1.8
		c-2.4,0.2-5.2,0.5-8.2,1.4c-4.2,1.2-8.3,4.1-11.5,6.5c-1.7,1.2-3.2,2.3-4.3,2.8c-1.5,0.7-3.8,1.3-6.2,2c-2.6,0.7-5.3,1.5-7.4,2.4
		C393,171.2,386.2,174.7,386.1,174.8z"/>
	<path fill="#E94860" d="M457.4,218.5l-0.1-1c2.9-0.3,8.8-3.6,10.9-5.7c1.7-1.7,3.7-1.5,4.9-1c0.5-0.7,1.9-2.4,5.2-6.7
		c-2.3-3.5-3.5-9.2-3.7-10.1l-10-14c-4.8-5.4-13-13.9-15.4-13.7h-0.2l-0.1-0.1c-1.9-1.3-2.8-3.6-2.9-4.2c-0.4-0.4-1.5-2-1.1-5.7
		c0.1-1-0.1-1.8-0.7-2.4c-1.1-1.3-3.2-1.4-3.2-1.4v-1c0.1,0,2.6,0.2,3.9,1.8c0.7,0.9,1,1.9,0.9,3.1c-0.4,3.7,0.9,5,0.9,5l0.1,0.1
		v0.1c0,0,0.7,2.3,2.5,3.7l0,0c0.8,0,2.9,0.5,9.4,7c3.5,3.5,6.6,7,6.7,7.1l0,0l10.2,14.2v0.1c0,0,1.3,6.7,3.7,10.2l0.2,0.3l-0.2,0.3
		c-4.8,6-5.7,7.3-5.7,7.3l-0.2,0.3l-0.4-0.2c-0.1,0-2.2-1.1-4,0.7C466.6,214.8,460.5,218.1,457.4,218.5z"/>
	<polygon fill="#E94860" points="492.2,241.3 482.9,225.6 478.5,219.7 479.3,219.1 483.8,225.1 493,240.7 	"/>
	<polygon fill="#E94860" points="443.3,239.4 443.1,238.4 455.1,235 467.2,231.2 483,224.9 487.9,219 498.2,209 508.8,199.8 
		524.7,199.6 524.7,200.6 509.2,200.8 498.7,209.6 488.6,219.8 483.6,225.7 483.5,225.8 467.6,232.2 455.4,236 	"/>
	<polygon fill="#E94860" points="391,299.5 390.4,298.6 403.6,289.7 420.5,279.7 432.5,271.7 437.1,267.6 437.8,268.4 433,272.6 
		421,280.6 404.2,290.6 	"/>
	<polygon fill="#E94860" points="453.7,327.5 453.4,327 428.8,288 429.6,287.4 454,325.9 455.9,324.1 456.6,324.9 	"/>
	<path fill="#E94860" d="M437.8,351.8l-0.6-0.9c0,0,6.3-4.3,10.5-9.2c1.3-1.6,1.9-3.1,1.8-4.6c-0.2-1.9-1.7-3-1.7-3l0.6-0.8
		c0.1,0,1.8,1.4,2.1,3.7c0.2,1.7-0.5,3.5-2,5.3C444.1,347.4,437.8,351.8,437.8,351.8z"/>
	<path fill="#E94860" d="M439.7,356.1c-0.1,0-0.3,0-0.4-0.2c-0.2-0.2-0.2-0.5,0-0.7c0.1,0,7.3-6.5,10.4-9.5c2.7-2.6-0.2-5.9-0.4-6
		c-0.2-0.2-0.2-0.5,0-0.7s0.5-0.2,0.7,0c1.3,1.4,3,4.9,0.3,7.5c-3.1,2.9-10.3,9.4-10.4,9.5C439.8,356.1,439.7,356.1,439.7,356.1z"/>
	<path fill="#E94860" d="M408.6,368.7c-0.1,0-0.3-0.1-0.4-0.2c-0.1-0.2-0.1-0.5,0.1-0.7l18.3-12.7c0.2-0.1,0.6-0.1,0.7,0.1
		c0.1,0.2,0.1,0.5-0.1,0.7l-18.3,12.7C408.8,368.7,408.7,368.7,408.6,368.7z"/>
	<polygon fill="#E94860" points="175.4,360.7 174.6,360 186.9,343.7 195.2,336.8 201,328.3 208.5,323.4 207.3,319.8 212.6,314.2 
		217.5,314.2 217.5,315.2 212.9,315.2 208.5,320 209.7,323.9 201.6,329 195.8,337.5 187.6,344.4 	"/>
	<path fill="#E94860" d="M68.1,324.7c-2.8-1.5-4.5-3.6-5.1-6.1c-1.1-4.6,1.8-8.9,1.9-9.1l0.9,0.6c0,0-2.7,4.2-1.7,8.3
		c0.5,2.2,2.1,4,4.6,5.5L68.1,324.7z"/>
	<path fill="#E94860" d="M39.8,303.7l0.4-1.5c0,0,1.7-6.2,1.9-8.6c0.1-2.6,8.2-15.4,9.1-16.9l7.7-11.4l7.9-11.5l12.6-8.2h14.5v1
		H79.7l-12.2,8l-7.8,11.3L52,277.3c-3.5,5.6-8.8,14.6-9,16.4c-0.1,1.8-1,5.4-1.5,7.4L63,284.5l0.6,0.8L39.8,303.7z"/>
	
		<rect x="33" y="298.3" transform="matrix(0.5193 0.8546 -0.8546 0.5193 278.1972 118.769)" fill="#E94860" width="1" height="16.8"/>
	
		<rect x="124.3" y="233.3" transform="matrix(0.9458 0.3249 -0.3249 0.9458 83.481 -32.4609)" fill="#E94860" width="29.2" height="1"/>
	<path fill="#E94860" d="M90.1,310.4c-0.1,0-0.1,0-0.2,0c-0.2-0.1-0.4-0.4-0.2-0.7l12.2-26.3l11-15.8l20.5-36.1
		c0.1-0.2,0.4-0.3,0.7-0.2c0.2,0.1,0.3,0.4,0.2,0.7l-20.7,36.1l-11,15.8l-12.3,26C90.5,310.2,90.3,310.4,90.1,310.4z"/>
	<path fill="#E94860" d="M159.5,216.8c-0.1,0-0.2,0-0.3-0.1c-0.2-0.2-0.2-0.5,0-0.7c0.2-0.2,4.5-4.9,11-7.2c0.6-0.2,1.3-0.4,1.9-0.7
		c5.8-2,11.3-4,18.7-4.2c11.2-0.3,24.3-0.6,27,0c2.8,0.6,14,8.6,14.5,8.9c0.2,0.1,0.3,0.5,0.1,0.7c-0.1,0.2-0.5,0.3-0.7,0.1
		c-3.2-2.3-11.9-8.3-14.1-8.8c-2.8-0.6-20.2-0.1-26.7,0c-7.3,0.2-12.7,2.1-18.5,4.1c-0.6,0.2-1.3,0.4-1.9,0.7
		c-6.2,2.2-10.5,6.8-10.6,6.9C159.8,216.7,159.6,216.8,159.5,216.8z"/>
	<path fill="#E94860" d="M277.1,232.1l-47.8-26.2c-0.2-0.1-0.3-0.4-0.2-0.7c0.1-0.2,0.4-0.3,0.7-0.2l46.9,25.8l-1.2-16.2
		c0-0.3,0.2-0.5,0.5-0.5c0.3,0,0.5,0.2,0.5,0.5l1.3,17.1L277.1,232.1z"/>
	<path fill="#E94860" d="M277.8,256.7c-0.3,0-0.5-0.2-0.5-0.5l-0.5-24.6c0-0.3,0.2-0.5,0.5-0.5l0,0c0.3,0,0.5,0.2,0.5,0.5l0.5,24.6
		C278.3,256.5,278.1,256.7,277.8,256.7L277.8,256.7z"/>
	<path fill="#E94860" d="M317.6,351.9c-0.1,0-0.2,0-0.3-0.1c-5.1-4-14.6-25.3-15-26.3c-0.1-0.2,0-0.6,0.2-0.7c0.2-0.1,0.6,0,0.7,0.2
		c0.1,0.2,9.8,22.1,14.7,25.8c0.2,0.2,0.2,0.5,0.1,0.7C317.9,351.8,317.8,351.9,317.6,351.9z"/>
	<path fill="#E94860" d="M410.2,367.7c0,0-0.1,0-0.2,0c-2.9-1.3-4.9-6.2-6.5-10.1c-0.2-0.6-0.5-1.2-0.7-1.8
		c-1.7-4-5.6-10.6-8.8-12.6c-3.4-2.1-16.1-12.4-16.6-12.8c-0.7-0.6-17.6-13.8-17.1-22.2c0.5-7.9-2.3-12.1-2.3-12.1
		c-0.1-0.2-0.1-0.5,0.1-0.7c0.2-0.1,0.5-0.1,0.7,0.1c0.1,0.2,3,4.4,2.5,12.7c-0.5,7.8,16.6,21.2,16.7,21.2
		c0.1,0.1,13.2,10.7,16.6,12.8c3.6,2.3,7.6,9.2,9.2,13c0.2,0.6,0.5,1.1,0.7,1.8c1.5,3.8,3.5,8.4,6,9.6c0.2,0.1,0.4,0.4,0.2,0.7
		C410.6,367.5,410.4,367.7,410.2,367.7z"/>
	<path fill="#E94860" d="M402.4,125.2c-1.9,0-3.7-0.3-5-1.7c-1.7-1.8-2.1-4.9-1.5-9.7c1.1-7.7-0.6-12.5-5-14.4
		c-3.4-1.4-6.9-6.5-7.1-6.8c-0.1-0.2-0.1-0.5,0.1-0.7c0.2-0.1,0.5-0.1,0.7,0.1c0,0,3.6,5,6.7,6.4c6.1,2.6,6.4,9.8,5.6,15.4
		c-0.6,4.5-0.2,7.4,1.2,8.8c1.1,1.2,3,1.6,6.2,1.3c5.5-0.6,8.6-1.4,8.6-1.4c0.3-0.1,0.6,0.1,0.6,0.3c0.1,0.3-0.1,0.6-0.3,0.6
		c-0.1,0-3.1,0.9-8.8,1.4C403.8,125.1,403.1,125.2,402.4,125.2z"/>
	<path fill="#E94860" d="M491,180.8h-1V175l-18.3-30.8v-32.3l2.1-5.6c-2.9-2.5-7.2-6.5-6.8-8c0.3-1.1-0.6-3.4-2.2-4.2
		c-1.7-0.8-2.5-3.4-2.9-5l0,0l0,0v-0.1l0,0v-0.1c-0.1-0.4-0.1-1-0.3-1.9l-1.7-11.4l1-0.1c0.7,4.5,1.9,13,2,13.4l0,0
		c0.6,2.3,1.4,3.9,2.3,4.3c2,1,3.3,3.8,2.8,5.4c0,0.8,3.5,4.3,6.8,7.2l0.3,0.2l-2.3,6.1v31.8l18.3,30.8L491,180.8L491,180.8z"/>
	<path fill="#E94860" d="M189.4,104.7c-0.1,0-0.2,0-0.3-0.1c-0.2-0.2-0.3-0.5-0.1-0.7l10.5-13.6l32.5-29.9c0.2-0.2,0.5-0.2,0.7,0
		c0.2,0.2,0.2,0.5,0,0.7L200.1,91l-10.3,13.4C189.7,104.7,189.5,104.7,189.4,104.7z"/>
	<polygon fill="#E94860" points="329.4,409.4 328.4,409.4 328.4,400.9 326.8,393.8 327.8,393.6 329.4,400.9 	"/>
</g>
<g>
	<circle fill="#464242" cx="465" cy="259.6" r="4.9"/>
	<path fill="#E94860" d="M465,266.2c-3.6,0-6.6-2.9-6.6-6.6c0-3.6,2.9-6.6,6.6-6.6c3.6,0,6.6,2.9,6.6,6.6
		C471.5,263.4,468.6,266.2,465,266.2z M465,256.5c-1.8,0-3.2,1.4-3.2,3.2s1.4,3.2,3.2,3.2c1.8,0,3.2-1.4,3.2-3.2
		S466.7,256.5,465,256.5z"/>
</g>
<g>
	<circle fill="#464242" cx="363.4" cy="169" r="4.9"/>
	<path fill="#E94860" d="M363.4,175.6c-3.6,0-6.6-2.9-6.6-6.6c0-3.6,2.9-6.6,6.6-6.6s6.6,2.9,6.6,6.6
		C369.9,172.6,367,175.6,363.4,175.6z M363.4,165.8c-1.8,0-3.2,1.4-3.2,3.2s1.4,3.2,3.2,3.2c1.8,0,3.2-1.4,3.2-3.2
		C366.5,167.3,365.2,165.8,363.4,165.8z"/>
</g>
<g>
	<circle fill="#464242" cx="337.3" cy="342.5" r="4.9"/>
	<path fill="#E94860" d="M337.3,349.2c-3.6,0-6.6-2.9-6.6-6.6c0-3.6,2.9-6.6,6.6-6.6s6.6,2.9,6.6,6.6
		C343.8,346.2,340.9,349.2,337.3,349.2z M337.3,339.4c-1.8,0-3.2,1.4-3.2,3.2c0,1.8,1.4,3.2,3.2,3.2c1.8,0,3.2-1.4,3.2-3.2
		C340.5,340.8,339,339.4,337.3,339.4z"/>
</g>
<g>
	<circle fill="#464242" cx="197.2" cy="234.7" r="4.9"/>
	<path fill="#E94860" d="M197.2,241.3c-3.6,0-6.6-2.9-6.6-6.6s2.9-6.6,6.6-6.6c3.7,0,6.6,2.9,6.6,6.6S200.8,241.3,197.2,241.3z
		 M197.2,231.5c-1.8,0-3.2,1.4-3.2,3.2s1.4,3.2,3.2,3.2c1.8,0,3.2-1.4,3.2-3.2S198.9,231.5,197.2,231.5z"/>
</g>
<g>
	<circle fill="#464242" cx="143" cy="136.7" r="4.9"/>
	<path fill="#E94860" d="M143,143.1c-3.6,0-6.6-2.9-6.6-6.6c0-3.7,2.9-6.6,6.6-6.6c3.6,0,6.6,2.9,6.6,6.6
		C149.6,140.2,146.6,143.1,143,143.1z M143,133.4c-1.8,0-3.2,1.4-3.2,3.2s1.4,3.2,3.2,3.2s3.2-1.4,3.2-3.2
		C146.1,134.8,144.7,133.4,143,133.4z"/>
</g>
<g>
	<circle fill="#464242" cx="189.4" cy="159.9" r="4.9"/>
	<path fill="#E94860" d="M189.4,166.5c-3.6,0-6.6-2.9-6.6-6.6c0-3.6,2.9-6.6,6.6-6.6c3.6,0,6.6,2.9,6.6,6.6
		C196,163.5,192.9,166.5,189.4,166.5z M189.4,156.7c-1.8,0-3.2,1.4-3.2,3.2s1.4,3.2,3.2,3.2c1.8,0,3.2-1.4,3.2-3.2
		C192.6,158.2,191.2,156.7,189.4,156.7z"/>
</g>
<g>
	<circle fill="#464242" cx="262.7" cy="152.1" r="4.9"/>
	<path fill="#E94860" d="M262.7,158.6c-3.6,0-6.6-2.9-6.6-6.6s2.9-6.6,6.6-6.6c3.6,0,6.6,2.9,6.6,6.6S266.3,158.6,262.7,158.6z
		 M262.7,148.9c-1.8,0-3.2,1.4-3.2,3.2s1.4,3.2,3.2,3.2c1.8,0,3.2-1.4,3.2-3.2C265.8,150.3,264.4,148.9,262.7,148.9z"/>
</g>
<g>
	<circle fill="#464242" cx="119.3" cy="188" r="4.9"/>
	<path fill="#E94860" d="M119.3,194.5c-3.6,0-6.6-2.9-6.6-6.6c0-3.6,2.9-6.6,6.6-6.6s6.6,2.9,6.6,6.6
		C125.8,191.7,122.9,194.5,119.3,194.5z M119.3,184.9c-1.8,0-3.2,1.4-3.2,3.2s1.4,3.2,3.2,3.2s3.2-1.4,3.2-3.2
		S121,184.9,119.3,184.9z"/>
</g>
</svg>
