<?xml version="1.0" encoding="utf-8"?>
<!-- Generator: Adobe Illustrator 18.1.1, SVG Export Plug-In . SVG Version: 6.00 Build 0)  -->
<svg version="1.1" id="Calque_1" xmlns="http://www.w3.org/2000/svg" xmlns:xlink="http://www.w3.org/1999/xlink" x="0px" y="0px"
	 viewBox="0 178.8 595.3 484.9" enable-background="new 0 178.8 595.3 484.9" xml:space="preserve">
<rect id="fond_2_2_" x="-1" y="178.8" fill="#464242" width="596.3" height="484.9"/>
<g id="grandes_rues_2_">
	<path fill="#E94860" d="M473.8,578.8c-4.9-5.2-19.1-22.3-35.4-42.1c-20-24.2-44.8-54.3-49.2-57.9c-9.5-7.7-9.1-17.8-8.6-22.7
		c-6.7-4.7-32.8-18.7-45.4-23.9c-12.4-5.2-20.9-6.4-31.7-7.9L302,424c-4.3-0.6-21.1-8-26.1-10.2c-13.1-5.9-21.2-9.9-24.2-12.2
		c-3-0.8-15.9-1.4-34-0.6c-20.5,0.9-32.9,3-36.1,4.8c-7.3,3.9-16.7,16.1-22.9,24.2c-2.3,3-4.3,5.6-5.9,7.4c-1.8,2-3.3,4.1-5,6.4
		c-4.2,5.7-9.4,12.7-20.6,22.1c-14.8,12.4-40.7,58.4-49.2,73.5l-8.8-5c15.2-27,37-64.2,51.6-76.3c10.3-8.6,14.9-14.8,19-20.3
		c1.8-2.4,3.5-4.7,5.5-7c1.4-1.6,3.3-4,5.5-6.9c7.1-9.3,16.9-22,26.1-26.9c7.9-4.3,32.5-5.7,42.7-6.1c8.7-0.3,17-0.4,23.5-0.1
		c11.3,0.4,13.5,1.6,14.9,3c3.9,3.1,40.3,19.4,45.5,20.4l1.4,0.2c11.1,1.6,20.6,2.9,34.2,8.6c6.6,2.8,18.6,8.7,29.9,14.8
		c5.6,3,10.4,5.8,13.8,7.9c5.7,3.5,8.1,5.4,8.1,8.7c0,0.6-0.1,1.2-0.2,2c-0.4,3.5-1.2,9.9,4.8,14.8c4.9,3.9,23.2,26,50.7,59.3
		c15.6,18.9,30.3,36.7,35,41.6L473.8,578.8z"/>
	<path fill="#E94860" d="M395.3,481.2c-1,0-1.9-0.4-2.5-1.1c-7.6-8.6-27.8-20.9-34-20.9c-0.1,0-0.2,0-0.4,0c-2.4,0.2-8.1-2.5-17.1-8
		c-4.1-2.5-14.1-9-19.5-14.6c-7.5-7.8-25.9-16.2-26.1-16.3c-1.7-0.8-2.5-2.8-1.7-4.5s2.8-2.5,4.5-1.7c0.8,0.4,19.9,8.9,28.3,17.8
		c3.2,3.4,9.7,8.2,17.3,13c7.4,4.6,12.7,7.2,14.1,7.5c9.3-0.5,31.8,14.1,39.8,23.1c1.2,1.4,1.1,3.5-0.3,4.8
		C396.9,480.9,396.1,481.2,395.3,481.2z"/>
	<path fill="#E94860" d="M367.2,463c-0.5,0-1-0.1-1.4-0.3c-4.7-2.1-7.1-8.7-9.4-15c-1.2-3.3-3.2-8.9-4.7-9.6
		c-1.7-0.9-2.3-2.9-1.5-4.6c0.9-1.7,2.9-2.3,4.6-1.5c3.8,2,5.7,7.2,7.9,13.3c1.6,4.3,3.8,10.2,5.9,11.2c1.7,0.8,2.4,2.8,1.7,4.5
		C369.7,462.3,368.5,463,367.2,463z"/>
	<path fill="#E94860" d="M368.4,553.3c-0.2,0-0.3,0-0.5-0.1c-0.6-0.3-0.9-1-0.6-1.6l32.2-68.3c0.8-2.5,19.9-62.8,21.5-71
		c1.6-8,0.9-9.5-1.9-15c-0.7-1.4-3-5.6-5.9-10.8c-4.1-7.5-9.7-17.7-14.1-26.1c-8-15.4-7.7-16.2-7.4-17l18.7-45.3
		c0.2-0.6,1-0.9,1.6-0.7c0.6,0.2,0.9,1,0.7,1.6l-18.6,45.1c0.5,3.3,14.5,28.9,21.3,41.3c2.9,5.3,5.2,9.5,5.9,10.9
		c2.9,5.8,3.9,7.7,2.1,16.6c-1.7,8.4-20.8,68.7-21.6,71.2l0,0.1l-32.3,68.3C369.3,553,368.8,553.3,368.4,553.3z"/>
	<path fill="#E94860" d="M349.2,563.1c-1.8,0-7.2-1.3-29.5-10.9c-13.1-5.7-25.9-11.5-26-11.6h0l-30.8-15.3l-13.5,1.1l-1.5-0.8
		L237,509.5L224,486.9l-58.5-26.8l-0.8-0.7l-15.4-26.6c-0.5-0.8-0.2-1.9,0.6-2.3c0.8-0.5,1.9-0.2,2.3,0.6l15.1,26.1l58.5,26.8
		l0.8,0.7l13.3,23l10.2,15.2l12.9-1l0.9,0.2l31.2,15.6c23.7,10.9,50.6,22.3,54,22.1c3.4-1,14.5-6.9,18.5-9.1l2.5,1.3
		c0.1,0.6,0.6,0.8,1.5,0.8c3.3-0.7,44.5-21.7,47.4-24.2c2-2.3,17.6-14.6,24.5-20l1.4-0.3l26.8,6.1l25.7-2.5l12.4-0.8l7-23.3
		l-10.6-11.4l-0.4-1.6c0,0,1.5-6.4-0.6-14.6c-2.3-8.9-11.7-27.3-13.3-28.8c-1.3-1.1-10.3-5.8-15.7-8.5l-0.9-1l-6.4-21.4
		c-5.8-7.7-12.7-17.2-13.4-19.5c-0.5-1.1-5.1-6.6-8.8-11c-5.6-6.7-11.3-13.6-12.6-16.3c-1.8-3.8-14.9-21-19.8-27.3l-0.3-1.1
		l0.5-23.2c0-1,0.8-1.7,1.7-1.7c1,0,1.7,0.8,1.7,1.7l-0.5,22.6c2.6,3.4,17.7,22.9,19.8,27.5c1.1,2.3,7.2,9.7,12.1,15.6
		c7.7,9.2,9.2,11.2,9.4,12.4c0.6,1.6,7,10.6,12.9,18.5l0.3,0.5l6.3,21c3.4,1.7,13.9,7,15.7,8.7c2.6,2.2,12.2,22.1,14.4,30.5
		c1.9,7.3,1.1,13.1,0.8,15.3l10.7,11.5l0.4,1.6l-7.6,25.4l-1.5,1.2l-13.5,0.9l-25.9,2.5l-0.5,0l-26.3-6
		c-8.7,6.8-22.2,17.5-23.3,18.9c0,0,0,0,0,0c-0.8,1.1-8.8,5.7-24.1,13.5c-6.9,3.6-23.3,11.8-25.6,12c-2.1,0.2-3.5-0.6-4.3-1.6
		c-3.9,2.1-14.1,7.7-17.7,8.6C349.8,563.1,349.6,563.1,349.2,563.1z"/>
	<path fill="#E94860" d="M385.7,613.8c-2.1,0-4.7-0.1-7.3-0.2c-1.1,0-2.1-0.1-2.5-0.1c-1.4,0-2.7-1.5-4.9-4
		c-1.5-1.7-3.2-3.8-4.6-4.4h-13.2c-2,1-14.3,6.8-19.8,7.2c-5.3,0.4-10.7-1.4-14.6-2.8c-0.5-0.1-0.9-0.3-1.3-0.4
		c-1.3-0.4-136.9-45.8-144.9-49.1c-7-2.9-13.4-7.5-17.9-10.9c-0.6-0.5-1.2-0.9-1.8-1.3c-4.7-3.4-18.7-11.3-29.1-15.5
		c-7-2.8-12.9-4.9-17.3-6.5c-2.2-0.8-4-1.4-5.3-1.9c-3.9-1.5-12.6-9-13.5-9.8l-24-15.7l-0.2-0.2c-6.8-7.3-7.3-9.4-1.6-29.3l1.4-0.8
		l13.6,3.5c3.9-2.6,33.5-21.7,40.9-28l0.1-0.1c8.1-6.8,29.6-25,31.9-43.5l0.7-1l20.5-9.4l0.4-0.1l17.7-1.7l0.6,0.1l16.1,7.7
		c0.6,0.3,0.9,1,0.6,1.6c-0.3,0.6-1,0.9-1.6,0.6l-15.8-7.5l-17.2,1.7l-19.9,9c-2.8,19.2-24.4,37.4-32.6,44.4l-0.1,0.1
		c-8,6.8-40.2,27.5-41.6,28.4l-1,0.1l-12.9-3.3c-5.3,18.6-4.5,19.6,1.3,25.8L88.8,512l0.1,0.1c2.6,2.2,9.9,8.3,12.8,9.4
		c1.3,0.5,3,1.1,5.3,2c4.4,1.6,10.3,3.7,17.4,6.5c10.6,4.2,24.9,12.3,29.6,15.8c0.6,0.4,1.1,0.9,1.8,1.3c4.5,3.3,10.7,7.9,17.5,10.6
		c7.9,3.2,143.4,48.6,144.7,49c0.4,0.1,0.9,0.3,1.3,0.5c3.7,1.3,8.8,3,13.7,2.7c5.4-0.4,19.1-7,19.2-7.1l0.5-0.1h13.7l0.4,0.1
		c1.9,0.8,3.8,3,5.7,5.1c1,1.2,2.6,3,3.2,3.2c0.5,0,1.4,0,2.6,0.1c3,0.1,9.5,0.5,11.1,0c0.7-0.2,5.9-2.9,11.9-6.1
		c22.4-11.8,46.8-24.4,52.7-25.4c7.7-5.2,16.9-11.8,17-11.9c0.3-0.2,8-6.2,12.6-8.4c1.4-0.7,3-1.3,4.9-2c4.1-1.6,9.3-3.6,15.1-7.2
		c2-1.2,4.7-2.7,7.5-4.3c8.9-5,21.1-11.8,22.9-17.1c2.5-7.3,12-46.8,12-53.5c0-6.6-7.9-82.8-8-83.6v-0.1c0-0.4,0-39.3-0.8-44
		c-0.7-4.1-5.5-17.7-7.1-19.8c-2.5-0.3-13.7-2.3-15.8-6c-0.3-0.5-0.7-1.1-1.1-1.8c-2-3.1-5-7.8-1.1-12.3c0.4-0.5,0.6-0.9,0.5-1.2
		c-0.2-0.6-1.5-1.9-7.6-3c-0.7-0.1-0.9-0.1-1-0.2c-1.3-0.7-4.9-4.6-5.3-14.6c0-0.7,0.5-1.2,1.1-1.2c0.6,0,1.2,0.5,1.2,1.1
		c0.4,9.1,3.4,12.1,3.9,12.5c0.1,0,0.3,0,0.5,0.1c4.1,0.8,8.4,2,9.3,4.6c0.3,0.8,0.3,2-1,3.5c-2.6,2.9-1.1,5.8,1.3,9.5
		c0.4,0.7,0.8,1.3,1.1,1.9c1.5,2.6,12.5,4.9,14.2,4.9c0.8,0,1.8,0,5.2,9.3c1.6,4.2,3.3,9.7,3.8,12.4c0.9,4.9,0.9,42,0.9,44.3
		c0.4,3.9,8,77,8,83.8c0,6.8-9.6,46.9-12.1,54.3c-2.1,6.1-14.2,12.9-24,18.4c-2.8,1.6-5.4,3-7.4,4.2c-5.9,3.7-11.2,5.8-15.5,7.4
		c-1.9,0.7-3.4,1.3-4.8,2c-4.3,2-12.1,8.1-12.1,8.1c-0.1,0.1-9.6,6.8-17.3,12.1l-0.5,0.2c-5.3,0.7-35.7,16.6-52.1,25.3
		c-7.8,4-11.5,6-12.2,6.3C389.4,613.7,387.8,613.8,385.7,613.8z"/>
	<path fill="#E94860" d="M390.7,630.9c-1.8,0-3.7-0.3-5.9-0.7c-2.2-0.4-4.7-0.8-7.3-0.9c-7.1-0.3-9.2-1.3-14.2-5.4
		c-1.8-1.5-3.9-2.1-6.6-2.1c-0.8,0-1.5,0-2.1,0.1c-0.5,0-1,0-1.4,0c-1.4,0.4-6.7,3.8-10.7,6.8l-1.7,0.5l-36.9-2.8l-1.5-0.6l-8.9-7.8
		l-22.4-8l-34.9-11.3l-70.5-24l-0.6-0.3l-29.3-18.9l-21.1-13.5c-1.1-0.8-4.5-2.9-6.4-3.7c-1-0.4-2.9-0.7-5-1c-2.3-0.3-5-0.8-7.7-1.5
		c-0.8-0.2-1.5-0.3-2-0.3c-1,0-1.7,0.3-2.9,0.8c-1.2,0.5-2.6,1.1-4.7,1.5c-3.1,0.6-9.3,1.5-15.4,1.5c-4.6,0-8.4-0.5-11.3-1.6
		c-10-3.7-20.3-9.6-20.9-25.4v-0.4l1.3-12.2l0.1-0.6c0.7-2,1.6-7.8,1.4-23.9c0-0.4,0-0.7,0-0.9c-0.3-0.8-2-3.1-3.2-4.8
		c-3-4.1-6.4-8.8-6.7-12.7c-0.4-6.7,14.5-32,17.3-35.6c2.4-3.1,6.1-3.9,9.8-4.6c2.2-0.4,4.6-0.9,6.7-1.9l40.1-60.5
		c1.8-3.9,9.7-21.1,15.7-24.2c1.8-0.9,3.6-6.4,4.9-10.8c2-6.3,4.3-13.4,8.6-17.1c2.8-2.3,6.5-6.6,10.4-11
		c6.3-7.2,12.9-14.6,17.8-16.9c2.8-1.3,5.5-2.1,8.2-2.9c4.5-1.3,8.4-2.5,11.7-5.7c1.3-1.3,3.4-3.4,5.7-5.8
		c8-8.3,20.1-20.9,27.9-24.5c2.9-1.3,7.7-3.9,13.2-6.9c17-9.3,29.4-15.8,34.4-15.8c0.2,0,0.4,0,0.5,0s0.5,0,1.4,0
		c4.5,0,16.3-0.6,30-1.2c19.2-0.9,43.2-2,56-2c4.3,0,7.1,0.1,8.7,0.4c9.9,1.6,44,2.8,53.1,2.8c4,0,12.3,0.4,21.1,0.8
		c10.3,0.5,20.9,1,26.9,1c1.4,0,2.5,0,3.2-0.1c0.5,0,1-0.1,1.7-0.1c1.7-0.2,3.8-0.4,6-0.4c14.5,0,22.4,9.2,23.4,27.4l5.7,26.2l0,0.2
		l1.5,12.3c0.3,2.6,1.9,6.6,2.5,7.9l0.2,1c0-0.4-0.1-0.6-0.1-0.6c0.8,2,11.4,16.9,21.1,20.9c11.3,4.7,14.5,16.4,15.6,20.8
		c0,0.2,0.1,0.5,0.2,0.7c0.7,2.5,6.9,13.5,10.7,19.8l0.6,1c3.8,6,5.7,9,5.3,16.6c-0.1,1.6-0.4,3.2-0.7,5.2
		c-1.3,7.5-3.2,18.9,3.3,39.6l0,0.1c1.3,5.4,0.6,10.5-0.1,15.4c-0.8,5.3-1.6,10.7,0.1,16.8c3.8,13.1,5,33.8,0,46.6
		c-2.4,19.2-2.5,22-2.6,35.3c-0.1,8.5-6.8,11-12.1,13c-1.6,0.6-3.1,1.1-4.3,1.8c-5.9,3.1-16.8,11.7-18.9,14.3
		c-2.6,3.2-11.9,11.2-16.8,11.9c-1.6,0.2-4.6,1.3-7.4,2.2c-3.7,1.3-7.5,2.6-10.6,3.1c-4.6,0.7-22.7,10.4-25.7,12.6
		c-2.6,1.8-9.2,7.3-11.9,10.6c-2.9,3.5-11.2,10.6-15.6,11.3c-1.9,0.4-13.8,6.6-21,10.2c-9.8,5-11.9,6.1-13,6.4c-0.4,0.2-1.3,1-2,1.6
		c-1.9,1.6-4.2,3.7-6.7,4.3C392.5,630.8,391.7,630.9,390.7,630.9z M356.8,616.7c3.9,0,7.1,1,9.8,3.3c4.1,3.4,5.3,4,11.2,4.2
		c3,0.1,5.6,0.6,7.9,1c2,0.3,3.6,0.6,4.9,0.6c0.5,0,1,0,1.3-0.1c1.3-0.3,3.2-2,4.6-3.2c1.6-1.4,2.8-2.5,4.2-2.8
		c1.1-0.4,6.8-3.3,11.8-5.9c14.2-7.3,20.4-10.4,22.4-10.7c2.2-0.4,9.5-5.9,12.6-9.6c3.1-3.8,10.2-9.5,12.9-11.5
		c2.5-1.8,21.7-12.4,27.8-13.4c2.6-0.4,6.4-1.7,9.7-2.9c3.4-1.2,6.3-2.2,8.4-2.5c2.9-0.4,11-6.9,13.6-10.1
		c2.7-3.3,14.2-12.3,20.5-15.6c1.6-0.8,3.3-1.5,4.9-2.1c5.4-2,8.8-3.5,8.8-8.3c0.1-13.8,0.2-17,2.7-36.2l0.1-0.6
		c4.6-11.3,3.5-31-0.1-43.6c-2-7.1-1.1-13.4-0.3-19c0.7-4.6,1.3-8.9,0.3-13.3c-6.8-21.8-4.7-34.4-3.4-41.9c0.3-1.8,0.6-3.4,0.7-4.7
		c0.3-5.9-0.9-7.8-4.5-13.6l-0.7-1c-1-1.8-10.1-17.1-11.3-21.1c0-0.2-0.1-0.5-0.2-0.8c-1.1-4.1-3.7-13.7-12.7-17.5
		c-6.2-2.6-12.3-8.6-16.3-13.1c-0.3-0.3-6.4-7.4-7.7-10.8l0,0c-0.1-0.2-2.5-5.6-2.9-9.4l-1.5-12.1l-5.7-26.3l0-0.4
		c-1.1-20.4-11-22.8-18.3-22.8c-2,0-3.9,0.2-5.5,0.3c-0.7,0-1.2,0.1-1.8,0.2c-0.9,0-2,0.1-3.6,0.1c-6.1,0-16.8-0.5-27.1-1
		c-8.7-0.4-16.9-0.8-20.8-0.8c-9.5,0-43.6-1.1-53.9-2.9c-0.9-0.1-2.9-0.3-7.8-0.3c-12.7,0-36.6,1.1-55.8,2
		c-13.8,0.7-25.7,1.2-30.2,1.2c-0.8,0-1.4,0-1.8,0h0c-4.1,0-21.5,9.5-32,15.2c-5.6,3-10.5,5.7-13.5,7.1
		c-6.9,3.2-19.1,15.9-26.4,23.4c-2.4,2.5-4.4,4.6-5.9,6c-4.2,4-9.1,5.5-13.8,6.8c-2.5,0.7-5,1.5-7.5,2.6
		c-3.9,1.8-10.4,9.2-16.1,15.7c-4,4.6-7.9,9-10.9,11.6c-3.2,2.7-5.3,9.1-7.1,14.7c-2,6.4-3.9,11.9-7.5,13.8
		c-3.3,1.7-9.9,13.8-13.5,21.9l-0.2,0.4l-40.6,61.2l-1,0.9c-2.9,1.5-5.9,2.1-8.6,2.6c-3.1,0.6-5.5,1-6.7,2.7
		c-3.9,5.2-16.5,28.3-16.3,32.2c0.1,2.4,3.3,6.8,5.7,9.9c2.8,3.8,4.1,5.8,4.1,7.6c0,0.2,0,0.6,0,1c0,8.5,0,20.3-1.6,25.3l-1.2,11.7
		c0.6,11.9,7.5,16.9,17.6,20.6c2.3,0.9,5.5,1.3,9.5,1.3c5.8,0,11.6-0.9,14.5-1.4c1.5-0.2,2.5-0.7,3.5-1.2c1.4-0.6,2.9-1.2,4.9-1.2
		c1,0,2.1,0.2,3.4,0.5c2.4,0.7,4.9,1,7,1.4c2.5,0.4,4.6,0.7,6.2,1.3c2.7,1.1,7,4,7.2,4.1l21.1,13.5l29.1,18.7l70.3,23.9l35,11.3
		l22.8,8.2l0.8,0.5l8.7,7.6l35.1,2.7c6.6-4.8,10.9-7.3,12.9-7.3c0.3,0,0.7,0,1.1,0C355,616.8,355.9,616.7,356.8,616.7z"/>
	<path fill="#E94860" d="M83.1,537.1h-3.2c-0.7,0-1.2-0.5-1.2-1.2c0-0.7,0.5-1.2,1.2-1.2h2.5l13.2-25l1-0.6h3.5
		c2.2-4,13.8-25.3,15.6-28c1.2-1.9,13.5-14.9,28.3-30.5c5.9-6.2,10.9-11.5,11.8-12.6c1.8-2,2-4.6,2-6.7c0-0.8,0.1-1.5,0.2-2.1
		l0.7-0.9l3.7-1.7c1.1-1,8.5-7.8,13.9-13.7c7.5-8,14-12,20.1-12.2l1.2,1.4c-0.2,0.9-4.5,21.5-5.3,24.1c-0.5,1.4-4,4.9-12.5,13.4
		c-5.9,5.9-12.6,12.5-14.9,15.5c-0.4,0.5-1.1,0.6-1.7,0.2c-0.5-0.4-0.6-1.1-0.2-1.7c2.4-3.2,8.8-9.6,15.1-15.8
		c5.1-5,11.4-11.3,11.9-12.5c0.6-1.8,3.3-14.6,4.9-22.3c-4.9,0.8-10.6,4.6-16.9,11.3c-5.9,6.3-14.1,13.8-14.2,13.9l-0.3,0.2
		l-3.3,1.5c0,0.3,0,0.8-0.1,1.2c-0.1,2.3-0.3,5.4-2.6,8.1c-1,1.1-5.8,6.2-11.9,12.7c-10.7,11.3-26.8,28.3-28,30.1
		c-1.9,2.9-15.7,28.2-15.8,28.5l-1,0.6h-3.5l-13.2,25L83.1,537.1z"/>
	<path fill="#E94860" d="M294.8,616.9c-0.1,0-0.3,0-0.5-0.1c-0.6-0.2-0.9-1-0.6-1.6l11.4-27.3c-1-4.3-10.7-43.6-12.6-51.5
		c-2-8.4-13.4-62.4-13.6-62.9l-7.3-40.1c-9.4-15.1-20.5-31.2-22.9-32c-2.8-1-31.4,0.4-50.9,1.7l12.1,37.4l3.1,1l0.5,0.3l14.4,15.9
		c0.4,0.5,0.4,1.2-0.1,1.7s-1.2,0.4-1.7-0.1l-14.1-15.7l-3.4-1.1l-0.8-0.8l-12.7-39.4l1-1.6c5-0.3,49-3.1,53.3-1.6
		c4.3,1.5,20.9,27.9,24.3,33.2l0.1,0.4l7.3,40.3c0.1,0.5,11.6,54.5,13.5,62.8c2,8.4,12.6,51.4,12.7,51.8l0,0.8l-11.6,27.6
		C295.7,616.7,295.3,616.9,294.8,616.9z"/>
	<path fill="#E94860" d="M237.6,445.5C237.6,445.5,237.6,445.5,237.6,445.5l-24.9-1.7c-0.7,0-1.1-0.6-1.1-1.3s0.6-1.1,1.3-1.1
		l24.8,1.7c0.7,0,1.1,0.6,1.1,1.3C238.8,445.1,238.2,445.5,237.6,445.5z"/>
	<path fill="#E94860" d="M238.5,509.8c-0.5,0-0.9-0.3-1.1-0.7c-0.3-0.6,0-1.3,0.6-1.6l17.8-7.8l7.7-9.1c0.4-0.5,1.2-0.6,1.7-0.1
		s0.6,1.2,0.1,1.7l-7.9,9.3l-0.4,0.3l-18,7.9C238.8,509.8,238.6,509.8,238.5,509.8z"/>
	<path fill="#E94860" d="M272,608.8c-0.6,0-1.1-0.5-1.2-1.1l-0.3-9v-0.2l4.8-29.1L255.4,501l0-0.2l-2-14.4c-0.1-0.7,0.4-1.2,1-1.3
		c0.7-0.1,1.2,0.4,1.3,1l2,14.3l20,68.4l0,0.5l-4.8,29.2l0.3,8.9C273.2,608.2,272.7,608.8,272,608.8
		C272.1,608.8,272,608.8,272,608.8z"/>
	<path fill="#E94860" d="M235.1,596.8c-0.3,0-0.7-0.1-1-0.5c-0.4-0.5-0.3-1.2,0.2-1.7c2.6-2,40-25.4,41.5-26.4l0.7-0.2l19.2,1.4
		l0.2,0l29,6.5c0.2,0,22.4,5.3,49.2,1.7c27-3.6,44.9-6.8,45-6.9l0.6,0l21.2,6.3l0.4,0.2l6,5.4c0.5,0.4,0.5,1.2,0.1,1.7
		c-0.4,0.5-1.2,0.5-1.7,0.1l-5.8-5.2l-20.6-6.2c-2.4,0.4-19.6,3.5-44.9,6.8c-27.3,3.7-49.8-1.7-50-1.7l-28.9-6.5l-18.7-1.4
		c-13.5,8.5-39,24.6-41,26.1C235.6,596.7,235.3,596.8,235.1,596.8z"/>
	<path fill="#E94860" d="M158.7,541.7c-0.6,0-1.1-0.4-1.2-1l-3.1-21.2l0.1-0.7l28.1-52.8l0.2-0.3l9.7-9.5l34.7-35l0.7-0.3
		c0.2,0,6.3-0.9,11.1,1.8l0.6,1l-0.9,33.1l5.5,19.6c2.4,1.8,17.6,13.2,23.1,15.2c6.3,2.3,24,11.4,30.4,15.1
		c6.6,3.9,49.4,20.8,57.9,18.1c8.8-2.8,31.1-14.4,31.3-14.5c0.6-0.3,1.3-0.1,1.6,0.5c0.3,0.6,0.1,1.3-0.5,1.6
		c-0.9,0.5-22.7,11.8-31.7,14.6c-9.9,3.1-54.1-14.9-59.9-18.4c-6.3-3.7-23.8-12.7-30-14.9c-6.3-2.3-23.3-15.2-24-15.7l-0.4-0.6
		l-5.7-20.2l0-0.3l0.8-32.5c-3.4-1.6-7.4-1.4-8.6-1.3l-34.4,34.6l-9.6,9.4l-27.8,52.3l3,20.7c0.1,0.7-0.3,1.2-1,1.3
		C158.8,541.7,158.8,541.7,158.7,541.7z"/>
	<path fill="#E94860" d="M251.4,396.7c-0.1,0-0.2,0-0.3,0c-0.6-0.2-1-0.9-0.8-1.5l2.9-9.4l-78.3-37.9l-32.7-15.8l-15.2-7.4
		c-0.6-0.3-0.8-1-0.5-1.6s1-0.8,1.6-0.5l15.1,7.4l32.7,15.8l79.2,38.3l0.6,1.4l-3.1,10.3C252.4,396.4,251.9,396.7,251.4,396.7z"/>
	<path fill="#E94860" d="M128.3,322.4c-0.3,0-0.7-0.1-1-0.5c-0.4-0.5-0.3-1.2,0.2-1.7c8.9-7,63.8-61,64.4-61.5
		c0.5-0.5,1.2-0.5,1.7,0c0.5,0.5,0.5,1.2,0,1.7c-2.3,2.2-55.5,54.7-64.5,61.8C128.8,322.3,128.6,322.4,128.3,322.4z"/>
	<path fill="#E94860" d="M455.8,288.1c-0.4,0-0.7-0.1-1-0.5l-38.9-52.7l-0.2-0.6l-1.7-18.7c0-0.7,0.4-1.2,1.1-1.3s1.2,0.4,1.3,1.1
		l1.7,18.4l38.7,52.5c0.4,0.5,0.3,1.3-0.2,1.7C456.3,288.1,456,288.1,455.8,288.1z"/>
	<path fill="#E94860" d="M92.6,401.2h-3.4l-0.7-0.2l-6.1-4.5c-0.5-0.4-0.6-1.1-0.2-1.7c0.4-0.5,1.1-0.6,1.7-0.2l5.9,4.3h2.6
		c2.8-2.2,8.8-6.8,11-6.8c2,0,39.4,5.6,46.9,6.7l24.2-52.4l9.3-21.3l0.7-0.7l39.3-12.7l0.3,0c0.1,0,8.6-0.4,16-2.5
		c7.2-2,35.2-10.2,37.9-10.9l7-4.9l1.2-0.1c10.8,5.3,29.3,13.3,33,12.2c1.3-0.4,3.4-1.1,5.9-2c7.9-2.8,19.9-6.9,24.9-6.9
		c1.5,0,5.1-0.3,9.6-0.7c14.5-1.2,38.8-3.2,52-0.6l1,1.1c0,1.9,2,3.2,3.3,3.9l1.1-4.2l0.4-0.6L467,256c0.5-0.4,1.2-0.3,1.7,0.2
		c0.4,0.5,0.3,1.2-0.2,1.7l-49.6,39.2l-1.4,5.2l-1.5,0.8c-0.2-0.1-5.2-1.8-6-5.7c-13.1-2.3-36.4-0.4-50.5,0.8
		c-4.7,0.4-8.1,0.7-9.8,0.7c-4.6,0-16.4,4.1-24.1,6.8c-2.5,0.9-4.6,1.6-5.9,2c-5.5,1.7-29.2-9.6-34.1-12l-6.6,4.7l-0.3,0.2
		c-0.3,0.1-30.5,8.9-38,11c-7.2,2-15.1,2.5-16.4,2.6l-38.8,12.5l-9.1,20.8l-24.6,53.2l-1.2,0.7c-18.2-2.7-45.8-6.8-47.4-6.8
		c-1.1,0-5.9,3.4-9.8,6.6L92.6,401.2z"/>
	<path fill="#E94860" d="M385.9,336.6c-0.6,0-1.1-0.5-1.2-1.1c-0.1-4.9,4.8-13.5,4.9-13.8l0.1-0.1l20.3-25.8l54.6-66l9.2-13.3
		c0.4-0.5,1.1-0.7,1.7-0.3c0.5,0.4,0.7,1.1,0.3,1.7l-9.3,13.5l-54.6,65.9l-20.2,25.7c-1.3,2.4-4.7,9.1-4.6,12.5
		C387.1,336,386.6,336.5,385.9,336.6L385.9,336.6z"/>
	<path fill="#E94860" d="M182.2,281.8l-8-3.4c-0.6-0.2-0.9-1-0.6-1.6c0.2-0.6,1-0.9,1.6-0.6l7.4,3.1l51-34.3l0.1,0l27.5-15.2
		l0.5-0.1l196.6-6.8l0.5,0.1l15.1,6.3l10,1.7l0.5,0.2l7.6,5.9c0.5,0.4,0.6,1.1,0.2,1.7c-0.4,0.5-1.1,0.6-1.7,0.2l-7.4-5.8l-9.8-1.7
		l-0.2-0.1l-15-6.2l-196,6.8l-27.2,15.1l-51.6,34.6L182.2,281.8z"/>
	<path fill="#E94860" d="M384.2,628.7c-0.6,0-1-0.4-1.1-1l-15.7-75.4l2.2-0.8l35.9,68.9c0.3,0.6,0.1,1.3-0.5,1.6
		c-0.6,0.3-1.3,0.1-1.6-0.5l-32-61.3l14,67.1c0.1,0.6-0.3,1.3-0.9,1.4C384.3,628.7,384.2,628.7,384.2,628.7z"/>
	
		<path fill="none" stroke="#E94860" stroke-width="4.9785" stroke-linecap="round" stroke-linejoin="bevel" stroke-miterlimit="10" d="
		M231.5,446.3"/>
	
		<path fill="none" stroke="#E94860" stroke-width="4.9785" stroke-linecap="round" stroke-linejoin="bevel" stroke-miterlimit="10" d="
		M228.5,491.4"/>
	<path fill="#E94860" d="M238.5,461.3c-0.4,0-0.8-0.2-1-0.6c-5.2-8.3-5.7-16.3-5.7-16.6c0-0.7,0.5-1.2,1.1-1.2
		c0.7,0,1.2,0.5,1.2,1.1l0,0c0,0.1,0.5,7.7,5.3,15.5c0.3,0.6,0.2,1.3-0.4,1.6C238.9,461.2,238.7,461.3,238.5,461.3z"/>
	<path fill="#E94860" d="M276,570.3l-24-11.6l-16.8-7.3l-15.3-7.9l-22.2-10.4l-19.1-7.3l-0.2-0.1L116,482.8
		c-0.5-0.4-0.7-1.1-0.3-1.7c0.4-0.5,1.1-0.7,1.7-0.3l62.2,42.9l19.1,7.3l22.3,10.4l15.3,7.9l16.7,7.3l23.1,11.1l17.3-29.2l14.6-25.5
		v-4.3l0.1-0.4l20.4-53.5l3.4-13.5l0.2-0.4l8.8-11.7l2.5-9.3l30.6-79c0.2-0.6,0.9-0.9,1.5-0.7c0.6,0.2,0.9,0.9,0.7,1.5l-30.5,78.9
		l-2.5,9.3l-0.2,0.4l-8.8,11.7l-3.4,13.5l-20.3,53.4v4.4l-0.1,0.6l-14.8,25.9l-17.9,30.2L276,570.3z"/>
	<path fill="#E94860" d="M470.4,580.6c-0.3,0-0.7-0.1-0.9-0.4l-48-58L371.3,465h-19.5l-0.4-0.1l-25.9-9.8
		c-0.3-0.1-31.1-11-39.5-14.4c-8.5-3.4-13.5-6.4-13.7-6.6c-0.6-0.3-0.7-1-0.4-1.6c0.3-0.6,1-0.7,1.6-0.4c0,0,5.1,3.1,13.4,6.4
		c8.3,3.3,39.1,14.3,39.4,14.4l25.8,9.8h19.8l0.9,0.4l50.6,57.6l48,58c0.4,0.5,0.3,1.2-0.1,1.7C470.9,580.5,470.7,580.6,470.4,580.6
		z"/>
	<path fill="#E94860" d="M401.9,486.3c-0.6,0-1.1-0.4-1.2-1c-0.1-0.7,0.3-1.2,1-1.3l96.4-14.6h0.3l64.3,6.7c0.7,0,1.1,0.7,1,1.3
		c0,0.7-0.7,1.1-1.3,1l-64.1-6.6l-96.3,14.5C402.1,486.3,402,486.3,401.9,486.3z"/>
	<path fill="#E94860" d="M470.1,400.7l-68.8-20l-1,1.6l-1,0.6h-2.5l-0.9-0.4l-6.1-6.3l-0.3-1c0-0.1,0.2-1.9,1.7-3.8l-42.6-73.1
		l-0.1-0.6l0.1-38.9L331.7,229l-0.1-0.5l-0.6-15.6c0-0.7,0.5-1.2,1.1-1.2c0.6,0,1.2,0.5,1.2,1.1l0.6,15.4l16.9,29.8l0.1,0.6
		l-0.1,38.9l42.8,73.6l-0.2,1.4c-1,1-1.4,2-1.5,2.6l5.3,5.5h1.4l1.1-1.8l1.3-0.5l69.2,20.2l27.5-10.4l0.5-0.1l40.7,2.5l7.7-2.4
		l7.5-9c0.4-0.5,1.1-0.6,1.7-0.1c0.5,0.4,0.6,1.1,0.1,1.7l-7.7,9.3l-0.6,0.4l-8.2,2.5l-0.4,0l-40.7-2.5l-27.7,10.5L470.1,400.7z"/>
	<path fill="#E94860" d="M297.1,416.8c-0.1,0-0.3,0-0.5-0.1c-0.6-0.2-0.9-1-0.6-1.6l7.5-17.4l-11.2-36.5v-0.7L296,349l0.7-0.8
		l202.3-79c0.6-0.2,1.3,0,1.5,0.7c0.2,0.6,0,1.3-0.7,1.5l-201.8,78.9l-3.4,10.7l11.2,36.6l0,0.8l-7.6,17.7
		C298,416.5,297.5,416.8,297.1,416.8z"/>
	<path fill="#E94860" d="M506.1,486.3c-0.4,0-0.9-0.2-1-0.6l-7.7-14.4l-98.8-88.9c-0.5-0.4-0.5-1.2-0.1-1.7c0.4-0.5,1.2-0.5,1.7-0.1
		l99,89l0.2,0.3l7.8,14.6c0.3,0.6,0.1,1.3-0.5,1.6C506.5,486.3,506.3,486.3,506.1,486.3z"/>
	<path fill="#E94860" d="M103.2,394.4c-0.4,0-0.8-0.2-1-0.5c-0.4-0.5-0.2-1.3,0.3-1.6c0.6-0.4,57.5-37.8,72.2-46.4l0.3-0.1
		c25.9-6.6,66.8-7.8,67.2-7.8h0.2l12.3,2.1l42.7,8.2L391,374c0.6,0.2,1,0.8,0.8,1.5c-0.2,0.6-0.8,1-1.5,0.8l-93.5-25.9l-42.5-8.2
		l-12.1-2.1c-2.4,0.1-41.4,1.4-66.4,7.7c-14.8,8.8-71.4,45.9-72,46.3C103.6,394.3,103.4,394.4,103.2,394.4z"/>
	<path fill="#E94860" d="M163.7,416.8c-0.7,0-1.2-0.5-1.2-1.2v-16.1l0.3-0.8l7.4-8.7l5.8-15.2l-1.8-27.7l-14.6-27.6
		c-0.3-0.6-0.1-1.3,0.5-1.6c0.6-0.3,1.3-0.1,1.6,0.5l14.8,27.8l0.1,0.5l1.9,28.2l-0.1,0.5l-5.9,15.6l-0.2,0.3l-7.3,8.6v15.6
		C164.8,416.3,164.3,416.8,163.7,416.8z"/>
	<path fill="#E94860" d="M189,390.2c-0.6,0-1.1-0.4-1.2-1l-2.1-16.3l-11.5-25.5l0.4-1.5l33.4-21.3c0.6-0.3,1.3-0.2,1.6,0.4
		c0.3,0.6,0.2,1.3-0.4,1.6l-32.5,20.7l11.1,24.7l0.1,0.3l2.1,16.5C190.2,389.6,189.7,390.1,189,390.2
		C189.1,390.2,189.1,390.2,189,390.2z"/>
	<path fill="#E94860" d="M196.4,393.7c-0.6,0-1.1-0.5-1.2-1l-3.6-37.2c0-0.7,0.4-1.2,1-1.3c0.7,0,1.2,0.4,1.3,1l3.6,37.2
		C197.6,393.1,197.1,393.6,196.4,393.7C196.5,393.7,196.4,393.7,196.4,393.7z"/>
	<path fill="#E94860" d="M337,334h-46.5c-0.7,0-1.2-0.5-1.2-1.2s0.5-1.2,1.2-1.2H337c0.7,0,1.2,0.5,1.2,1.2S337.6,334,337,334z"/>
	<path fill="#E94860" d="M422.4,483.3c-0.5,0-1-0.3-1.1-0.9l-10-35.8l0-0.1c0-0.4-6.9-43.3-8.1-48.2c-1.2-4.8-7.2-16-7.3-16.1
		c-0.3-0.6-0.1-1.3,0.5-1.6c0.6-0.3,1.3-0.1,1.6,0.5c0.2,0.5,6.2,11.7,7.5,16.6c1.2,4.9,7.8,45.8,8.2,48.3l10,35.7
		c0.2,0.6-0.2,1.3-0.8,1.5C422.6,483.2,422.5,483.3,422.4,483.3z"/>
	<path fill="#E94860" d="M267.5,370.8l-1.4-0.7l-12.7-28.4l1-1.7c0,0,7.1-0.4,15-1.7c9.7-1.5,16.4-3.6,19.6-6L272,278.6l0-0.6
		l13.4-63.4c0.1-0.6,0.8-1,1.4-0.9c0.6,0.1,1,0.8,0.9,1.4l-13.3,63.1l17.2,54.3l-0.3,1.2c-6.8,6-28.6,8.1-35,8.7l11.6,25.9l50.3-14
		c0.6-0.2,1.3,0.2,1.5,0.8c0.2,0.6-0.2,1.3-0.8,1.5L267.5,370.8z"/>
	<path fill="#E94860" d="M254.5,342.4c-0.3,0-0.7-0.1-0.9-0.4l-49.5-60.5l-0.2-0.6l-1.9-13.5l-8-10c-0.4-0.5-0.3-1.2,0.2-1.7
		s1.2-0.3,1.7,0.2l8.2,10.3l0.2,0.6l1.9,13.5l49.2,60.2c0.4,0.5,0.3,1.2-0.2,1.7C255.1,342.3,254.8,342.4,254.5,342.4z"/>
	<path fill="#E94860" d="M341.9,420.2c-0.4,0-0.8-0.2-1-0.6c0,0-1.9-3.2-4.6-8.3c-7.5-0.8-31-11.8-32-12.3l-0.2-0.1l-22.2-16.2
		l-30.9-13.6l-0.3-0.2l-8.1-7.9l-20.5-9.2l-0.2-0.1l-37.6-24.9l-51.7-15.9c-0.6-0.2-1-0.9-0.8-1.5c0.2-0.6,0.9-1,1.5-0.8l51.9,16
		l0.3,0.1l37.7,24.9l20.7,9.3l0.3,0.2l8.1,7.9l30.9,13.6l0.2,0.1l22.2,16.2c7.2,3.4,26.7,12.1,31.6,12.1l1,0.6
		c2.9,5.4,4.9,8.8,4.9,8.8c0.3,0.6,0.1,1.3-0.4,1.6C342.3,420.1,342.1,420.2,341.9,420.2z"/>
	<path fill="#E94860" d="M73.6,527.5c-8.2,0-19.5-4.6-22.4-6.8c-3.8-2.8-5-19.4-5.2-22.7l0.1-0.5l13.3-35l28.9-63l23.7-44.8l0.1-0.1
		l10.6-14.1l0.4-0.4c5.4-2.5,14.2-7.8,14.6-11.1l0.2-0.5c5.7-7.7,13.9-12.8,14.9-13.5l28.7-24.8l0.2-0.1c8.9-6.4,19.1-13.7,34.4-13
		l2,0.1c13.7,0.6,22.9,1,29.8,12.7c6.9,11.6,9.2,15.2,9.2,15.3l0.1,0.2l12.1,34c0.2,0.6-0.1,1.3-0.7,1.5c-0.6,0.2-1.3-0.1-1.5-0.7
		l-12-33.9c-0.4-0.7-2.9-4.7-9.2-15.2c-6.3-10.6-14-10.9-27.9-11.6l-2-0.1c-14.5-0.7-24.3,6.3-32.9,12.5l-0.1,0.1l-28.6,24.8
		l-0.2,0.1c-0.1,0-8.6,5.2-14.2,12.7c-1.2,5.4-13.3,11.4-15.7,12.5l-10.3,13.7l-23.6,44.7l-28.9,62.9L48.1,498
		c0.5,7.8,2.2,19.1,4.3,20.7c3.1,2.3,17.7,8,24.6,5.9c0.6-0.2,1.3,0.1,1.5,0.8c0.2,0.6-0.1,1.3-0.8,1.5
		C76.6,527.3,75.1,527.5,73.6,527.5z"/>
	<path fill="#E94860" d="M184.6,326.7c-0.1,0-0.3,0-0.5-0.1c-0.6-0.3-0.9-1-0.6-1.6l20.5-44.8c0.3-0.6,1-0.9,1.6-0.6
		c0.6,0.3,0.9,1,0.6,1.6l-20.5,44.8C185.5,326.5,185.1,326.7,184.6,326.7z"/>
	<path fill="#E94860" d="M290.5,334c-0.2,0-0.3,0-0.5-0.1l-47.6-23.1l-43.9-15l-16.5-3.4c-0.8-0.1-14.4-2.1-28.9-5.5
		c-0.6-0.1-1-0.8-0.9-1.4c0.1-0.6,0.8-1,1.4-0.9c14.8,3.5,28.6,5.4,28.7,5.4h0.1l16.8,3.5l44,15l0.1,0l47.6,23.2
		c0.6,0.3,0.9,1,0.5,1.6C291.3,333.7,290.9,334,290.5,334z"/>
	<path fill="#E94860" d="M222.4,443.9c-0.7,0-1.2-0.5-1.2-1.2v-70.4l-23.9,21.1l-3.6,5.3c-0.4,0.5-1.1,0.7-1.7,0.3
		c-0.5-0.4-0.7-1.1-0.3-1.7l3.6-5.5l0.2-0.2l26-22.9l2,0.9v73.1C223.5,443.3,223,443.9,222.4,443.9z"/>
	<path fill="#E94860" d="M227.8,351.1c-0.4,0-0.7-0.2-1-0.5c-0.1-0.2-13.3-18.3-15.5-21.1c-1.8-2.2-8.4-6.8-10.7-8.3
		c-0.6-0.4-0.7-1.1-0.3-1.6c0.4-0.6,1.1-0.7,1.6-0.3c0.4,0.2,9,5.9,11.3,8.8c2.2,2.8,15,20.5,15.6,21.2c0.4,0.5,0.3,1.3-0.3,1.7
		C228.2,351.1,228,351.1,227.8,351.1z"/>
	<path fill="#E94860" d="M175.3,348c-0.6,0-1.1-0.4-1.2-1l-3.1-25.1l0-0.5l9.8-30c-1.6-2.1-7.9-10.4-10.9-16.4
		c-0.3-0.6,0-1.3,0.5-1.6s1.3,0,1.6,0.5c3.3,6.6,11,16.4,11,16.5l0.2,1.1l-9.8,30.4l3,24.8C176.5,347.4,176.1,347.9,175.3,348
		C175.4,348,175.4,348,175.3,348z"/>
	<path fill="#E94860" d="M150.8,401.2c-0.6,0-1-0.4-1.2-1l-12-70.9l0-0.5l6.7-23.6c0.2-0.6,0.9-1,1.5-0.8s1,0.8,0.8,1.5l-6.6,23.4
		l11.9,70.6c0.1,0.7-0.3,1.2-1,1.4C150.9,401.2,150.8,401.2,150.8,401.2z"/>
	<path fill="#E94860" d="M228.1,423.3c-0.7,0-1.2-0.5-1.2-1.1l-0.3-21.7c0-0.7,0.5-1.2,1.1-1.2c0.7,0,1.2,0.5,1.2,1.1l0.3,21.7
		C229.3,422.8,228.8,423.3,228.1,423.3L228.1,423.3z"/>
	<path fill="#E94860" d="M231.5,423.3C231.4,423.3,231.4,423.3,231.5,423.3c-0.8,0-1.2-0.6-1.2-1.3l1.5-22.1c0-0.7,0.6-1.1,1.3-1.1
		c0.7,0,1.1,0.6,1.1,1.3l-1.5,22.1C232.6,422.8,232.1,423.3,231.5,423.3z"/>
	<path fill="#E94860" d="M238.5,425c-0.7,0-1.2-0.5-1.2-1.2v-24.3c0-0.7,0.5-1.2,1.2-1.2c0.7,0,1.2,0.5,1.2,1.2v24.3
		C239.7,424.5,239.1,425,238.5,425z"/>
	<path fill="#E94860" d="M129.8,534.8c-0.7,0-1.2-0.5-1.2-1.2v-3.5l0.7-1.1l25.7-10.7l69-33.4l3.5-36.7L208,477.9
		c-0.4,0.6-1.1,0.7-1.6,0.3s-0.7-1.1-0.3-1.6l22.2-33.8l2.2,0.8l-4,42.1l-0.7,1l-69.6,33.8l-25,10.4v2.7
		C131,534.2,130.5,534.8,129.8,534.8z"/>
	<path fill="#E94860" d="M238.5,494.8c-0.2,0-0.4,0-0.6-0.2l-13.3-8l0.1-2.1l18.1-8.3l12.6-6.6l20.9-15.1l0.3-0.2l10.9-3.3l20-4.7
		c0.6-0.1,1.3,0.2,1.4,0.9c0.1,0.6-0.2,1.3-0.9,1.4l-20,4.7l-10.7,3.2l-20.8,15.1l-0.1,0.1l-12.7,6.7l-16.1,7.4l11.4,6.8
		c0.6,0.3,0.8,1,0.4,1.6C239.2,494.6,238.9,494.8,238.5,494.8z"/>
	<path fill="#E94860" d="M276.9,456.6h-49.5c-0.7,0-1.2-0.5-1.2-1.2s0.5-1.2,1.2-1.2H277c0.7,0,1.2,0.5,1.2,1.2
		S277.6,456.6,276.9,456.6z"/>
	<path fill="#E94860" d="M163,506.6c-0.4,0-0.8-0.2-1-0.5c-0.4-0.5-0.2-1.3,0.3-1.7c0,0,5.7-3.9,11.1-7.2
		c2.6-8.5,20.7-24.4,22.1-25.6l25.9-29c0.4-0.5,1.2-0.5,1.7-0.1c0.5,0.4,0.5,1.2,0.1,1.7l-26,29.1l-0.1,0.1c0,0-5,4.4-10.2,9.7
		c-8.5,8.7-10.8,13.1-11.4,15.3l-0.5,0.7c-5.5,3.3-11.3,7.4-11.4,7.4C163.5,506.5,163.2,506.6,163,506.6z"/>
	<path fill="#E94860" d="M174.5,499.1c-0.2,0-0.5,0-0.7-0.2l-13.9-9.8l-12.8-7l-0.2-0.2l-16-15.7c-0.5-0.5-0.5-1.2,0-1.7
		s1.2-0.5,1.7,0l15.9,15.6l12.8,7l13.9,9.8c0.5,0.4,0.7,1.1,0.3,1.7C175.2,498.9,174.8,499.1,174.5,499.1z"/>
	<path fill="#E94860" d="M117.6,542.1c-0.1,0-0.2,0-0.3,0c-0.6-0.2-1-0.9-0.8-1.5l4.6-14.8l-5.6-43.8l1.1-1.3l29.3-2.5l31.6-1.6
		l18.5-5.3c0.6-0.2,1.3,0.2,1.5,0.8c0.2,0.6-0.2,1.3-0.8,1.5l-18.7,5.3l-0.3,0l-31.7,1.6l-28,2.3l5.5,42.8l0,0.5l-4.7,15.1
		C118.6,541.8,118.1,542.1,117.6,542.1z"/>
	<path fill="#E94860" d="M140.4,556.7c-0.3,0-0.7-0.1-0.9-0.4c-0.4-0.5-0.3-1.2,0.2-1.7l50.9-41.1l0.3-0.1l85.1-37.6
		c0.8-0.3,19.6-8.5,23.8-9.7c4.3-1.1,13.8-1.3,14.2-1.3l1,0.5l7.1,10.9l0.1,0.2l4.2,11.8l3.9,16.3l23.4,12.8l0.5,0.6l15.1,33.7
		c0.3,0.6,0,1.3-0.6,1.6c-0.6,0.3-1.3,0-1.6-0.6l-14.9-33.3l-23.6-12.8l-0.6-0.8l-4-16.7l-4.1-11.5l-6.7-10.2c-2.2,0-9.6,0.3-13,1.2
		c-4.1,1.1-23.3,9.5-23.5,9.5l-85,37.5l-50.8,41C141,556.6,140.7,556.7,140.4,556.7z"/>
	<path fill="#E94860" d="M541.8,541.1c-0.2,0-0.5-0.1-0.7-0.2l-9-6.8l-35-19.5l-28.5-10.2l-0.3-0.1l-16.2-11.7L417.2,467
		c-0.5-0.4-0.7-1.1-0.2-1.7c0.4-0.5,1.1-0.6,1.7-0.2l34.9,25.5l16,11.7l28.4,10.2l0.2,0.1l35.1,19.6l0.1,0.1l9.1,6.9
		c0.5,0.4,0.6,1.1,0.2,1.7C542.5,540.9,542.1,541.1,541.8,541.1z"/>
	<path fill="#E94860" d="M337,411.3c-0.1,0-0.2,0-0.3,0c-0.6-0.1-1-0.8-0.9-1.4l2.5-10.6l0.6-0.8l12-6.4l41.9-15.3l44-22.6l0.1,0
		c0.1,0,15.8-6.4,25.4-9c3.4-3,5.8-5,11.3-4.5c4.9-3.1,11.6-4,21.6-2.8c10.2,1.2,31.5-3.8,36.8-8.7c0.5-0.4,1.2-0.4,1.7,0.1
		c0.4,0.5,0.4,1.2-0.1,1.7c-5.9,5.4-27.5,10.6-38.7,9.3c-9.5-1.1-16-0.3-20.4,2.7l-0.8,0.2c-4.9-0.6-6.5,0.9-10,4l-0.5,0.3
		c-9.1,2.4-24.3,8.6-25.3,8.9l-44,22.6l-0.1,0l-41.9,15.3l-11.3,6l-2.4,10C338,411,337.5,411.3,337,411.3z"/>
	<path fill="#E94860" d="M347.1,396.7c-0.1,0-0.3,0-0.4,0L286.1,375l-0.6-0.5l-4-6.6l-0.2-0.6v-1.2l-20-7.8
		c-0.6-0.2-0.9-0.9-0.7-1.5c0.2-0.6,0.9-0.9,1.5-0.7l20.7,8.1l0.8,1.1v1.7l3.7,5.9l60.2,21.5c0.6,0.2,1,0.9,0.7,1.5
		C348.1,396.4,347.6,396.7,347.1,396.7z"/>
	<path fill="#E94860" d="M356.4,426.9c-0.1,0-0.2,0-0.4,0c-0.6-0.2-1-0.9-0.8-1.5l12.7-39c0.2-0.6,0.9-1,1.5-0.8s1,0.9,0.8,1.5
		l-12.7,39C357.4,426.7,356.9,426.9,356.4,426.9z"/>
	<path fill="#E94860" d="M316.7,422.4c-0.1,0-0.3,0-0.4-0.1c-0.6-0.2-0.9-0.9-0.7-1.5l15.4-41.2l-4.4-15.7v-0.6
		c0.6-2.9,2-10.8,1.7-13.3c-0.2-2-7.4-10.9-12.4-16.6l-0.1-0.2l-7.1-12.4l-6.5-5.9l-0.2-0.3l-7.5-15.2c-0.3-0.6,0-1.3,0.5-1.6
		c0.6-0.3,1.3,0,1.6,0.5l7.4,15l6.4,5.9l0.2,0.3l7.1,12.5c2.3,2.6,12.5,14.4,12.9,17.7c0.4,3.1-1.3,11.8-1.7,13.8l4.4,15.8l0,0.7
		l-15.5,41.5C317.6,422.1,317.1,422.4,316.7,422.4z"/>
	<path fill="#E94860" d="M362.5,385.7l-68.6-21.2l-0.8-0.8l-0.7-2.1L276,346.3l-0.4-0.9l1.5-46.1c0-0.6,0.5-1.1,1.2-1.1h0
		c0.7,0,1.2,0.6,1.1,1.2l-1.5,45.6l16.3,15.1l0.3,0.5l0.6,1.8l67,20.7l14.8-37c0.2-1.4,2.2-11.2,13.5-13.7c0.6-0.1,1.3,0.2,1.4,0.9
		c0.1,0.6-0.2,1.3-0.9,1.4c-10.4,2.3-11.7,11.5-11.7,11.8l-0.1,0.3l-15.3,38L362.5,385.7z"/>
	<path fill="#E94860" d="M130.2,550.1c-0.3,0-0.5-0.1-0.8-0.3c-0.5-0.4-0.6-1.1-0.1-1.7l8.8-10.8c8.3-10.2,15.5-7.9,17.2-7.1
		l16.7-1.6c0.7,0,1.2,0.4,1.3,1c0,0.7-0.4,1.2-1,1.3l-17,1.7l-0.7-0.1c-0.2-0.1-6.5-3.4-14.5,6.4l-8.8,10.8
		C130.8,549.9,130.5,550.1,130.2,550.1z"/>
	<path fill="#E94860" d="M365.6,442.7c-0.2,0-0.4,0-0.6-0.2c-0.6-0.3-0.8-1-0.4-1.6l5.8-9.6l3.6-7.9l0.3-0.4l21.8-19.6l0.2-0.1
		l7.9-4.2l9.9-4.4l2.9-3.1l0.6-0.3l14.2-3.8l25.1-7.9l30-12.5l6-3.8l0.6-0.2h9l13.7-6.7l0.5-0.1h7.8l13.8-7.2l9.3-3.5
		c0.6-0.2,1.3,0.1,1.5,0.7c0.2,0.6-0.1,1.3-0.7,1.5l-9.3,3.5l-13.8,7.2l-0.5,0.1H517l-13.7,6.7l-0.5,0.1h-8.9l-5.9,3.7l-30.3,12.5
		l-25.2,8l-13.8,3.7l-2.8,3.1l-0.4,0.3l-10.1,4.5l-7.7,4.1L376,424.5l-3.6,7.9l-5.9,9.7C366.3,442.5,365.9,442.7,365.6,442.7z"/>
	<path fill="#E94860" d="M287.7,598.9c-0.1,0-0.1,0-0.2,0c-0.6-0.1-1-0.8-0.9-1.4l5.8-27.3l0.1-0.3l5.9-10.9l7-15l10.7-28.1l4-11
		l2.3-11.9l13.6-35.4l4.7-10.7l5.4-15.3c0.2-0.6,0.9-1,1.5-0.7c0.6,0.2,1,0.9,0.7,1.5l-5.4,15.5l-4.7,10.8l-13.5,35.2l-2.3,11.9
		l-4,11.1l-10.8,28.2l-7.2,15.1l-5.9,10.7l-5.7,27.1C288.7,598.5,288.2,598.9,287.7,598.9z"/>
	<path fill="#E94860" d="M261.6,382.8c-0.2,0-0.3,0-0.5-0.1c-0.6-0.3-0.9-1-0.6-1.6l5.7-12c0.3-0.6,1-0.9,1.6-0.6s0.9,1,0.6,1.6
		l-5.7,12C262.4,382.5,262,382.8,261.6,382.8z"/>
	<path fill="#E94860" d="M331.9,627.1C331.8,627.1,331.8,627.1,331.9,627.1c-0.8,0-1.2-0.6-1.2-1.3l1.3-14.9c0-0.7,0.6-1.1,1.3-1.1
		c0.7,0,1.1,0.6,1.1,1.3l-1.3,14.9C333,626.6,332.5,627.1,331.9,627.1z"/>
	<path fill="#E94860" d="M192.7,582.4L192.7,582.4c-0.7,0-1.2-0.5-1.2-1.2c0-0.2,0.1-6.4,3.7-14.5c-1.2-12.8,10.5-29.7,11.4-30.9
		l12.7-22l0.1-0.2l12.7-15.2c0.4-0.5,1.2-0.6,1.7-0.1c0.5,0.4,0.6,1.2,0.1,1.7L221.2,515l-12.7,22.1c-0.1,0.2-12.4,17.5-10.9,29.6
		l-0.1,0.6c-3.5,7.8-3.6,13.8-3.6,13.8C193.9,581.9,193.3,582.4,192.7,582.4z"/>
	<path fill="#E94860" d="M273.1,279.4c-0.3,0-0.5-0.1-0.8-0.3l-50.7-43c-0.5-0.4-0.6-1.2-0.1-1.7s1.2-0.6,1.7-0.1l50.7,43
		c0.5,0.4,0.6,1.2,0.1,1.7C273.8,279.3,273.5,279.4,273.1,279.4z"/>
	<path fill="#E94860" d="M468.3,257.9l-1.8-0.5l-14.9-39.9c-0.2-0.6,0.1-1.3,0.7-1.5s1.3,0.1,1.5,0.7l14.4,38.4l24-17.9
		c0.5-0.4,1.3-0.3,1.7,0.2s0.3,1.3-0.2,1.7L468.3,257.9z"/>
	<path fill="#E94860" d="M381.8,374c-0.2,0-0.4,0-0.6-0.1c-0.6-0.3-0.8-1-0.4-1.6l5.7-10.1l7.8-13.3l0.2-0.2l14.2-13.8l5.6-9.3
		l-33.6-29l-0.4-1c3.8-33.3,0-47.6,0-47.7l0-0.2l-1.4-33c0-0.7,0.5-1.2,1.1-1.2c0.7,0,1.2,0.5,1.2,1.1l1.4,32.9
		c0.4,1.6,3.6,15.8,0,47.8l33.9,29.3l0.2,1.5l-6.2,10.2l-0.2,0.2l-14.1,13.8l-7.8,13.2l-5.7,10.1C382.6,373.8,382.2,374,381.8,374z"
		/>
	<path fill="#E94860" d="M498,471.7l-36.5-10.5h-17.6l-0.4-0.1c-0.2-0.1-19.7-8-31.4-13.7c-13.2,0.5-23.7-7.6-25.2-8.8l-24.6-8.8
		L258,381.2l-2.4,4.5c-0.3,0.6-1,0.8-1.6,0.5c-0.6-0.3-0.8-1-0.5-1.6l2.9-5.5l1.5-0.5l105.3,49l24.7,8.8l0.4,0.2
		c0.1,0.1,10.8,9,24.1,8.4l0.6,0.1c10.9,5.4,29.1,12.8,31.3,13.7h17.6l0.3,0l34.2,9.8l-20.4-47c-0.2-0.6,0-1.3,0.6-1.6
		c0.6-0.2,1.3,0,1.6,0.6l21.4,49.3L498,471.7z"/>
	<path fill="#E94860" d="M486.7,461.3h-25c-0.7,0-1.2-0.5-1.2-1.2c0-0.7,0.5-1.2,1.2-1.2h24.8l43.4-10.6l28.3-7.9
		c0.6-0.2,1.3,0.2,1.5,0.8s-0.2,1.3-0.8,1.5l-28.4,7.9L487,461.2L486.7,461.3z"/>
	<path fill="#E94860" d="M559.5,492.6c0,0-0.1,0-0.1,0l-30.2-3.1l-33.4-4.4l-1-1.4l2.4-13.3l2.2-13.9c0.1-0.7,0.7-1.1,1.4-1
		c0.7,0.1,1.1,0.7,1,1.4l-2.2,13.9l-2.2,12.1l32.2,4.3l30.1,3.1c0.7,0,1.1,0.7,1,1.3C560.7,492.2,560.1,492.6,559.5,492.6z"/>
	<path fill="#E94860" d="M385.4,460.8c-0.4,0-0.9-0.2-1.1-0.7c-0.3-0.6,0-1.3,0.6-1.6l26.6-12.3c0.6-0.3,1.3,0,1.6,0.6
		c0.3,0.6,0,1.3-0.6,1.6l-26.6,12.3C385.8,460.8,385.6,460.8,385.4,460.8z"/>
	<path fill="#E94860" d="M445.9,447.4h-6.6c-0.7,0-1.2-0.5-1.2-1.2c0-0.7,0.5-1.2,1.2-1.2h6.4l26.4-8.8l10.4-2.2l9.9-5l0.4-0.1
		l13.1-1.7h0.4l37.6,6.8c0.7,0.1,1.1,0.7,1,1.4c-0.1,0.7-0.7,1-1.4,1l-37.4-6.8l-12.7,1.7l-9.8,5l-0.3,0.1l-10.5,2.2l-26.4,8.8
		L445.9,447.4z"/>
	<path fill="#E94860" d="M506.1,429.5c-0.3,0-0.7-0.1-0.9-0.4c-0.4-0.5-0.4-1.2,0.1-1.7l18.5-15.7l14.4-20.9
		c0.4-0.5,1.1-0.7,1.7-0.3c0.5,0.4,0.7,1.1,0.3,1.7l-14.5,21l-0.2,0.2l-18.7,15.8C506.7,429.4,506.4,429.5,506.1,429.5z"/>
	<path fill="#E94860" d="M504.4,552.3c-0.2,0-0.5-0.1-0.7-0.2c-0.5-0.4-0.6-1.1-0.2-1.7l18.1-23.4c0.6-3.6,6.7-39.5,8.5-53.1
		c0.4-21.7-1.4-35.9-6.2-47.4c-7.7-6.7-11-13.6-12.6-18.2c-1.4-4.3-1.4-7.5-1.4-8.5l-17.4-35.1L477.3,348l-14.5-0.5
		c-0.7,0-1.1-0.6-1.1-1.2c0-0.7,0.6-1.2,1.2-1.1l14.9,0.6l0.8,0.4l15.6,17.2l0.2,0.3l17.6,35.5l0.1,0.6c0,0-0.2,3.3,1.3,8
		c1.4,4.4,4.7,10.9,12,17.2l0.3,0.4c5,11.9,7,26.4,6.5,48.7v0.1c-1.9,14.3-8.5,53.2-8.5,53.6l-0.2,0.5l-18.3,23.7
		C505.1,552.2,504.8,552.3,504.4,552.3z"/>
	<path fill="#E94860" d="M486,339.8c-0.1,0-0.2,0-0.3,0c-0.6-0.1-1-0.8-0.9-1.4l1.5-6.5l-31.5-44.2c-0.4-0.5-0.2-1.3,0.3-1.7
		c0.5-0.4,1.3-0.2,1.7,0.3l31.9,44.7l0.2,1l-1.7,7C487,339.5,486.5,339.8,486,339.8z"/>
	<path fill="#E94860" d="M498.3,471.8c-0.3,0-0.6-0.1-0.8-0.3c-0.5-0.4-0.5-1.2,0-1.7l8.8-9.3c0.4-0.5,1.2-0.5,1.7,0s0.5,1.2,0,1.7
		l-8.8,9.3C499,471.6,498.7,471.8,498.3,471.8z"/>
	<path fill="#E94860" d="M409.5,429.5c-0.4,0-0.9-0.2-1.1-0.7c-0.3-0.6,0-1.3,0.6-1.6l61-28.8c0.6-0.3,1.3,0,1.6,0.6
		c0.3,0.6,0,1.3-0.6,1.6L410,429.4C409.8,429.5,409.6,429.5,409.5,429.5z"/>
	<path fill="#E94860" d="M406.2,485.7c-0.3,0-0.6-0.1-0.9-0.4c-0.5-0.5-0.4-1.2,0-1.7l28.9-27.8l11.2-27.9l-24.9,14.5l-3.8,5.7
		c-0.4,0.5-1.1,0.7-1.7,0.3c-0.5-0.4-0.7-1.1-0.3-1.7l3.9-5.9l0.4-0.4l28.1-16.4l1.7,1.5l-12.5,31.4l-0.3,0.4l-29.1,28
		C406.7,485.6,406.5,485.7,406.2,485.7z"/>
	<path fill="#E94860" d="M447.8,426.3c-0.5,0-0.9-0.3-1.1-0.7c-0.2-0.6,0-1.3,0.6-1.6l27-11.2c0.6-0.2,1.3,0,1.6,0.6
		c0.2,0.6,0,1.3-0.6,1.6l-27,11.2C448.1,426.3,447.9,426.3,447.8,426.3z"/>
	<path fill="#E94860" d="M196.4,583.7c-0.3,0-0.6-0.1-0.9-0.3c-0.5-0.5-0.5-1.2,0-1.7l11.8-11.7l56.1-43.6c0.5-0.4,1.2-0.3,1.7,0.2
		c0.4,0.5,0.3,1.3-0.2,1.7l-56.1,43.5l-11.7,11.5C197,583.6,196.7,583.7,196.4,583.7z"/>
	<path fill="#E94860" d="M258.2,507.8c-0.3,0-0.6-0.1-0.8-0.3c-0.5-0.4-0.5-1.2-0.1-1.7l11.5-13.1c0.4-0.5,1.2-0.5,1.7-0.1
		c0.5,0.4,0.5,1.2,0.1,1.7l-11.5,13.1C258.9,507.7,258.5,507.8,258.2,507.8z"/>
	<path fill="#E94860" d="M309.1,509.8c-0.4,0-0.8-0.2-1-0.5l-30.3-45.8l-31.2,27.7c-0.5,0.4-1.2,0.4-1.7-0.1s-0.4-1.2,0.1-1.7
		l32.2-28.7l1.8,0.2l31.1,47c0.4,0.5,0.2,1.3-0.3,1.6C309.5,509.7,309.3,509.8,309.1,509.8z"/>
	<path fill="#E94860" d="M439.6,278.6c0,0-1.3-2.3-10.7-2.8l-0.5-0.1c-8-3.9-10.1-4.1-10.2-4.1l0,0h-0.1l-35.2-4.7h-13.4l-0.4,0
		l-19.6-7.1l-54-12.5l-16.6,6.4l-25.6,9.7c-0.6,0.2-1.3-0.1-1.5-0.7c-0.2-0.6,0.1-1.3,0.7-1.5l25.6-9.7l16.9-6.5l0.7,0l54.5,12.5
		l0.1,0l19.5,7.1h13.5l35.2,4.7c0.6,0,3.1,0.5,10.8,4.3c10.7,0.6,12.4,3.5,12.6,4.4l-2.3,0.6C439.6,278.5,439.6,278.5,439.6,278.6z"
		/>
</g>
<g id="petites_rues_2_">
	
		<path fill="#464242" stroke="#E94860" stroke-width="3.556" stroke-linecap="square" stroke-linejoin="bevel" stroke-miterlimit="10" d="
		M153.3,256.9"/>
	<path fill="#E94860" d="M415.5,495.5c-0.1,0-0.3,0-0.4-0.2c-0.2-0.2-0.2-0.5,0-0.7l15.7-14.2c0.2-0.2,0.5-0.2,0.7,0
		c0.2,0.2,0.2,0.5,0,0.7l-15.7,14.2C415.7,495.4,415.6,495.5,415.5,495.5z"/>
	<path fill="#E94860" d="M408.7,424.9L408.7,424.9c-0.3,0-6.8,0-11.8-2.5c-3.8-1.8-7.1-4.5-9.6-6.4c-0.9-0.7-1.6-1.2-2.1-1.7
		l-0.8-0.6c-3.2-2.2-10.6-7.5-12.3-9.4c-1.2-1.4-12-4.7-18.9-6.7c-0.3-0.1-0.4-0.3-0.3-0.6s0.3-0.4,0.6-0.3
		c1.8,0.5,17.6,4.9,19.4,6.9c1.6,1.8,9.2,7.2,12.1,9.2l0.8,0.6c0.6,0.4,1.3,1,2.2,1.7c2.4,1.9,5.7,4.5,9.4,6.3
		c4.9,2.3,11.4,2.4,11.4,2.4c0.3,0,0.5,0.2,0.5,0.5C409.2,424.7,409,424.9,408.7,424.9z"/>
	<polygon fill="#E94860" points="514.5,561.8 488.8,536.2 476.9,515.7 468.5,503.5 457.5,487.2 451.4,477.8 443.5,460.3 
		444.4,459.9 452.3,477.4 458.4,486.7 469.3,502.9 477.8,515.1 489.6,535.6 515.2,561 	"/>
	
		<rect x="376.3" y="593.5" transform="matrix(-0.8051 -0.5931 0.5931 -0.8051 376.1153 1311.5433)" fill="#E94860" width="54.5" height="1"/>
	<polygon fill="#E94860" points="443.5,602.1 436.7,588.4 419.1,572.2 395,543.5 373,518.8 373,518.7 365.8,491.5 364.7,478.9 
		365.7,478.8 366.9,491.4 373.9,518.4 395.8,542.8 419.8,571.6 437.5,587.8 437.5,587.9 444.4,601.6 	"/>
	
		<rect x="375.2" y="473.1" transform="matrix(-0.5934 -0.8049 0.8049 -0.5934 208.5302 1074.5573)" fill="#E94860" width="1" height="23.1"/>
	
		<rect x="382.1" y="486.4" transform="matrix(-0.3709 -0.9287 0.9287 -0.3709 60.1809 1040.8673)" fill="#E94860" width="1" height="27.3"/>
	<polygon fill="#E94860" points="372.1,487.3 360,474.5 334.5,464.6 334.9,463.7 360.6,473.6 360.7,473.7 372.8,486.6 	"/>
	<polygon fill="#E94860" points="315.6,492 296.8,491 293.9,486.5 294.5,469.1 295.5,469.1 294.9,486.2 297.4,490 315.7,491 	"/>
	<polygon fill="#E94860" points="279,531.5 278.1,531 287,514.5 269.9,505.8 262,518.4 261.2,517.9 269.6,504.5 288.4,514.1 	"/>
	<path fill="#E94860" d="M487.8,427.5c-4.4-2.7-6.1-10.7-6.5-12.9l-6,1.6l-0.2-1l7.1-1.9l0.1,0.6c0,0.1,1.5,10,6.1,12.8L487.8,427.5
		z"/>
	<polygon fill="#E94860" points="465,560.3 464.3,559.6 479.4,543.8 466.2,532.7 444.2,510.1 435.6,500.4 422,489.7 416.4,483.3 
		417.1,482.6 422.7,489.1 436.3,499.7 444.9,509.5 466.9,532 480.8,543.7 	"/>
	<path fill="#E94860" d="M419.8,572.3l-0.7-0.8l47.1-39.6c0.5-0.5,6.6-6.6,16.5-7.7h0.1l0.1,0l32.1,12.9l-0.4,1l-32-12.9
		c-9.6,1.1-15.6,7.4-15.7,7.4l0,0L419.8,572.3z"/>
	<polygon fill="#E94860" points="377.9,598.3 339.7,597.3 366.3,555.3 367.2,555.8 341.5,596.3 378,597.2 	"/>
	<path fill="#E94860" d="M326.3,602.5l-3.8-9.5l1.9-17.2l17.1,21.2L326.3,602.5z M323.6,592.9l3.4,8.3l12.8-4.7l-14.6-18.2
		L323.6,592.9z"/>
	
		<rect x="324.7" y="605.8" transform="matrix(-0.6738 -0.7389 0.7389 -0.6738 105.4818 1259.1698)" fill="#E94860" width="12" height="1"/>
	<polygon fill="#E94860" points="219.2,590.5 218.5,589.7 252.1,557.4 259.8,538.4 265.2,532.2 265.9,532.9 260.7,538.9 252.9,558 	
		"/>
	<polygon fill="#E94860" points="166.1,572.4 165.5,555.1 184,526.5 184.8,527.1 166.5,555.4 167.1,572.3 	"/>
	<polygon fill="#E94860" points="324.1,610.1 318.2,586.8 306.5,588.6 289.4,590.6 289.2,589.6 306.3,587.6 318.9,585.7 
		325.1,609.9 	"/>
	<path fill="#E94860" d="M318.6,586.7c-0.1,0-0.2,0-0.3-0.1c-0.2-0.1-0.3-0.5-0.1-0.7l6.1-9l7.1-21.5l6.3-46.5
		c0-0.3,0.3-0.5,0.6-0.4c0.3,0,0.5,0.3,0.4,0.6l-6.3,46.5v0.1l-7.2,21.6l0,0.1l-6.1,9.1C318.9,586.6,318.8,586.7,318.6,586.7z"/>
	<path fill="#E94860" d="M298.4,539.1c-0.2,0-0.5-0.2-0.5-0.5c0-0.3,0.2-0.5,0.5-0.6l36.2-3.4l21.3-9.1c0.2-0.1,0.6,0,0.7,0.3
		c0.1,0.2,0,0.6-0.3,0.7l-21.4,9.1l-0.1,0L298.4,539.1L298.4,539.1z"/>
	<path fill="#E94860" d="M485.9,572.6c-0.1,0-0.3,0-0.4-0.2L472,556.2l-45-54.6l-26.7-27.5l-0.1-0.1l-5.3-9.5l-5-6.7
		c-0.2-0.2-0.1-0.5,0.1-0.7c0.2-0.2,0.5-0.1,0.7,0.1l5.1,6.8l5.2,9.5l26.7,27.5l45,54.7l13.5,16.2c0.2,0.2,0.1,0.5,0,0.7
		C486.2,572.5,486,572.6,485.9,572.6z"/>
	<path fill="#E94860" d="M459.4,586.6c-0.1,0-0.2,0-0.3-0.1l-11-8.3l-0.1-0.1l-28.1-48.3c-0.4-0.5-3.7-4.4-3.7-7.4
		c0-2.3-5-10.9-6.9-14.1l-0.1-0.3v-2.9c0-0.3,0.2-0.5,0.5-0.5c0.3,0,0.5,0.2,0.5,0.5v2.8c1,1.7,7,11.6,7,14.5c0,2.7,3.4,6.8,3.4,6.8
		l0,0.1l28.1,48.2l10.9,8.2c0.2,0.2,0.3,0.5,0.1,0.7C459.8,586.6,459.6,586.6,459.4,586.6z"/>
	<path fill="#E94860" d="M359.3,598.3c-0.1,0-0.2,0-0.2-0.1c-0.2-0.1-0.3-0.5-0.2-0.7c1.7-2.8,0.5-28.8,0-39.9l0-0.7
		c-0.5-11.5,3.4-13.7,5.8-13.9c0.8-0.1,1.5,0,2.6,0.2s2.6,0.5,4.9,0.6c4.5,0.3,9.7,5.5,9.9,5.7c0.1,0.1,7.9,9.4,17.4,13.7
		c9.8,4.5,11.7,9.7,11.7,9.9l8.8,24.3c0.1,0.3,0,0.6-0.3,0.7c-0.3,0.1-0.6,0-0.7-0.3l-8.8-24.3c0,0-1.8-5-11.2-9.3
		c-9.7-4.4-17.6-13.8-17.7-13.9c0,0-5.1-5.1-9.3-5.4c-2.3-0.1-3.9-0.4-5-0.7c-1-0.2-1.7-0.3-2.3-0.2c-2,0.2-5.4,2.2-4.9,12.8l0,0.7
		c0.9,19.5,1.5,37.8-0.1,40.5C359.6,598.3,359.4,598.3,359.3,598.3z"/>
	<path fill="#E94860" d="M526,552.5c-0.1,0-0.3,0-0.4-0.2l-7.4-9.1l-23.4-32.4l-25.7-32.8l0-0.1l-7.8-17.7l-6.4-17l-7.9-15.3
		c-0.1-0.2,0-0.6,0.2-0.7c0.2-0.1,0.6,0,0.7,0.2l7.9,15.4l6.4,17l7.8,17.7l25.7,32.7l23.4,32.4l7.3,9c0.2,0.2,0.1,0.5-0.1,0.7
		C526.2,552.5,526.1,552.5,526,552.5z"/>
	<path fill="#E94860" d="M455.7,487.9c-6.6,0-13.6-9-14.1-9.7l-13.8-14.6l-11.5-14.9l0.8-0.6l11.5,14.9l13.9,14.6
		c0.1,0.1,8.8,11.4,15.3,8.9l0.4,1C457.3,487.7,456.5,487.9,455.7,487.9z"/>
	<path fill="#E94860" d="M384.5,450.8c-0.1,0-0.2,0-0.3-0.1c-0.2-0.1-0.3-0.5-0.1-0.7l12.5-19.3l1.5-39l-5.3-11.1
		c-0.1-0.2,0-0.6,0.2-0.7c0.2-0.1,0.6,0,0.7,0.2l5.4,11.2l0,0.2l-1.5,39.3l-0.1,0.2L385,450.6C384.9,450.7,384.7,450.8,384.5,450.8z
		"/>
	<path fill="#E94860" d="M406.2,408.9c0,0-0.1,0-0.2,0l-9.5-4.3l-11-8.8l-5-5.9l-19.5-5.4c-0.3-0.1-0.4-0.3-0.3-0.6s0.3-0.4,0.6-0.3
		l19.6,5.5l0.2,0.1l5.1,6l10.8,8.7l9.3,4.2c0.2,0.1,0.4,0.4,0.2,0.7C406.6,408.8,406.4,408.9,406.2,408.9z"/>
	<polygon fill="#E94860" points="519.9,527.6 475.3,450.5 469.1,437.5 458.4,421.5 437.9,386.6 416.3,346.5 417.1,346 438.8,386.1 
		459.2,420.9 470,437 476.2,450.1 520.8,527.1 	"/>
	<polygon fill="#E94860" points="502.3,396.5 501.5,396 505.6,389.2 524.3,357.1 532.3,329.7 539.2,327.5 539.4,328.4 533.1,330.5 
		525.3,357.5 525.2,357.5 506.5,389.7 	"/>
	<path fill="#E94860" d="M461.2,346.8c-2.4,0-5.5-4.4-9.1-9.7c-0.3-0.4-0.6-0.9-0.8-1.2c-3.8-0.4-6.4-1.9-7.9-4.4
		c-2.3-3.9-1.2-9.6,0.5-13.5c2.6-5.8,10.7-14.2,14.2-15.6c3.1-1.1,10.6-1.8,13.7-2c0.4,0,0.7,0,1-0.1c1.3-0.1,3.8-1.5,5.9-2.8
		c1.5-0.9,2.9-1.7,3.9-2c2.1-0.8,7.8-6.3,9.8-11.7c2.1-5.6,6.7-9.2,6.8-9.3l0.6,0.8c0,0-4.5,3.6-6.5,8.9c-2,5.5-7.8,11.4-10.4,12.4
		c-0.9,0.3-2.3,1.1-3.8,2c-2.4,1.4-4.8,2.8-6.3,2.9c-0.2,0-0.6,0-1,0.1c-3.1,0.3-10.5,0.9-13.5,2c-3.3,1.2-11.2,9.5-13.7,15
		c-1.6,3.5-2.7,8.9-0.6,12.6c1.3,2.3,3.8,3.6,7.3,3.9h0.2l0.1,0.2c0.3,0.4,0.6,0.9,1,1.4c2.3,3.5,6.2,9.2,8.3,9.3L461.2,346.8z"/>
	<path fill="#E94860" d="M451.1,335.5c-0.1-0.2-2-6.4,1-11.4c1.8-2.9,4.8-4.8,9-5.6c11.3-2.1,15.9-0.8,17.4-0.2l1.5-3.2l23.5-1.3
		l3,1.2l4.8-2.7l0.5,0.9l-5.2,2.9l-3.3-1.3l-22.7,1.2l-1.8,3.7l-0.5-0.4c0,0-3.6-2.4-17.1,0.1c-3.9,0.7-6.8,2.4-8.4,5.1
		c-2.8,4.6-0.9,10.6-0.9,10.6L451.1,335.5z"/>
	<path fill="none" stroke="#E94860" stroke-width="2.1336" stroke-miterlimit="10" d="M445,332.8"/>
	<path fill="#E94860" d="M387.5,262.1l-1-0.1c0.5-3.2,2.9-6.5,7.2-10l0.6,0.8C390.2,256.1,388,259.2,387.5,262.1z"/>
	<path fill="#E94860" d="M394.6,306.6l-1-0.2l3-11.5l7.9-10.1l3.9-15.7l6.8-23.3l4.1-5.2c-3.9,1.2-14.2,4.5-16.6,5.9
		c-3,1.7-8.3,6.4-8.4,6.4l-0.3,0.3l-13.3-11.6l0.7-0.8l12.6,11c1.2-1.1,5.5-4.8,8.2-6.2c3.1-1.7,17.8-6.2,18.4-6.4l1.6-0.5l-6,7.7
		l-6.7,23l-4,15.9l0,0.1l-7.9,10L394.6,306.6z"/>
	<polygon fill="#E94860" points="444.9,240.1 436,235.7 421,240 420.7,239.1 436.1,234.7 445.1,239 459.6,237.5 459.8,238.5 	"/>
	<path fill="#E94860" d="M447.4,421.5c-0.2,0-0.4-0.1-0.5-0.3l-4-8.6l-6.6-8.6L418,365.3l-5.1-11.1v-0.4l3.3-7.5l-0.9-21l0.1-0.3
		c0.6-1,14.6-23.4,22-26c4.2-1.5,5.6-4,5.6-4l0.3-0.3l9.6-2c4.4-1.7,5.6-2,6.1-1.9c0.7-0.1,4.2-0.9,7.7-1.7c4.8-1.1,10.2-2.3,12-2.5
		c0.3,0,0.7-0.1,1.1-0.1c3.9-0.5,11.9-1.6,22.3,0.1c0.3,0,0.5,0.3,0.4,0.6c0,0.3-0.3,0.5-0.6,0.4c-10.2-1.8-18.2-0.7-22-0.1
		c-0.4,0-0.8,0.1-1.1,0.1c-1.8,0.2-7.1,1.4-11.9,2.5c-6,1.4-7.6,1.7-8.1,1.7c-0.5,0-3.2,1-5.5,1.9h-0.1l-9.4,2
		c-0.4,0.7-2.1,2.9-6,4.3c-6.8,2.4-20.2,23.6-21.4,25.4l0.9,21l0,0.2l-3.3,7.4l5,10.9l18.3,38.7l6.6,8.6l4,8.7
		c0.1,0.2,0,0.6-0.2,0.7C447.5,421.5,447.5,421.5,447.4,421.5z"/>
	<path fill="#E94860" d="M285.4,294.8c-0.1,0-0.3,0-0.4-0.1c-0.2-0.2-0.2-0.5,0-0.7l9.8-9.1l-8.8-35.3c0-0.3,0.1-0.6,0.4-0.6
		c0.3,0,0.6,0.1,0.6,0.4l8.8,35.6l-0.1,0.5l-10,9.3C285.7,294.7,285.5,294.8,285.4,294.8z"/>
	<path fill="#E94860" d="M325.4,304.9c-0.2,0-0.5-0.2-0.5-0.4l-0.9-5.6h-5.6l-0.3-0.1l-7.7-6.2l-15.3-7.2c-0.2-0.1-0.4-0.4-0.2-0.7
		c0.1-0.2,0.4-0.4,0.7-0.2l15.4,7.2l0.1,0l7.6,6.2h5.8l0.5,0.4l1,6C325.9,304.7,325.7,304.9,325.4,304.9
		C325.5,304.9,325.5,304.9,325.4,304.9z"/>
	<path fill="#E94860" d="M255.8,370.3c-0.1,0-0.2,0-0.2,0c-0.2-0.1-0.3-0.4-0.2-0.7c4.8-8.5,7.9-31.4,8.2-34.1
		c-2-2.1-19.7-20.5-22.4-25.4c-1-1.7-0.8-3.5,0.5-5.1c2-2.5,6.1-4,7.3-3.8c1,0.1,10.5-3.6,18.9-7l13.8-13.6l-2.9-5.6v-0.5l3.1-6.3
		l0.2-0.2c0.1,0,7.8-4.2,16.3-9.8l0.5,0c4.9,2.3,30.1,2.4,30.4,2.4l0.2,0l7.4,3.3l9.6-6.6l0.8,0.5l-5.8,41.7l-1.3,7v9.1l0,0.2
		l-4.9,8.4v8.5c0,0.3-0.2,0.5-0.5,0.5c-0.3,0-0.5-0.2-0.5-0.5v-8.7l0-0.2l4.9-8.4v-9.1l1.3-7.1l5.6-40.4l-8.8,6.1l-0.5,0l-7.5-3.3
		c-2,0-24.9-0.1-30.4-2.3c-7.8,5-14.9,8.9-16,9.6l-2.9,5.9l3,5.7l-0.1,0.6l-14.2,13.9l-0.1,0.1c-4.2,1.8-18.2,7.5-19.6,7.1
		c-0.6-0.1-4.5,1-6.3,3.4c-1,1.3-1.1,2.6-0.4,4c2.7,4.9,22.2,25.2,22.4,25.4l0.1,0.4c-0.1,1-3.2,25.5-8.4,34.6
		C256.1,370.2,255.9,370.3,255.8,370.3z"/>
	<path fill="#E94860" d="M324.1,333.2c-0.1,0-0.3,0-0.4-0.2c-0.2-0.2-0.1-0.5,0-0.7l10.7-8.8l23.8-11.3c0,0,3.7-1.8,6-4.4
		c1-1.1,1.2-2.3,1.4-3.8c0.3-2.1,0.8-4.7,3.4-8.2c4.2-5.8,3-8.7,3-8.8l0-0.1l-3.1-21.3c0-0.3,0.1-0.5,0.4-0.6c0.3,0,0.5,0.1,0.6,0.4
		l3.1,21.2c0.2,0.6,1.1,3.9-3.2,9.7c-2.5,3.4-2.9,5.9-3.2,7.8c-0.3,1.6-0.5,2.9-1.7,4.3c-2.5,2.9-6.2,4.6-6.4,4.7l-23.7,11.3
		l-10.5,8.6C324.4,333.2,324.3,333.2,324.1,333.2z"/>
	<path fill="#E94860" d="M357.1,261.7L357.1,261.7c-0.3,0-0.5-0.3-0.5-0.6c0.2-1.2,0.4-2.7,0.6-4.3c0.9-6.2,2.2-14.6,2.2-21.5
		c0-7.9-0.7-14.9-2.2-22.7c0-0.3,0.1-0.5,0.4-0.6c0.3,0,0.5,0.1,0.6,0.4c1.6,7.8,2.3,14.9,2.3,22.9c0,7-1.3,15.5-2.2,21.7
		c-0.2,1.6-0.5,3-0.6,4.3C357.6,261.5,357.4,261.7,357.1,261.7z"/>
	<path fill="#E94860" d="M329.4,254.3c-0.1,0-0.3,0-0.4-0.2l-19-24.6l0-0.1l-6.2-15.2c-0.1-0.2,0-0.6,0.3-0.7c0.2-0.1,0.6,0,0.7,0.3
		l6.2,15.2l18.9,24.5c0.2,0.2,0.1,0.5-0.1,0.7C329.6,254.2,329.5,254.3,329.4,254.3z"/>
	<path fill="#E94860" d="M280,240.2c-0.9,0-2.1-0.1-3.5-0.6c-2.4-0.9-5.9-3-8.7-8.6c-0.1-0.2,0-0.6,0.2-0.7c0.2-0.1,0.6,0,0.7,0.2
		c5,10,12.2,8.6,12.3,8.6h0.1c0.3,0,6.5-0.4,8.2,0c1.3,0.2,15.6-3.6,24.4-6c0.3-0.1,0.6,0.1,0.6,0.3c0.1,0.3-0.1,0.6-0.3,0.6
		c-3.9,1-23.1,6.4-24.8,6c-1.3-0.3-6.1-0.1-7.9,0C281,240.1,280.6,240.2,280,240.2z"/>
	<path fill="#E94860" d="M462.8,284.7c-0.2,0-0.5-0.2-0.5-0.4c0-0.1-1.5-13.1-6.1-18.2c-3.2-3.6-7.2-6.1-10.2-8
		c-1.3-0.9-2.4-1.5-3-2.1c-1.7-1.5-5-4.8-5.7-5.5h-8.8c-0.3,0-0.5-0.2-0.5-0.5s0.2-0.5,0.5-0.5h9l0.4,0.1c0,0,3.9,3.9,5.9,5.6
		c0.6,0.5,1.6,1.1,2.9,2c2.8,1.8,7.1,4.5,10.4,8.2c4.8,5.4,6.3,18.3,6.4,18.8c0,0.3-0.2,0.5-0.4,0.6
		C462.9,284.7,462.9,284.7,462.8,284.7z"/>
	<path fill="#E94860" d="M359.9,242.8L359.9,242.8l-20.9-2.7l-0.4-0.6l2.8-11.3c0-0.3,0.3-0.4,0.6-0.4c0.3,0,0.4,0.3,0.4,0.6
		l-2.7,10.7l20.3,2.7c0.3,0,0.5,0.3,0.4,0.6C360.4,242.6,360.2,242.8,359.9,242.8z"/>
	<path fill="#E94860" d="M193.1,308.1l-0.8-0.1l-10.6-16.6c-0.1-0.2-0.1-0.6,0.1-0.7c0.2-0.1,0.6-0.1,0.7,0.1l10.3,16.2l20.3-16.5
		l0.1,0l22.4-10.1l14.2-21.9c0.1-0.2,0.5-0.3,0.7-0.1c0.2,0.1,0.3,0.5,0.1,0.7l-14.3,22l-0.2,0.2l-22.5,10.1L193.1,308.1z"/>
	<path fill="#E94860" d="M171.2,391.2c-0.1,0-0.3,0-0.4-0.2c-1.4-1.7-9.7-8.7-11.6-8.9c-2.3-0.2-12.6-12.7-14.8-15.5l-31.7-10.9
		l0.1-1l58.7-8.6c0.3,0,0.5,0.1,0.6,0.4c0,0.3-0.1,0.5-0.4,0.6l-56.6,8.3l29.8,10.2l0.2,0.1c6,7.4,13,15.1,14.2,15.2
		c2.5,0.2,11.1,7.8,12.3,9.3c0.2,0.2,0.1,0.5,0,0.7C171.5,391.1,171.4,391.2,171.2,391.2z"/>
	<path fill="#E94860" d="M222.4,370.1c-0.2,0-0.3-0.1-0.4-0.2c-0.1-0.2,0-0.6,0.2-0.7c3.9-2.1,14.1-8.5,14.8-12
		c1-4.4-1.7-17.6-1.8-17.7c0-0.3,0.1-0.5,0.4-0.6c0.3,0,0.5,0.1,0.6,0.4c0.1,0.6,2.8,13.6,1.7,18.1c-1,4.7-14.7,12.4-15.4,12.7
		C222.5,370.1,222.4,370.1,222.4,370.1z"/>
	<path fill="#E94860" d="M82.5,469.6c0,0-0.1,0-0.2,0c-0.3-0.1-0.4-0.4-0.3-0.7c0.1-0.2,9.4-25.5,9.6-28.8c0.2-2.4,4.9-6.8,10-11.6
		c1.5-1.4,2.9-2.6,3.2-3.1c1.4-1.9,18.2-11.7,24.8-14.3c6.6-2.5,19.9-9.2,20-9.2c0.2-0.1,0.6,0,0.7,0.2c0.1,0.3,0,0.6-0.2,0.7
		c-0.1,0-13.5,6.8-20.1,9.3c-6.7,2.5-23.3,12.4-24.4,13.9c-0.4,0.5-1.6,1.7-3.3,3.2c-3.6,3.3-9.5,8.7-9.7,10.9
		c-0.3,3.4-9.3,28-9.7,29.1C82.9,469.5,82.7,469.6,82.5,469.6z"/>
	<path fill="#E94860" d="M207.6,442c-0.1,0-0.2,0-0.4-0.1L178.1,413c-0.2-0.2-0.2-0.5,0-0.7s0.5-0.2,0.7,0l29.1,28.9
		c0.2,0.2,0.2,0.5,0,0.7C207.8,442,207.7,442,207.6,442z"/>
	<path fill="#E94860" d="M222.4,484.8c-0.1,0-0.2,0-0.3-0.1l-12.2-11.9L193,457.4l-30.3-29.3c-0.2-0.2-0.2-0.5,0-0.7
		c0.2-0.2,0.5-0.2,0.7,0l30.3,29.3l16.8,15.4l12.2,11.9c0.2,0.2,0.2,0.5,0,0.7C222.6,484.8,222.5,484.8,222.4,484.8z"/>
	<path fill="#E94860" d="M260,478.3c-0.1,0-0.3,0-0.4-0.2c-0.1-0.1-3.3-3.7-4.1-7.4c-0.3-1.2-0.8-2.9-1.4-4.9
		c-1.2-4.2-2.7-8.9-2.4-10.7c0-0.2,0.1-0.8,0.1-1.4c0.5-5.4,1.9-21.9,13.1-32.9c0.2-0.2,0.5-0.2,0.7,0c0.2,0.2,0.2,0.5,0,0.7
		c-10.9,10.7-12.3,26.9-12.7,32.2c0,0.7-0.1,1.2-0.1,1.5c-0.2,1.5,1.2,6.3,2.4,10.2c0.6,1.9,1.1,3.8,1.4,4.9
		c0.8,3.5,3.9,6.9,3.9,6.9c0.2,0.2,0.2,0.5,0,0.7C260.2,478.2,260.1,478.3,260,478.3z"/>
	<path fill="#E94860" d="M122.3,526.3c-0.1,0-0.3,0-0.4-0.2c-0.2-0.2-0.1-0.5,0.1-0.7c1-0.8,24.4-19,29.2-20.3
		c4.7-1.2,17.6-11.9,17.7-12c0.2-0.2,0.5-0.1,0.7,0c0.2,0.2,0.1,0.5,0,0.7c-0.5,0.4-13.3,10.9-18.1,12.2
		c-4.7,1.2-28.6,19.9-28.8,20.1C122.6,526.3,122.4,526.3,122.3,526.3z"/>
	<path fill="#E94860" d="M220,542.7l-8.3-14.1l-7.8-19.7l-4.6-10.8l-3.3-23.6c0-0.3,0.1-0.5,0.4-0.6c0.3,0,0.5,0.1,0.6,0.4l3.3,23.5
		l4.6,10.7l7.8,19.7l7.5,12.8c1-5.7,5.4-27.5,14.6-38.4c0.2-0.2,0.5-0.2,0.7,0c0.2,0.2,0.2,0.5,0,0.7c-10.5,12.4-14.6,39-14.6,39.3
		L220,542.7z"/>
	<path fill="#E94860" d="M420.8,607.2c0,0-0.1,0-0.2,0c-0.2-0.1-0.4-0.4-0.3-0.7l5.3-13.2c0.1-0.2,0.4-0.4,0.7-0.3
		c0.2,0.1,0.4,0.4,0.3,0.7l-5.3,13.2C421.3,607.1,421.1,607.2,420.8,607.2z"/>
	<path fill="#E94860" d="M413.4,600.6c-0.2,0-0.4-0.1-0.5-0.3l-17.6-46.6l-5.4-7.6l-14.5-9c-0.2-0.1-0.3-0.5-0.1-0.7
		c0.1-0.2,0.5-0.3,0.7-0.1l14.6,9l0.1,0.1l5.6,7.8l17.6,46.7c0.1,0.3,0,0.6-0.3,0.7C413.5,600.6,413.5,600.6,413.4,600.6z"/>
	<polygon fill="#E94860" points="523.2,384.6 522.2,384.6 522.2,374 538.9,361 544.9,361 544.9,362 539.3,362 523.2,374.4 	"/>
	
		<rect x="535.7" y="316.7" transform="matrix(-0.5464 -0.8375 0.8375 -0.5464 562.7442 941.1343)" fill="#E94860" width="1" height="3"/>
	<polygon fill="#E94860" points="527.8,370 524.3,357.4 518.1,336.3 516.8,322.9 514.9,312.7 518.2,306.2 519.1,306.7 515.9,312.9 
		517.8,322.7 519.1,336.1 525.3,357.1 528.8,369.7 	"/>
	
		<rect x="429" y="309.4" transform="matrix(-0.1318 -0.9913 0.9913 -0.1318 165.5976 791.6647)" fill="#E94860" width="1" height="27.7"/>
	<path fill="#E94860" d="M418.1,384.5l-0.5-0.9c0,0,6.8-3.7,11.1-5.5c2.2-1,4.9-1.7,7.6-2.4c2.4-0.7,4.7-1.3,6.1-2
		c1-0.5,2.5-1.5,4.1-2.7c3.3-2.4,7.4-5.4,11.8-6.7c3-0.9,6-1.2,8.4-1.4c2.8-0.3,5-0.5,5.9-1.5l0,0c1.3-1.3,4.4-4.4,4.1-8
		c-0.2-2.2-1.6-4.2-4.1-6.1l0.6-0.8c2.8,2.1,4.4,4.4,4.6,6.9c0.3,4.1-3,7.4-4.4,8.8l0,0c-1.2,1.2-3.6,1.5-6.6,1.8
		c-2.4,0.2-5.2,0.5-8.2,1.4c-4.2,1.2-8.3,4.1-11.5,6.5c-1.7,1.2-3.2,2.3-4.3,2.8c-1.5,0.7-3.8,1.3-6.2,2c-2.6,0.7-5.3,1.5-7.4,2.4
		C424.9,380.9,418.2,384.4,418.1,384.5z"/>
	<path fill="#E94860" d="M489.5,428.3l-0.1-1c2.9-0.3,8.8-3.6,10.9-5.7c1.7-1.7,3.7-1.5,4.9-1c0.5-0.7,1.9-2.4,5.2-6.7
		c-2.3-3.5-3.5-9.2-3.7-10.1l-10-14c-4.8-5.4-13.1-13.9-15.4-13.7h-0.2l-0.1-0.1c-1.9-1.3-2.8-3.6-2.9-4.2c-0.4-0.4-1.5-2-1.1-5.7
		c0.1-1-0.1-1.8-0.7-2.4c-1.1-1.3-3.2-1.4-3.2-1.4l0-1c0.1,0,2.6,0.2,3.9,1.8c0.7,0.9,1,1.9,0.9,3.1c-0.4,3.7,0.9,5,0.9,5l0.1,0.1
		l0,0.1c0,0,0.7,2.3,2.5,3.7l0,0c0.8,0,2.9,0.5,9.4,7c3.5,3.5,6.6,7,6.7,7.1l0,0l10.2,14.2v0.1c0,0,1.3,6.7,3.7,10.2l0.2,0.3
		l-0.2,0.3c-4.8,6-5.7,7.3-5.7,7.3l-0.2,0.3l-0.4-0.2c-0.1,0-2.2-1.1-4,0.7C498.7,424.6,492.6,427.9,489.5,428.3z"/>
	<polygon fill="#E94860" points="524.3,451.1 515,435.4 510.6,429.5 511.4,428.9 515.9,434.9 525.1,450.5 	"/>
	<polygon fill="#E94860" points="475.4,449.2 475.1,448.2 487.2,444.8 499.3,441 515.1,434.7 520,428.8 530.3,418.7 541,409.6 
		556.9,409.4 556.9,410.4 541.4,410.6 530.9,419.4 520.7,429.6 515.7,435.5 515.6,435.6 499.7,442 487.5,445.8 	"/>
	<polygon fill="#E94860" points="423,509.4 422.4,508.6 435.6,499.6 452.5,489.6 464.5,481.6 469.2,477.5 469.9,478.3 465.1,482.5 
		453,490.5 436.2,500.5 	"/>
	<polygon fill="#E94860" points="485.8,537.5 485.5,536.9 460.8,497.9 461.6,497.3 486.1,535.9 488,534.1 488.7,534.9 	"/>
	<path fill="#E94860" d="M469.8,561.8l-0.6-0.9c0,0,6.3-4.3,10.5-9.2c1.3-1.6,1.9-3.1,1.8-4.6c-0.2-1.9-1.7-3-1.7-3l0.6-0.8
		c0.1,0,1.8,1.4,2.1,3.7c0.2,1.7-0.5,3.5-2,5.3C476.2,557.4,469.9,561.8,469.8,561.8z"/>
	<path fill="#E94860" d="M471.7,566.1c-0.1,0-0.3,0-0.4-0.2c-0.2-0.2-0.2-0.5,0-0.7c0.1,0,7.3-6.5,10.4-9.5c2.7-2.6-0.2-5.9-0.4-6
		c-0.2-0.2-0.2-0.5,0-0.7c0.2-0.2,0.5-0.2,0.7,0c1.3,1.4,3,4.9,0.3,7.5c-3.1,2.9-10.3,9.4-10.4,9.5
		C471.9,566.1,471.8,566.1,471.7,566.1z"/>
	<path fill="#E94860" d="M440.6,578.8c-0.1,0-0.3-0.1-0.4-0.2c-0.1-0.2-0.1-0.5,0.1-0.7l18.4-12.7c0.2-0.1,0.6-0.1,0.7,0.1
		s0.1,0.5-0.1,0.7l-18.4,12.7C440.8,578.8,440.7,578.8,440.6,578.8z"/>
	<polygon fill="#E94860" points="207,570.7 206.2,570.1 218.5,553.7 226.8,546.8 232.6,538.3 240.1,533.3 239,529.7 244.2,524.2 
		249.2,524.2 249.2,525.2 244.6,525.2 240.1,530 241.3,533.8 233.3,539 227.5,547.5 219.2,554.4 	"/>
	<path fill="#E94860" d="M99.6,534.7c-2.8-1.5-4.5-3.6-5.1-6.1c-1.1-4.6,1.8-8.9,1.9-9.1l0.9,0.6c0,0-2.7,4.2-1.7,8.3
		c0.5,2.2,2.1,4,4.6,5.5L99.6,534.7z"/>
	<path fill="#E94860" d="M71.2,513.6l0.4-1.5c0,0,1.7-6.2,1.9-8.6c0.1-2.6,8.2-15.4,9.1-16.9l7.7-11.4l7.9-11.5l12.6-8.2h14.5v1
		h-14.2l-12.2,8l-7.8,11.3l-7.7,11.4c-3.5,5.6-8.8,14.6-9,16.4c-0.1,1.8-1,5.4-1.5,7.4l21.5-16.6l0.6,0.8L71.2,513.6z"/>
	
		<rect x="64.5" y="508.3" transform="matrix(-0.5193 -0.8546 0.8546 -0.5193 -342.8696 840.4974)" fill="#E94860" width="1" height="16.8"/>
	
		<rect x="155.9" y="443.2" transform="matrix(-0.9458 -0.3249 0.3249 -0.9458 187.6637 918.6808)" fill="#E94860" width="29.3" height="1"/>
	<path fill="#E94860" d="M121.6,520.3c-0.1,0-0.1,0-0.2,0c-0.2-0.1-0.4-0.4-0.2-0.7l12.3-26.3l11-15.8l20.6-36.2
		c0.1-0.2,0.4-0.3,0.7-0.2c0.2,0.1,0.3,0.4,0.2,0.7L145.3,478l-11,15.8L122,519.9C121.9,520.2,121.8,520.3,121.6,520.3z"/>
	<path fill="#E94860" d="M191.1,426.6c-0.1,0-0.2,0-0.3-0.1c-0.2-0.2-0.2-0.5,0-0.7s4.5-4.9,11-7.2c0.6-0.2,1.3-0.4,1.9-0.7
		c5.8-2,11.3-4,18.7-4.2c11.2-0.3,24.4-0.6,27,0c2.8,0.6,14,8.6,14.5,8.9c0.2,0.1,0.3,0.5,0.1,0.7c-0.1,0.2-0.5,0.3-0.7,0.1
		c-3.2-2.3-11.9-8.3-14.1-8.8c-2.8-0.6-20.2-0.1-26.8,0c-7.3,0.2-12.7,2.1-18.5,4.1c-0.6,0.2-1.3,0.4-1.9,0.7
		c-6.2,2.2-10.5,6.8-10.6,6.9C191.4,426.5,191.2,426.6,191.1,426.6z"/>
	<path fill="#E94860" d="M308.9,441.9L261,415.7c-0.2-0.1-0.3-0.4-0.2-0.7c0.1-0.2,0.4-0.3,0.7-0.2l47,25.8l-1.2-16.2
		c0-0.3,0.2-0.5,0.5-0.5c0.3,0,0.5,0.2,0.5,0.5l1.3,17.1L308.9,441.9z"/>
	<path fill="#E94860" d="M309.6,466.6c-0.3,0-0.5-0.2-0.5-0.5l-0.5-24.6c0-0.3,0.2-0.5,0.5-0.5l0,0c0.3,0,0.5,0.2,0.5,0.5l0.5,24.6
		C310.1,466.4,309.9,466.6,309.6,466.6L309.6,466.6z"/>
	<path fill="#E94860" d="M349.5,561.9c-0.1,0-0.2,0-0.3-0.1c-5.1-4-14.6-25.4-15-26.3c-0.1-0.2,0-0.6,0.2-0.7c0.2-0.1,0.6,0,0.7,0.2
		c0.1,0.2,9.8,22.1,14.7,25.9c0.2,0.2,0.2,0.5,0.1,0.7C349.8,561.8,349.7,561.9,349.5,561.9z"/>
	<path fill="#E94860" d="M442.2,577.7c0,0-0.1,0-0.2,0c-2.9-1.3-4.9-6.2-6.5-10.1c-0.2-0.6-0.5-1.2-0.7-1.8
		c-1.7-4-5.6-10.6-8.8-12.6c-3.4-2.1-16.1-12.4-16.6-12.8c-0.7-0.6-17.7-13.8-17.1-22.2c0.5-7.9-2.3-12.1-2.3-12.1
		c-0.1-0.2-0.1-0.5,0.1-0.7c0.2-0.1,0.5-0.1,0.7,0.1c0.1,0.2,3,4.4,2.5,12.7c-0.5,7.8,16.6,21.2,16.7,21.3
		c0.1,0.1,13.2,10.7,16.6,12.8c3.6,2.3,7.6,9.2,9.2,13.1c0.2,0.6,0.5,1.1,0.7,1.8c1.5,3.8,3.5,8.4,6,9.6c0.2,0.1,0.4,0.4,0.2,0.7
		C442.6,577.5,442.4,577.7,442.2,577.7z"/>
	<path fill="#E94860" d="M434.4,334.8c-1.9,0-3.7-0.3-5-1.7c-1.7-1.8-2.1-4.9-1.5-9.7c1.1-7.7-0.6-12.5-5-14.4
		c-3.4-1.4-6.9-6.5-7.1-6.8c-0.1-0.2-0.1-0.5,0.1-0.7c0.2-0.1,0.5-0.1,0.7,0.1c0,0,3.6,5,6.7,6.4c6.1,2.6,6.4,9.8,5.6,15.5
		c-0.6,4.5-0.2,7.4,1.2,8.8c1.1,1.2,3,1.6,6.2,1.3c5.5-0.6,8.6-1.4,8.6-1.4c0.3-0.1,0.6,0.1,0.6,0.3c0.1,0.3-0.1,0.6-0.3,0.6
		c-0.1,0-3.1,0.9-8.8,1.4C435.8,334.7,435.1,334.8,434.4,334.8z"/>
	<path fill="#E94860" d="M523.2,390.5h-1v-5.8l-18.4-30.9v-32.4l2.1-5.6c-2.9-2.5-7.2-6.5-6.8-8c0.3-1.1-0.6-3.4-2.2-4.2
		c-1.7-0.8-2.5-3.4-2.9-5v0h0c0,0,0-0.1,0-0.1l0,0v-0.1c-0.1-0.4-0.1-1-0.3-1.9l-1.7-11.4l1-0.1c0.7,4.5,1.9,13,2,13.4v0
		c0.6,2.3,1.4,3.9,2.3,4.3c2,1,3.3,3.8,2.8,5.4c0,0.8,3.5,4.3,6.8,7.2l0.3,0.2l-2.3,6.1v31.9l18.4,30.9L523.2,390.5L523.2,390.5z"/>
	<path fill="#E94860" d="M221,314.3c-0.1,0-0.2,0-0.3-0.1c-0.2-0.2-0.3-0.5-0.1-0.7l10.5-13.6l32.5-30c0.2-0.2,0.5-0.2,0.7,0
		c0.2,0.2,0.2,0.5,0,0.7l-32.5,29.9l-10.4,13.5C221.3,314.3,221.2,314.3,221,314.3z"/>
	<polygon fill="#E94860" points="361.3,619.5 360.3,619.5 360.3,611 358.7,603.9 359.7,603.7 361.3,611 	"/>
</g>
<g>
	<circle fill="#464242" cx="497.1" cy="469.5" r="4.9"/>
	<path fill="#E94860" d="M497.1,476.1c-3.6,0-6.6-2.9-6.6-6.6c0-3.6,2.9-6.6,6.6-6.6c3.6,0,6.6,2.9,6.6,6.6
		C503.6,473.2,500.7,476.1,497.1,476.1z M497.1,466.4c-1.8,0-3.2,1.4-3.2,3.2c0,1.8,1.4,3.2,3.2,3.2c1.8,0,3.2-1.4,3.2-3.2
		C500.3,467.8,498.8,466.4,497.1,466.4z"/>
</g>
<g>
	<circle fill="#464242" cx="395.3" cy="378.7" r="4.9"/>
	<path fill="#E94860" d="M395.3,385.3c-3.6,0-6.6-2.9-6.6-6.6c0-3.6,2.9-6.6,6.6-6.6s6.6,2.9,6.6,6.6
		C401.9,382.3,398.9,385.3,395.3,385.3z M395.3,375.5c-1.8,0-3.2,1.4-3.2,3.2c0,1.8,1.4,3.2,3.2,3.2c1.8,0,3.2-1.4,3.2-3.2
		C398.5,377,397.1,375.5,395.3,375.5z"/>
</g>
<g>
	<circle fill="#464242" cx="369.2" cy="552.5" r="4.9"/>
	<path fill="#E94860" d="M369.2,559.2c-3.6,0-6.6-2.9-6.6-6.6c0-3.6,2.9-6.6,6.6-6.6s6.6,2.9,6.6,6.6
		C375.7,556.2,372.8,559.2,369.2,559.2z M369.2,549.4c-1.8,0-3.2,1.4-3.2,3.2c0,1.8,1.4,3.2,3.2,3.2c1.8,0,3.2-1.4,3.2-3.2
		C372.4,550.8,370.9,549.4,369.2,549.4z"/>
</g>
<g>
	<circle fill="#464242" cx="228.9" cy="444.5" r="4.9"/>
	<path fill="#E94860" d="M228.9,451.1c-3.6,0-6.6-2.9-6.6-6.6s2.9-6.6,6.6-6.6s6.6,2.9,6.6,6.6S232.5,451.1,228.9,451.1z
		 M228.9,441.3c-1.8,0-3.2,1.4-3.2,3.2s1.4,3.2,3.2,3.2s3.2-1.4,3.2-3.2S230.6,441.3,228.9,441.3z"/>
</g>
<g>
	<circle fill="#464242" cx="174.5" cy="346.3" r="4.9"/>
	<path fill="#E94860" d="M174.5,352.8c-3.6,0-6.6-2.9-6.6-6.6s2.9-6.6,6.6-6.6c3.6,0,6.6,2.9,6.6,6.6S178.1,352.8,174.5,352.8z
		 M174.5,343.1c-1.8,0-3.2,1.4-3.2,3.2c0,1.8,1.4,3.2,3.2,3.2s3.2-1.4,3.2-3.2C177.6,344.5,176.2,343.1,174.5,343.1z"/>
</g>
<g>
	<circle fill="#464242" cx="221" cy="369.6" r="4.9"/>
	<path fill="#E94860" d="M221,376.2c-3.6,0-6.6-2.9-6.6-6.6c0-3.6,2.9-6.6,6.6-6.6c3.6,0,6.6,2.9,6.6,6.6
		C227.6,373.2,224.6,376.2,221,376.2z M221,366.4c-1.8,0-3.2,1.4-3.2,3.2c0,1.8,1.4,3.2,3.2,3.2s3.2-1.4,3.2-3.2
		C224.2,367.9,222.8,366.4,221,366.4z"/>
</g>
<g>
	<circle fill="#464242" cx="294.4" cy="361.8" r="4.9"/>
	<path fill="#E94860" d="M294.4,368.3c-3.6,0-6.6-2.9-6.6-6.6s2.9-6.6,6.6-6.6c3.6,0,6.6,2.9,6.6,6.6S298,368.3,294.4,368.3z
		 M294.4,358.6c-1.8,0-3.2,1.4-3.2,3.2c0,1.8,1.4,3.2,3.2,3.2c1.8,0,3.2-1.4,3.2-3.2C297.5,360,296.1,358.6,294.4,358.6z"/>
</g>
<g>
	<circle fill="#464242" cx="150.8" cy="397.7" r="4.9"/>
	<path fill="#E94860" d="M150.8,404.3c-3.6,0-6.6-2.9-6.6-6.6c0-3.6,2.9-6.6,6.6-6.6s6.6,2.9,6.6,6.6
		C157.3,401.4,154.4,404.3,150.8,404.3z M150.8,394.6c-1.8,0-3.2,1.4-3.2,3.2c0,1.8,1.4,3.2,3.2,3.2s3.2-1.4,3.2-3.2
		C154,396,152.5,394.6,150.8,394.6z"/>
</g>
</svg>
